<svg xmlns="http://www.w3.org/2000/svg" viewBox="0 0 528.22 220.25"><defs><style>.cls-1{fill:#2b3a3c}</style></defs><g id="Camada_2" data-name="Camada 2"><g id="svg15"><g id="g8"><path id="path2" class="cls-1" d="M365 55c-14.05 0-22.91 5.19-31.16 18.32C327.77 59 316.77 55 306.39 55c-7.94 0-18.63 2.44-24.74 13.44l-1.23-7.64a4 4 0 0 0-4-3.36h-16.8a3.85 3.85 0 0 0-4 4v90.11a3.85 3.85 0 0 0 4 4h19.28a3.86 3.86 0 0 0 4-4v-48.3c0-11 5.5-21.69 16.49-21.69 11.31 0 16.5 8.55 16.5 21.69v48.88a3.85 3.85 0 0 0 4 4h18.94a3.86 3.86 0 0 0 4-4v-48.88c0-11 4.89-21.08 15.88-21.08s15.89 8.25 15.89 20.47v49.18a3.85 3.85 0 0 0 4 4H398a3.85 3.85 0 0 0 4-4v-50.1C402.31 65.37 384.59 55 365 55zm-174.12-.62c-11.61 0-22.6 3.67-31.16 14.06V14.05a3.85 3.85 0 0 0-4-4H135a3.85 3.85 0 0 0-4 4v137.46a3.85 3.85 0 0 0 4 4h18a4 4 0 0 0 4-3.36l1.22-9.17c9.17 11.91 20.47 14.66 33 14.66 29 0 48.87-20.77 48.87-51.62 0-32.08-20.16-51.63-49.18-51.63zm-3 77.29A25.66 25.66 0 1 1 213.53 106c-.31 14.05-11.61 25.66-25.66 25.66zM346.1 8.25c-4.28 0-7 1.83-8.55 4V.92a1 1 0 0 0-.92-.92h-4.58a1 1 0 0 0-.92.92v34.21a1 1 0 0 0 .92.92h4.28c.3 0 .61-.31.91-.92v-3.67a10.48 10.48 0 0 0 9.17 4.59c7.94 0 12.52-6.42 12.52-14.06S354 8.25 346.1 8.25zm-1.22 22.6c-4.58 0-7.64-3.66-7.64-8.55s2.75-8.55 7.64-8.55c4.58 0 7.64 3.66 7.64 8.55s-2.75 8.55-7.64 8.55zm66.9-22.6c-4.59 0-7 2.14-8.25 4V9.78a1 1 0 0 0-.92-.92h-4.27a1 1 0 0 0-.92.92v26a1 1 0 0 0 .92.92h4.58a1 1 0 0 0 .91-.92V20.47c0-4.28 2.45-6.72 6.42-6.72a5.41 5.41 0 0 1 5.19 5.49v16.5a1 1 0 0 0 .92.92h4.58a1 1 0 0 0 .92-.92v-16.8c0-6.11-3.36-10.69-10.08-10.69zm29 5.5a6.74 6.74 0 0 1 6.43 4.25v.31c0 .3.31.61.92.61h4.58a1 1 0 0 0 .92-.92 6.65 6.65 0 0 0-1.23-3.36v-.3l-.3-.31a.3.3 0 0 0-.31-.3 7.7 7.7 0 0 0-3.66-3.36 14.12 14.12 0 0 0-7-1.84c-7.94 0-13.44 6.11-13.44 14.05s5.5 14.06 13.44 14.06a14.77 14.77 0 0 0 7-1.84 12.89 12.89 0 0 0 3.66-3.36.3.3 0 0 1 .31-.3l.3-.31v-.3a6.65 6.65 0 0 0 1.23-3.36 1 1 0 0 0-.92-.92h-4.58c-.31 0-.61.31-.92.61v.31a6.74 6.74 0 0 1-6.41 4.27c-4.59 0-7-3.36-7-8.55-.3-5.5 2.75-9.16 7-9.16zm30.85-5.5c-8.55 0-14 6.41-14 14.05s5.5 14.05 14 14.05 14.05-6.41 14.05-14-5.48-14.1-14.03-14.1zm0 22.6c-4.58 0-7.64-3.36-7.64-8.55s3.36-8.55 7.64-8.55c4.58 0 7.94 3.36 7.94 8.55-.28 5.19-3.34 8.55-7.92 8.55zM389.48 9.16h-4.28a1 1 0 0 0-.92.92v3.06a10.46 10.46 0 0 0-9.16-4.59c-7.94 0-12.52 6.42-12.52 14.05s4.58 14.06 12.52 14.06q6.42 0 9.16-4.59v3.67a1 1 0 0 0 .92.92h4.28a1 1 0 0 0 .91-.92v-26c0-.58-.3-.58-.91-.58zm-12.83 21.69c-4.58 0-7.64-3.66-7.64-8.55s2.75-8.55 7.64-8.55c4.58 0 7.63 3.66 7.63 8.55.31 4.89-2.74 8.55-7.63 8.55z"/><path id="path4" class="cls-1" d="M48.57 64.45c0-4.88 4.58-8.85 9.16-7.94A54 54 0 0 1 103.56 110c0 42.46-33.91 51.62-48.57 53.46-3.37.3-6.73-2.45-6.73-5.81v-93.2z"/><path id="path6" class="cls-1" d="M6.11 113h24.13a18.51 18.51 0 0 0 18.64-18.61V11a6.13 6.13 0 0 0-6.11-6.11H31.46A31.67 31.67 0 0 0 0 36.66v70.56A6.07 6.07 0 0 0 6.11 113zM505 142.66c14.66-7.64 21.38-21.08 21.68-35.74 0-12.22-3-22-8.55-29.94l9.17-10.69a4.36 4.36 0 0 0-.62-6.11l-15-11.61a4.28 4.28 0 0 0-5.81.92l-7.94 10.38a60.2 60.2 0 0 0-25.35-5.5c-28.11 0-54.68 17.42-54.68 51.93 0 31.77 21.68 51.32 55 51.32 18.33 0 24.44 7.64 24.44 17.42 0 12.52-11.91 18.93-25.05 18.93-12.52 0-22.91-4.27-25.05-17.41a4.23 4.23 0 0 0-4-3.36h-19.55a4.27 4.27 0 0 0-4.28 4.58c1.23 26.58 19.55 42.47 52.85 42.47 27.8 0 55-14.67 55-44.91.3-5.8.3-22.6-22.3-32.68zm-32.69-11.31a25.36 25.36 0 1 1 25.3-25.35c.31 13.75-10.99 25.35-25.35 25.35z"/></g></g></g></svg>