<svg version="1.1" id="Camada_1" xmlns="http://www.w3.org/2000/svg" x="0" y="0" viewBox="0 0 236.1 83.1" style="enable-background:new 0 0 236.1 83.1" xml:space="preserve"><style>.st0{fill:#2b3a3c}</style><path class="st0" d="M27.3 37.5c-.1-1.6-1.3-4.4-3.9-10.1H10.5l-1.8 4.4c-1.6 3.9-1.8 4.6-1.9 5.7H0c.9-.3 2.9-3.9 3.9-6.4L17.3 0l13.9 31.6c1.5 3.2 2.4 5.6 3.4 5.9h-7.3zm-10.5-25-4.6 10.7h9.3l-4.7-10.7zM38.2 37.5c.5-.6.5-4.3.5-7.8v-20c0-2.3 0-7.2-.5-7.9h6.6c-.4.7-.4 6.3-.4 7.4v23.9c4.8 0 14.4 0 14.7-.5v4.9H38.2zM64.1 37.5c.4-1.9.4-5.2.4-6.4V8.8c0-1.8 0-6.3-.5-7h6.6c-.4.8-.4 5.2-.4 7v22.3c0 1.1.1 4.6.4 6.5l-6.5-.1zM101.6 37.5c-.1-1.6-1.3-4.4-3.9-10.1H84.8L83 31.8c-1.6 3.9-1.8 4.6-1.9 5.7h-6.7c.9-.3 2.9-3.9 3.9-6.4L91.6 0l13.9 31.6c1.5 3.2 2.4 5.6 3.4 5.9h-7.3zm-10.4-25-4.6 10.7h9.3l-4.7-10.7zM117.5 12.1v21.3c0 2.5.2 3.6.5 4.1h-5.5c.5-.4.5-5 .5-6.2V.1l28.3 27.4V8.7c0-2.2 0-6.2-.5-6.8h5.6c-.6.8-.6 6-.6 7.1v30.6l-28.3-27.5zM152.3 29.6c.6 2.4 4.5 4.1 8 4.1 3.3 0 6.4-1.6 6.4-5.2 0-7.7-13.9-7.2-13.9-18.2 0-5.3 3.2-9.4 10.4-9.4 2.2 0 5.1.4 7.5 1.2l-.1 5.7c-1.6-2-4.2-2.9-6.5-2.9-3.4 0-6.3 1.7-6.3 4.9 0 7 14.2 7.3 14.2 18.5 0 5.2-3 10.1-10.8 10.1-2 0-5.9-.3-9-1.9l.1-6.9zM208.6 35.5c-2.7 1.6-6.5 2.9-11.5 2.9-13.4 0-20.3-9.7-20.3-19.6 0-10.5 7.8-18 19-18 6.9 0 13.2 2.8 13.6 2.8l-.9 5.8c-2.5-2.9-8.2-4.1-12-4.1-7.2 0-13.6 4.2-13.6 13.5 0 10.4 7.9 15.3 15 15.3 4.6 0 9-2 10.4-5.5l.3 6.9zM215.2 37.5c.5-.4.5-5.2.5-7.1V9c0-.7 0-6.4-.5-7.2h19.4v4.7c-1-.4-4.3-.4-6.7-.4l-6.5-.1v11h7.8c.9 0 4.4 0 5-.4v5.1c-.7-.4-4-.4-5.2-.4h-7.7v12l9.3-.1c2 0 4.9-.1 5.4-.4v4.8h-20.8v-.1z"/><g><path class="st0" d="M3.7 73.1c.6 2.4 4.5 4.1 8 4.1 3.3 0 6.4-1.6 6.4-5.2 0-7.7-13.9-7.2-13.9-18.2 0-5.3 3.2-9.4 10.4-9.4 2.2 0 5.1.4 7.6 1.2l-.1 5.7c-1.6-2-4.2-2.9-6.5-2.9-3.4 0-6.3 1.7-6.3 4.9 0 7 14.2 7.3 14.2 18.5 0 5.2-3 10.1-10.8 10.1-2 0-5.9-.3-9-1.9v-6.9zM28.2 63.2c0-9.5 6.5-18.8 18.3-18.8 10.3 0 18.7 7.1 18.7 18.6 0 11.1-7.7 18.9-18.6 18.9-11.7 0-18.4-9.1-18.4-18.7zm31.1.3c0-8.2-4-15-12.9-15-9.1 0-12.1 7.2-12.1 14.2 0 8 3.9 15.1 12.9 15.1 9.3.1 12.1-7.4 12.1-14.3zM76.5 55.6v21.3c0 2.5.2 3.6.5 4.1h-5.5c.5-.4.5-5 .5-6.2V43.6L100.3 71V52.2c0-2.2 0-6.2-.5-6.8h5.6c-.6.8-.6 6-.6 7.1v30.6L76.5 55.6zM135.9 81c-.1-1.6-1.3-4.4-3.9-10.1h-12.9l-1.8 4.4c-1.6 3.9-1.8 4.6-1.9 5.7h-6.7c.9-.3 2.9-3.9 3.9-6.4L126 43.4 139.9 75c1.5 3.2 2.4 5.6 3.4 5.9l-7.4.1zm-10.4-25-4.6 10.7h9.3L125.5 56zM146.9 81c.5-.4.5-5.2.5-7.1V52.5c0-.7 0-6.4-.5-7.2h19.4V50c-1-.4-4.3-.4-6.7-.4l-6.5-.1v10.9h7.8c.9 0 4.4 0 5-.4v5.1c-.7-.4-4-.4-5.2-.4H153v12l9.3-.1c2 0 4.9-.1 5.4-.4V81h-20.8z"/></g></svg>