<svg xmlns="http://www.w3.org/2000/svg" viewBox="0 0 1477.37 554.34"><defs><style>.cls-1{fill:#2b3a3c;}</style></defs><g id="Camada_2" data-name="Camada 2"><g id="svg2293"><g id="layer1"><g id="g432"><path id="path434" class="cls-1" d="M1120.94,526.22c.4,8.84,6.42,16.87,22.09,16.87,14.87,0,21.3-6.83,21.3-16.47,0-10.45-10.45-13.26-22.9-17.28-16.48-5.22-29.73-10.44-29.73-26.11,0-16.47,12.45-25.71,30.93-25.71,18.08,0,30.94,9.24,31.34,26.11h-11.25c0-10.85-8.84-15.67-20.09-15.67s-19.28,5.63-19.28,14.46c0,8.44,7.63,12.06,22.09,16.08,19.29,5.22,30.54,12.85,30.54,28.52,0,14.87-8.84,27.32-32.54,27.32-21.3,0-33.35-12.05-33.75-27.32Z"/></g><g id="g438"><path id="path440" class="cls-1" d="M1229,517c-4-.4-8.43-1.21-12.85-1.21-10.45,0-18.89,2.81-18.89,14.06,0,10.85,8,14.07,17.68,14.07a30.25,30.25,0,0,0,14.06-3.22Zm-38.57-25.31c4.42-4,11.25-7.64,21.7-7.64,24.1,0,28.12,13.66,28.12,28.13v40.57h-8.84l-.4-3.61c-5.22,3.21-11.65,4.42-18.08,4.42-14.06-.4-26.11-6-26.11-23.3,0-18.08,14.06-22.5,27.72-22.5a91.92,91.92,0,0,1,14.46,1.2c0-8.44-2.81-16.07-18.08-16.07a26.71,26.71,0,0,0-14.46,4Z"/></g><g id="g444"><path id="path446" class="cls-1" d="M1276,474.39l7.23-16.07h11.25l-10.45,16.07Zm23.7,77.94-.4-3.61a37,37,0,0,1-18.48,4.42c-13.26,0-25.71-6-25.71-23.31V485.24h11.25v44.59c0,10.45,6.43,14.87,15.67,14.87a33.28,33.28,0,0,0,14.46-3.22V485.24h11.25v67.09Z"/></g><g id="g450"><path id="path452" class="cls-1" d="M1364.41,495.68a39.34,39.34,0,0,0-14.87-2.81c-9.24,0-15.26,4-15.26,15.27v22.5c0,9.24,6.42,13.66,16.07,13.66a33.28,33.28,0,0,0,14.46-3.22v-45.4Zm2.41,56.65-.4-3.61c-5.23,3.21-11.65,4.42-18.08,4.42-12.86,0-25.72-6-25.72-22.9V507.33c0-17.67,12.46-23.3,24.91-23.3a43.47,43.47,0,0,1,16.88,3.62V458.72h11.25v93.61Z"/></g><g id="g456"><path id="path458" class="cls-1" d="M1431.1,508.14c0-11.65-7.23-15.27-14.46-15.27-8,0-15.27,4-15.27,15.67v6.83h29.73Zm-41,.8c0-15.67,10.05-24.91,26.92-24.91s24.91,9.64,24.91,24.91V523h-40.58v9.24c0,9.24,6,12.86,14.87,12.86a27.8,27.8,0,0,0,16.47-5.22l6.43,5.22c-5.63,5.22-13.26,8.44-23.71,8.44-16.87,0-24.91-9.64-24.91-22.9Z"/></g><g id="g462"><path id="path464" class="cls-1" d="M281.64,247A20.06,20.06,0,0,0,276,261.05V340.6q0,13.86-8.44,20.49a30.95,30.95,0,0,1-37.77,0c-5.62-4.42-8-11.25-8-20.49V241h-41v91.2c0,26.92,7.63,43.39,20.89,53.44,13.66,10,28.52,14.06,45.8,14.06s32.14-4,47.41-12.45c15.67-9.25,21.69-26.92,21.69-54.65V241H296.1q-9,0-14.46,6Z"/></g><g id="g468"><path id="path470" class="cls-1" d="M458.82,321.32l28.12-85.58,28.13,85.58ZM477.3,195.56c-9.64,0-16.47,4.42-20.09,13.66l-66.69,188h43.79l12.86-41.38h78.34l13.67,41.38H583L510.25,195.56Z"/></g><g id="g474"><path id="path476" class="cls-1" d="M806.75,251c-13.26-10.45-30.13-13.66-47.41-13.66A128.35,128.35,0,0,0,734.43,241a49.69,49.69,0,0,0-20.89,10.85,53.22,53.22,0,0,0-23.3-11.65,114.17,114.17,0,0,0-26.52-2.81c-16.87.8-33.75,5.22-45.8,14.46-13.26,10-20.89,26.92-20.89,53.43v92l41.38-.4V297.21c0-9.24,2.81-16.07,8-20.49a29.08,29.08,0,0,1,18.88-6.43,29.84,29.84,0,0,1,18.88,6.43q8.44,6.63,8.44,20.49v99.24h40.58V297.61q0-13.86,8.44-20.49a30.93,30.93,0,0,1,37.76,0q8.45,6.63,8.44,20.49v79.55c0,6,1.61,10.85,5.22,14.46a19.68,19.68,0,0,0,14.47,5.63h20.49v-91.6c.4-27.32-8-44.2-21.3-54.64Z"/></g><g id="g480"><path id="path482" class="cls-1" d="M926.88,223.69,956.61,192H930.5c-3.62,0-6.43.4-8.44,2-1.61,1.21-1.61,1.61-3.62,4.83L902,227.3s6.83-.4,17.28-.4c5.62-.4,7.63-3.21,7.63-3.21Z"/></g><g id="g486"><path id="path488" class="cls-1" d="M885.5,303.24c.4-10.05,3.21-18.08,8.84-23.31,5.62-5.62,12.45-8,20.89-8,9.24,0,16.47,2.81,21.7,8,4.82,5.23,7.63,12.86,8,23.31ZM914,237.75c-22.1,0-39.78,7.23-52.23,21.69-12.06,14.06-18.08,33.75-18.08,58.66,0,26.12,6.42,46.2,18.88,60.27,12.45,14.46,29.73,21.69,52.23,21.69,18.48,0,33.75-4.42,45.8-13.66,12-8.44,20.49-20.89,24.51-37.36H955.81c-4.82,0-8.44,0-10.85,3.61,0,0-2.81,4.82-10,9.24s-18.08,4.42-18.08,4.42c-10.05,0-17.28-3.61-22.5-10-5.63-6-8.44-14.87-8.84-26.92H985.94s1.21,0,1.21-.8.4-5.23.4-9.65c.4-25.71-6.43-45.8-18.88-60.26-13.26-14.06-31.34-20.89-54.64-20.89Z"/></g><g id="g492"><path id="path494" class="cls-1" d="M1086.79,241h-5.23a114.79,114.79,0,0,0-30.93,4,72.19,72.19,0,0,0-26.12,12.86A65.27,65.27,0,0,0,1006,282.75c-4.42,10.44-6.83,23.3-6.83,38.16v75.54h41V316.09c0-11.65,2.81-20.49,8-25.71,5.62-5.63,13.66-8,25.31-8h12.85a.79.79,0,0,0,.81-.8V241c.4.4.4,0-.4,0Z"/></g><g id="g498"><path id="path500" class="cls-1" d="M1006.43,283.15c-4.42,10.44-6.83,23.3-6.83,38.17v75.53Z"/></g><g id="g504"><path id="path506" class="cls-1" d="M1262.36,352.25c-2.41,2-5.63,6.43-11.25,10.05a37.36,37.36,0,0,1-16.87,4c-10,0-17.68-3.21-22.91-9.24-6.83-7.23-10.44-20.09-10.44-38.17s3.61-30.93,10.44-38.57c5.63-5.62,12.46-8,20.9-8,9.24,0,16.47,2.81,21.69,8,2,2,3.22,2.82,4.42,5.23.81,1.6,1.61,2,2.41,2h39c.41,0,0-1.21,0-1.61A79,79,0,0,0,1285.26,259c-12.86-14.06-30.94-20.89-54.64-20.89-22.1,0-39.78,7.23-52.23,21.69-12.05,14.07-18.08,33.75-18.08,58.66,0,26.12,6.43,46.21,18.88,60.27,12.46,14.46,29.73,21.69,52.23,21.69,18.48,0,33.75-4.42,45.81-13.66,12-8.43,20.08-20.89,24.5-37.36H1272.4a13.63,13.63,0,0,0-10,2.81Z"/></g><g id="g510"><path id="path512" class="cls-1" d="M358,195.56h-.81a20.59,20.59,0,0,0-20.49,18.88V396.85h41V195.56Z"/></g><g id="g516"><path id="path518" class="cls-1" d="M139,293.19c-5.62-2.41-10.85-4.82-16.47-6.83-3.21-.8-7.23-2-12.45-3.21s-11.25-3.22-18.49-5.63a91.86,91.86,0,0,1-14.46-3.61C54.64,268.68,43,261.05,43,250.6c0-7.63,2.81-13.66,8.84-18.08,5.22-4.42,13.66-6.42,25.31-6.42,12,0,21.7,2.41,28.53,7.63a24.26,24.26,0,0,1,8,10c4,8,10.45,12.46,19.29,12.46h23.3c-.8-19.69-7.64-35.36-20.89-47.41-12.86-10.85-31.34-16.47-55.05-16.47q-38,0-57.85,15.67C9.24,218.86,2.41,234.13,2.41,253c0,10.85,2,20.09,6,26.92a35.9,35.9,0,0,0,16.47,18.89c6.83,4.82,20.09,9.24,39.78,13.66l4.82,1.2,1.2.4c35,7.64,52.63,18.08,52.63,30.54,0,8-3.21,14.46-9.24,18.88-6.43,4.42-15.26,6.43-27.32,6.43-13.66,0-24.51-2.81-32.14-8-7.23-4.82-12-12.85-13.66-24.5H0c1.21,22.09,8.84,39,23.3,50.22,13.26,11.25,33.35,16.87,59.87,16.87,25.71,0,45.8-5.62,59.86-16.47,14.06-11.65,20.89-28.12,20.89-49a55.53,55.53,0,0,0-6.43-26.92A55.4,55.4,0,0,0,139,293.19Z"/></g><g id="g522"><path id="path524" class="cls-1" d="M1403.78,361.09c-6.43,6.83-10.44,7.23-28.12,7.23-7.64,0-11.65-.8-16.88-5.62a17.5,17.5,0,0,1-5.62-12.86,19.26,19.26,0,0,1,4.42-12.86c3.61-4,8-5.62,14.86-7.63l13.66-2.81A149.86,149.86,0,0,0,1409,318.9v16.88c0,10.44.4,19.28-5.23,25.31ZM1430.3,249.4q-16.27-10.85-49.42-10.85c-19.69,0-34.55,4.42-45.4,13.26A45.33,45.33,0,0,0,1319,281.54h39.37a16.6,16.6,0,0,1,9.24-8.84,42.67,42.67,0,0,1,14.87-2.41,65.52,65.52,0,0,1,16.87,2.41c6.43,1.61,9.24,5.63,9.24,11.65,0,7.64-8.83,12.86-26.11,15.27L1366,302c-14.87,2.41-27.32,6.83-37,14.06q-14.46,10.25-14.46,35c0,17.27,5.62,30.53,16.47,37.76,10.45,7.64,26.52,10.05,40.58,10.05a183.61,183.61,0,0,0,20.89-.81,64,64,0,0,0,22.5-5.62,27.5,27.5,0,0,0,8.44,4c4,1.2,23.7.8,23.7.8V281.94q0-20.49-16.87-32.54Z"/></g><g id="g528"><path id="path530" class="cls-1" d="M1145,193.15h-21.29a18.21,18.21,0,0,0-14.06,6,19.49,19.49,0,0,0-6,14.06v12.45H1145Z"/></g><g id="g534"><path id="path536" class="cls-1" d="M1144.64,239.35h-20.89a18.21,18.21,0,0,0-14.06,6,19.49,19.49,0,0,0-6,14.06V396.85H1145V240.16s0-.81-.4-.81Z"/></g><g id="g540"><path id="path542" class="cls-1" d="M1065.09,16.37C1165.53-6.13,1255.53,27.62,1366,35.66c77.94,6,110.48-8.84,110.48-8.84s2.41,0-.8,2.41c-15.27,10.85-56.25,24.91-163.12,19.69-202.89-9.65-232.22,11.25-332.26,45.4-86,29.32-126.56,33.34-126.56,33.34s4.82-3.21,10-6c35.76-22.5,121.74-87.59,201.29-105.27Z"/></g><g id="g546"><path id="path548" class="cls-1" d="M20.49,23.6C18.08,26.42,100.84,79.05,253.92,77,430.3,75,522.7,7.13,610.69,87.49c136.6,124.14,259.54,29.73,259.54,29.73s-16.47,8.43-131.78-1.21c-182-15.67-123.74-135.4-279.23-113.3-84,12.06-128.56,35.36-200.48,47C113.7,73.83,23.3,20.39,20.49,23.6Z"/></g></g></g></g></svg>