<svg version="1.1" id="Camada_1" xmlns="http://www.w3.org/2000/svg" x="0" y="0" viewBox="0 0 35 30" style="enable-background:new 0 0 35 30" xml:space="preserve"><style>.st0{fill:#2b3a3c}</style><path class="st0" d="M15.1 21.6h-4.6v-3.8h4.6c1 0 1.9.8 1.9 1.9 0 1-.8 1.9-1.9 1.9zm-4.6-10.8h4.2c1 0 1.9.8 1.9 1.9 0 1-.8 1.9-1.9 1.9h-4.2v-3.8zm9.1 5c.6-.8 1-1.9 1-3.1 0-2.8-2.3-5-5-5H6.4v16.9h10c2.8 0 5-2.3 5-5 0-1.5-.7-2.9-1.8-3.8zM35 4.6c0 .6-.2 1.1-.7 1.5-.5.4-1.1.6-1.8.6s-1.3-.2-1.8-.6c-.5-.4-.8-.8-.8-1.5h1.9c.2.4.4.6.8.6.2 0 .4 0 .6-.2.2-.1.2-.3.2-.5s-.1-.3-.2-.4c-.3 0-.5-.1-.7-.1h-.6V2.7h.6c.2 0 .4 0 .6-.2.1-.1.2-.2.2-.4s-.1-.4-.2-.5c-.1-.1-.3-.2-.5-.2s-.4.1-.6.2c-.1.1-.2.2-.2.4H30c.1-.6.4-1.2.8-1.5.4-.4 1-.6 1.7-.6s1.3.2 1.8.6c.4.4.7.9.7 1.5s-.2 1-.7 1.2c.5.4.7.9.7 1.4zM6.4 4.4V2.3H0V30h6.4v-2.1H2.1V4.4h4.3z"/><path class="st0" d="M21.3 27.9V30h6.4V2.3h-6.4v2.1h4.3v23.5h-4.3z"/></svg>