<svg version="1.1" id="Camada_1" xmlns="http://www.w3.org/2000/svg" x="0" y="0" viewBox="0 0 347 145" style="enable-background:new 0 0 347 145" xml:space="preserve"><style>.st0{fill:#2b3a3c}</style><path class="st0" d="M270 883c-79-120-145-226-147-235-5-17 62-138 76-138 4 0 55 72 112 160s106 160 109 159c3 0 52-72 109-159 57-88 107-160 111-160 11 0 80 113 80 130 0 16-290 460-300 460-4 0-72-98-150-217zM1420 960v-70h-30c-27 0-30-3-30-29 0-25 4-30 28-33l27-3 5-115c3-63 9-123 14-133 19-40 102-59 160-37 23 8 24 12 15 39-10 27-12 28-39 18-24-9-32-8-49 8-19 16-21 30-21 122v103h48c46 0 47 1 47 30s-1 30-47 30h-48v140h-80v-70zM1700 780V530h68l3 113c5 131 17 160 78 178 30 9 44 9 67-2 44-22 54-52 54-176V530h82l-4 133c-4 148-16 185-68 212-53 27-144 21-182-13-16-13-18-13-24 1-3 9-4 50-2 91l3 76h-75V780zM1041 978c-5-13-46-104-91-203s-89-195-96-212l-14-33h44c43 0 43 0 63 53l20 52 125 3 125 3 23-56c22-55 22-55 66-55 52 0 60-31-70 255l-95 210-46 3c-39 3-46 0-54-20zm102-165 45-103h-187l33 78c45 103 59 133 62 130 1-2 22-49 47-105zM2280 888c-82-14-131-68-138-152-6-70 1-96 35-137 53-63 160-87 240-54 61 26 67 34 42 61-18 19-25 21-42 13-66-36-140-28-176 18-40 50-34 53 120 53h142l-5 50c-11 108-100 169-218 148zm108-83c16-14 32-34 35-45 5-19 0-20-99-20-118 0-128 8-75 61 39 38 96 40 139 4zM2758 890c-20-4-48-14-62-23-33-22-39-21-31 3 6 18 2 20-34 20h-41V530h80v114c0 108 1 116 26 145 32 38 80 49 122 27 16-8 32-23 36-31 3-9 6-70 6-136V530h80v130c0 136-7 166-47 202-24 22-89 36-135 28zM3144 889c-85-11-110-33-81-73 11-16 15-16 49-1 79 32 150 12 164-47l6-28h-78c-92 0-142-20-163-64-18-39-4-93 31-119 41-31 128-35 173-9 34 21 35 21 35 2 0-17 7-20 41-20h41l-4 133c-5 178-23 212-123 227-22 3-63 3-91-1zm136-223c0-53-65-91-127-74-24 6-35 16-39 35-11 42 24 63 102 63 61 0 64-1 64-24z" transform="matrix(.1 0 0 -.1 0 145)"/><path class="st0" d="m256.2 114.1.5-1c.7.6 1.9 1.1 3.1 1.1 1.6 0 2.3-.6 2.3-1.5 0-2.3-5.7-.9-5.7-4.4 0-1.5 1.1-2.7 3.6-2.7 1.1 0 2.3.3 3 .8l-.4 1.1c-.8-.5-1.8-.8-2.6-.8-1.6 0-2.3.7-2.3 1.5 0 2.3 5.7.9 5.7 4.3 0 1.4-1.2 2.7-3.7 2.7-1.3.1-2.8-.4-3.5-1.1m23.4-1.3h-5l-1 2.4h-1.4l4.3-9.5h1.3l4.3 9.5h-1.4l-1.1-2.4zm-.4-1.1-2.1-4.7-2 4.7h4.1zm12.2-.6v-5.4h1.4v5.3c0 2.1 1 3 2.7 3 1.7 0 2.7-.9 2.7-3v-5.3h1.3v5.4c0 2.7-1.5 4.2-4 4.2-2.6 0-4.1-1.5-4.1-4.2m4.8-8h1.7l-2.3 1.8h-1.2l1.8-1.8zm14.1 2.6h4c3 0 5.1 1.9 5.1 4.7s-2.1 4.7-5.1 4.7h-4v-9.4zm3.9 8.3c2.3 0 3.8-1.4 3.8-3.6 0-2.1-1.5-3.6-3.8-3.6h-2.6v7.1h2.6zm22.3 0v1.2h-6.9v-9.5h6.7v1.2H331v2.9h4.8v1.2H331v3.1h5.5v-.1zM55.3 89.4 47.2 77c-.4-.6-1-.8-1.3-.8-.2 0-.5-.1-.7-.1-12.5 2.3-19.7 14.4-19.7 14.4.3-.2.6-.4 1-.5.1-.1.2-.1.3-.2.1 0 .2-.1.2-.1.2-.1.3-.2.5-.2.1 0 .2-.1.3-.1 3.5-1.5 7.6-2.4 12-2.4 5.5 0 10.6 1.4 14.8 3.9 0 0 .6.3 1-.1.3-.6.1-.9-.3-1.4"/></svg>