<?xml version="1.0" encoding="utf-8"?>
<!-- Generator: Adobe Illustrator 24.0.1, SVG Export Plug-In . SVG Version: 6.00 Build 0)  -->
<svg version="1.1" id="Camada_1" xmlns="http://www.w3.org/2000/svg" xmlns:xlink="http://www.w3.org/1999/xlink" x="0px" y="0px"
	 viewBox="0 0 500 500" style="enable-background:new 0 0 500 500;" xml:space="preserve">
<style type="text/css">
	.st0{fill:none;stroke:#F9F9F9;stroke-miterlimit:10;}
	.st1{fill:none;stroke:#F7F7F7;stroke-linecap:round;stroke-linejoin:round;}
	.st2{fill:#FFFFFF;}
	.st3{opacity:8.000000e-02;fill:#FF0000;enable-background:new    ;}
	.st4{fill:#92E3A9;}
	.st5{opacity:0.6;fill:#FF0000;enable-background:new    ;}
	.st6{fill:#D3B294;}
	.st7{fill:none;stroke:#263238;stroke-linecap:round;stroke-linejoin:round;}
	.st8{fill:#263238;}
	.st9{fill:none;stroke:#263238;stroke-width:2;stroke-linecap:round;stroke-linejoin:round;}
	.st10{fill:none;stroke:#FFFFFF;stroke-linecap:round;stroke-linejoin:round;}
	.st11{fill:#D3B294;stroke:#263238;stroke-miterlimit:10;}
	.st12{fill:#FFFFFF;stroke:#263238;stroke-linecap:round;stroke-linejoin:round;}
	.st13{fill:#263238;stroke:#263238;stroke-miterlimit:10;}
	.st14{opacity:0.2;fill:#FFFFFF;enable-background:new    ;}
	.st15{fill:none;stroke:#263238;stroke-miterlimit:10;}
	.st16{fill:#263238;stroke:#263238;stroke-linecap:round;stroke-linejoin:round;}
	.st17{fill:#FFFFFF;stroke:#263238;stroke-miterlimit:10;}
	.st18{fill:none;stroke:#263238;stroke-width:0.75;stroke-linecap:round;stroke-linejoin:round;}
	.st19{fill:#FFFFFF;stroke:#263238;stroke-width:1;stroke-linecap:round;stroke-linejoin:round;stroke-miterlimit:4;}
	.st20{fill:#FFFFFF;stroke:#263238;stroke-width:1;stroke-linecap:round;stroke-linejoin:round;stroke-miterlimit:3.9999;}
	.st21{fill:#92E3A9;stroke:#263238;stroke-linecap:round;stroke-linejoin:round;}
	.st22{fill:#3F3F3F;}
</style>
<g id="freepik--background-simple--inject-164">
	<path class="st0" d="M417.7,52.1c-30.5-18.9-67-21-99.1-5.2c-27.4,13.4-48.7,36.2-76.1,49.6c-37.5,18.3-78.6,28.3-116.5,45.9
		S51.9,187.5,38.3,227c-16,46.6-10.4,101.5,14.1,144.1c39.8,69.3,118.7,93.9,194.6,93c160.5-1.9,243.2-196.3,217-336
		C458.3,97.7,444.4,68.7,417.7,52.1z"/>
</g>
<g id="freepik--Graphics--inject-164">
	<polygon class="st1" points="126.3,317.5 117.9,319 116.3,309.9 106.3,311.7 108,320.8 99.6,322.3 101.4,332.7 109.8,331.1 
		111.5,340.2 121.5,338.4 119.8,329.3 128.2,327.8 	"/>
	<polygon class="st1" points="210.2,178.1 202.1,175.2 205.2,166.5 195.7,163.1 192.6,171.9 184.5,169 181,178.9 189.1,181.8 
		186,190.5 195.6,193.9 198.7,185.1 206.7,188 	"/>
	<polygon class="st1" points="413.2,282.3 405.7,286.3 401.4,278.1 392.4,282.9 396.7,291 389.2,295 394.1,304.3 401.6,300.3 
		406,308.5 414.9,303.7 410.6,295.6 418.1,291.6 	"/>
	<circle class="st1" cx="91.3" cy="289.7" r="6.1"/>
	<path class="st1" d="M186.6,207.9c0,0.9-0.7,1.6-1.6,1.6c-0.9,0-1.6-0.7-1.6-1.6c0-0.9,0.7-1.6,1.6-1.6l0,0
		C185.9,206.2,186.6,207,186.6,207.9z"/>
	<path class="st1" d="M112.5,180.1c0,3.2-2.6,5.7-5.7,5.7s-5.7-2.6-5.7-5.7s2.6-5.7,5.7-5.7C109.9,174.4,112.4,176.9,112.5,180.1z"
		/>
	<path class="st1" d="M364.5,257.6c0,1.8-1.5,3.2-3.2,3.2c-1.8,0-3.2-1.5-3.2-3.2c0-1.8,1.5-3.2,3.2-3.2l0,0
		C363,254.3,364.5,255.8,364.5,257.6z"/>
	<circle class="st1" cx="331.7" cy="151.6" r="7.3"/>
	<polygon class="st1" points="152.6,71.4 144.1,72 143.4,62.8 133.3,63.5 134,72.8 125.5,73.4 126.3,83.9 134.8,83.2 135.5,92.5 
		145.6,91.7 144.9,82.5 153.4,81.9 	"/>
	<path class="st1" d="M173.6,160.6c0,0.9-0.6,1.6-1.4,1.6c-0.8,0-1.4-0.7-1.4-1.6c0-0.9,0.6-1.6,1.4-1.6l0,0
		C173,159,173.6,159.7,173.6,160.6z"/>
	<path class="st1" d="M348.8,237c0,3.2-2.6,5.7-5.7,5.7s-5.7-2.6-5.7-5.7s2.6-5.7,5.7-5.7C346.2,231.2,348.8,233.8,348.8,237z"/>
	<polygon class="st1" points="484.5,61.1 477,65.1 472.6,56.9 463.7,61.6 468,69.8 460.5,73.8 465.4,83.1 472.9,79.1 477.2,87.3 
		486.2,82.5 481.9,74.4 489.4,70.4 	"/>
	<path class="st1" d="M448.3,166.7c0,3.2-2.6,5.7-5.7,5.7s-5.7-2.6-5.7-5.7s2.6-5.7,5.7-5.7C445.7,161,448.3,163.5,448.3,166.7z"/>
	<path class="st1" d="M422.8,177.2c0,1.6-1.3,2.9-2.9,2.9s-2.9-1.3-2.9-2.9c0-1.6,1.3-2.9,2.9-2.9
		C421.5,174.4,422.8,175.6,422.8,177.2z"/>
</g>
<g id="freepik--Character--inject-164">
	<path class="st2" d="M281.4,209.5c0.4,0.6,11.9,2.9,17.8,11.5c3.5,5,6.4,10.3,8.7,15.9c0,0,10,5.9,15,10.8s11.2,11.4,15.9,14.8
		s14.3,9.9,16.8,17.4c0,0-14.5,39.6-18.6,48.4s-14.2,27.4-14.2,27.4l-18,76.5H200.4l-3.6-26.2c0,0-32-6.3-45.4-18
		c0,0-1.3-29,4.3-54.9s24.6-79.7,37.5-96.1c0,0,20.6-9.8,38.7-13c0,0,11.8-9.3,19.5-10.3C259.1,212.7,281.4,209.5,281.4,209.5z"/>
	<path class="st3" d="M198.2,417.7c9.3,1.8,17.4,3.3,26.8,3.2s19.1-2.2,26.8-7.6c1.5-1.2,3.2-2.2,5-2.9c4.1-1.1,8.2,1.6,12.2,2.8
		c5.2,1.6,10.8,0.8,15.9-1.1s9.6-4.9,14.1-7.9c-0.7,9.2-0.9,18.4-0.6,27.6l6.4,0.3l16.5-72.5c0,0-28.2,32.7-41.9,42.5l-26.3-6.8
		c0,0-2.5,2.1-7.7,3.1c0,0-2.4,9.2-15.8,9.2s-32.7-1.8-32.7-1.8L198.2,417.7z"/>
	<path class="st4" d="M171.2,282.5c0,0-12.2,59.4-11.6,79.8c0,0,16.6-4.7,28.2,0c0,0-19.7-2.2-28.2,6.9s17.7,32.8,70,28
		c0,0,10.4,3.3,15.7,1.4c0,0-1.4,9.5-15.8,9.2c-14.4-0.6-56.3-0.9-78.1-19.8C151.4,387.9,148.7,333.3,171.2,282.5z"/>
	<path class="st5" d="M171.2,282.5c0,0-12.2,59.4-11.6,79.8c0,0,16.6-4.7,28.2,0c0,0-19.7-2.2-28.2,6.9s17.7,32.8,70,28
		c0,0,10.4,3.3,15.7,1.4c0,0-1.4,9.5-15.8,9.2c-14.4-0.6-56.3-0.9-78.1-19.8C151.4,387.9,148.7,333.3,171.2,282.5z"/>
	<path class="st4" d="M298.9,240.3c11.2,6.6,12.5,14.1,14.8,19.4c-5.8,1.2-11.9,2.4-16.7,5.9c-6,4.4-9.3,11.6-11.8,18.6
		c-2.4,6.6-4.4,13.4-6,20.3c5.4-9.8,13.1-18.2,22.5-24.3c5.4-3.6,12-6.4,18.2-4.4c-5.2,2.2-11,5.1-12.1,10.6
		c-0.2,0.9-0.2,1.9,0.1,2.8c0.9,2.6,4.1,3.3,6.6,4.5c4.8,2.5,7.2,8,7.5,13.4s-1.4,10.6-3.1,15.7c-1.4,4.5-2.9,8.9-4.3,13.4
		c-1.8,5.7-3.7,11.5-7,16.5s-8.3,9.2-14.2,10.2c-2.5,0.5-5,0.2-7.3-0.8c-1.7-0.9-3.4-2.1-4.8-3.5c-7.1-5.7-15.6-9.4-24.6-10.6
		c11.6,7.7,17.1,21.6,21.9,34.7c-2.2-3.9-5.4-7.1-9.3-9.4c-1-0.7-2.2-1.1-3.4-1.1c-3.2,0.3-4.2,4.3-6.1,6.8c-2.3,3-6.4,4.1-10.2,3.6
		s-7.2-2.2-10.5-4l-42.5-21.9l-3,9c0,0,33.9,27,85.7,36.5c0,0,33.7-26.6,45.6-50.2s30.5-72,30.5-72s-6.8-12.9-18.4-19.6
		c0,0-8.7-4.1-10.5-9.2s-18.2-13.9-18.2-13.9S310.5,242.6,298.9,240.3z"/>
	<path class="st5" d="M298.9,240.3c11.2,6.6,12.5,14.1,14.8,19.4c-5.8,1.2-11.9,2.4-16.7,5.9c-6,4.4-9.3,11.6-11.8,18.6
		c-2.4,6.6-4.4,13.4-6,20.3c5.4-9.8,13.1-18.2,22.5-24.3c5.4-3.6,12-6.4,18.2-4.4c-5.2,2.2-11,5.1-12.1,10.6
		c-0.2,0.9-0.2,1.9,0.1,2.8c0.9,2.6,4.1,3.3,6.6,4.5c4.8,2.5,7.2,8,7.5,13.4s-1.4,10.6-3.1,15.7c-1.4,4.5-2.9,8.9-4.3,13.4
		c-1.8,5.7-3.7,11.5-7,16.5s-8.3,9.2-14.2,10.2c-2.5,0.5-5,0.2-7.3-0.8c-1.7-0.9-3.4-2.1-4.8-3.5c-7.1-5.7-15.6-9.4-24.6-10.6
		c11.6,7.7,17.1,21.6,21.9,34.7c-2.2-3.9-5.4-7.1-9.3-9.4c-1-0.7-2.2-1.1-3.4-1.1c-3.2,0.3-4.2,4.3-6.1,6.8c-2.3,3-6.4,4.1-10.2,3.6
		s-7.2-2.2-10.5-4l-42.5-21.9l-3,9c0,0,33.9,27,85.7,36.5c0,0,33.7-26.6,45.6-50.2s30.5-72,30.5-72s-6.8-12.9-18.4-19.6
		c0,0-8.7-4.1-10.5-9.2s-18.2-13.9-18.2-13.9S310.5,242.6,298.9,240.3z"/>
	<path class="st6" d="M295.4,148.3c0,0,2.3-26.5-9.1-29s-17.8-13-17.8-13L228,117.6l-6.3,24.3l4,12.3c0,0,0.8,11.4,1,17.1
		s0,10,4.3,16.9s8.3,13.7,17.5,19.6v15.6c0,0-5.7,16.7-2.6,26.9c0,0,1.9,2,7.1-1s27.6-17.9,35.3-33.5l2.4-39.6c0,0,6.4,1,9.2-4.9
		c4.1-5.7,3.9-12.4,2.3-17.9s-8.4-1.9-8.4-1.9L295.4,148.3z"/>
	<path class="st7" d="M233.8,114.2c0,0-9.7,12.7-9.1,26s2.5,22.7,1.9,32.9s10.2,27.4,21.3,34.3c8.3,5.2,18.6,4.3,26.7-1
		c9-6,14-16.8,15.8-27.1c0.2-1,0.3-2,0.4-3.1"/>
	<path class="st7" d="M247.9,207.4c0,0,1.6,14.3,0,19.3c-1.7,5.4-3.8,17.9-2,23.6c1.8,5.7,35.9-18.2,42.5-34.5
		c0,0,0.9-31.8,3.2-39.7"/>
	<path class="st7" d="M247,186.7c0,0,15.5,4.4,21.8-11.6"/>
	<path class="st8" d="M248.3,210.9c0,0,3.3,10.2,10.4,10.8s24.9-13.7,31-30.5v-8.4c0,0-5,22-19.6,26s-21.5-1.1-21.5-1.1L248.3,210.9
		z"/>
	<path class="st7" d="M267.9,177.2c-6.9-0.5-10,6.3-10,6.3c-3.4-0.4-6.9,0.9-9.1,3.6c3.5,3.1,8.4,4,12.7,2.3
		C269.4,186.6,267.9,177.2,267.9,177.2z"/>
	<path class="st7" d="M250.7,147c0.1,3.2-0.1,6.3-0.4,9.5c-0.4,2.8-1.7,5.5-2.8,8.2c-1,2.4-2.7,6.1-1.3,8.7c1.6,2.9,6.8,0,6.8,0"/>
	<path class="st7" d="M256.3,172.8c1.8,0.2,4.3,0,4.8-3.1"/>
	<path class="st9" d="M262,143.2c3.6-3.4,9.1-3.4,12.7,0"/>
	<path class="st9" d="M241.8,145.7c0,0-4.7-6-10.8,0"/>
	<path class="st7" d="M287.1,160.9c0,0,5.4-12.9,12.3-10.1c4.8,1.9,5.1,10.2,2.5,16s-3.8,11.7-12.3,8.4"/>
	<path class="st8" d="M288.1,158.9c0,0-5.1-1.8-6.1-10.2s4.2-16.7,2.3-22.7s-16.9-3-20.3-13.5c0,0-11.2,8.4-33,6.6
		c0,0-4.6,7.8-5.4,12.6c-1.1,7.5-1,15.1,0.1,22.5c0,0.3,0.1,0.5,0.1,0.8c1.6,8.1-6.2-11.1-6-19.3s-4.7-18.6,1.7-26.4
		s30.1-12.3,34.8-16c4.7-3.7,13.7,6.1,24.2,9.7s19.1,7.8,17.8,22.7s0.1,16.8,0.1,24.7C298.4,150.4,293.6,148.6,288.1,158.9z"/>
	<path class="st8" d="M268.4,154c0,2-0.8,3.7-1.7,3.7s-1.7-1.6-1.7-3.7s0.8-3.6,1.7-3.6S268.4,152,268.4,154z"/>
	<path class="st8" d="M241.8,154c0,2-0.8,3.7-1.7,3.7s-1.7-1.6-1.7-3.7s0.8-3.6,1.7-3.6S241.8,152,241.8,154z"/>
	<path class="st7" d="M262,158.9c0,0,3.6,3.8,8.1,4.3"/>
	<path class="st7" d="M237.7,163.2c0,0,6.5-0.5,8-4.3"/>
	<path class="st7" d="M252.9,252.7c4.9-3.1,11.3-1.9,16.6,0.3c2.9,1.2,5.7,2.7,8.6,4c1.4,0.6,2.9,1.2,4.4,1.6c3.6,1,2.3-3.6,2.1-5.6
		c-0.3-2.9-0.5-5.8-0.9-8.7c-0.1-0.6-0.1-1.2,0.2-1.8c0.4-0.4,0.9-0.8,1.4-0.9c6.4-2,13.3-1.1,20-1c0.6,0.1,1.2,0,1.8-0.3
		c1-0.6,0.9-2.1,0.6-3.3c-2.3-9.9-10.5-19.7-19.3-24.6"/>
	<path class="st7" d="M248.5,213.9c-4.4,1.8-8.9,3.8-12.7,6.6c-1.4,1-2.6,2.2-3.8,3.4c-0.9,0.9-1.5,2-1.6,3.3c0,1.2,0.6,2.3,1.6,3
		c0.7,0.6,1.4,1,2.2,1.4c1.8,0.9,4,1.7,4.8,3.6c0.2,0.4,0.3,0.8,0.2,1.3c-0.1,0.4-0.3,0.7-0.6,1c-1.5,1.9-4.2,3.3-4,5.7
		c0.1,1.9,2,3,3.7,3.8s3.6,1.7,4.2,3.4"/>
	<path class="st10" d="M222.4,120.1c0.6-4,4.8-6.6,8.9-7.2s8.1,0,12.2-0.3c6.9-0.7,13.1-4.3,17.1-9.9"/>
	<path class="st10" d="M226.9,108.9c7.3-4.3,17.5,0.2,24.5-4.4c2-1.5,3.7-3.2,5.2-5.3"/>
	<path class="st7" d="M319.5,273c-26,5.2-35.7,24.3-35.7,24.3L253,345.8"/>
	<path class="st7" d="M297.6,267.8c2.2-2,4.6-3.7,7.3-4.9"/>
	<path class="st7" d="M279.4,304.4c0,0,3.3-17.5,12.7-30.4"/>
	<path class="st7" d="M199.2,341.8c0,0-1.4-53.7-6-61.9"/>
	<path class="st7" d="M307.8,236.9c0,0,15,9,21.7,17.5s22.4,14.1,26,25.5c0,0-20.7,65.3-42.5,88.9s-33.7,33.3-33.7,33.3
		s-52.3-9.1-86.1-37.5l12.1-27.9c0,0,34.2,4.3,47.7,9.1c13.5,4.8,26.3,33.9,26.3,33.9"/>
	<path class="st7" d="M253.1,345.9c0,0,23.9,4.6,31.7,15.5"/>
	<polyline class="st7" points="321.9,357 304.8,432.1 200.4,432.1 196.8,405.9 	"/>
	<path class="st7" d="M245.4,398.4c-5.8,11.8-13.4,9.2-13.4,9.2c-58.9,2.2-80.5-19.8-80.5-19.8s-3-30.9,8.6-72.7
		s33.2-78.3,33.2-78.3c9.6-6.4,31.1-11.4,37.1-12.7l1.6-0.3"/>
	<path class="st7" d="M232,407.6c0,0-3.1-0.5-2.3-21.1"/>
	<path class="st7" d="M194.8,365.9c0,0-14.7-5.2-32.9,7.4"/>
	<path class="st7" d="M165.2,361.4c0,0,19.3-5.7,28,3.5"/>
	<path class="st11" d="M191.1,364.3l2.5,1.3l9.5-23.8c0,0-9.9-1.6-25.5,17.8C182.6,359.7,187.3,361.3,191.1,364.3z"/>
	<path class="st11" d="M229.6,386.5v10.6c0,0,13.5,4,23.4-1.8L229.6,386.5z"/>
	<path class="st8" d="M302.7,240.4c0,0.2,0,0.4-0.1,0.6c-0.4,1.6-10.7,40.4-43.6,57.7c-0.3,0.2-0.6,0.2-0.9,0.2c-1.1,0-2-0.9-2-2
		c0-0.7,0.4-1.4,1.1-1.8c30-15.7,40.6-51.6,41.5-54.9L302.7,240.4z"/>
	<path class="st8" d="M231.9,230.2c-5.2,11.9-8,24.6-8.3,37.6c0,1,0,2.1,0,3.2c0,0.3,0,0.5,0,0.8c-0.3,0-0.6,0-0.9,0.1
		c-1.1,0.2-2.1,0.5-3.1,1c0-1.5,0-2.9,0-4.3c0.4-22.4,7.1-37.7,10.7-44.3l1.6-0.3c-0.9,0.9-1.5,2-1.6,3.3
		C230.4,228.4,231,229.5,231.9,230.2z"/>
	<path class="st12" d="M271.3,289.7c2.3,3.3,0.4,8.6-4.3,12.1s-10.4,3.5-12.8,0.3s-0.4-8.6,4.3-12.1
		C263.2,286.5,269,286.4,271.3,289.7z"/>
	<path class="st12" d="M265.5,287.8c1.7,2.3,0.3,6.1-3,8.5s-7.4,2.5-9,0.2s-0.3-6.1,3-8.5C259.8,285.5,263.8,285.5,265.5,287.8z"/>
	<path class="st13" d="M239.1,328.3c-0.9,0.6-2.2,0.4-2.8-0.6c-0.6-0.8-0.4-2,0.4-2.6c0.2-0.1,6.9-5.9,3.9-25.1
		c-0.3-1.6-0.6-3.4-1-5.2c-1.3-5.8-3.2-13.2-7.2-18.6c-1.9-2.9-5.3-4.6-8.8-4.4c-0.3,0-0.6,0-0.9,0.1c-1.1,0.2-2.1,0.5-3.1,1
		c-3,1.5-5.3,4.2-6.3,7.4l-0.4,1c-2.3,6.1-4.1,12.4-5.6,18.8c-1.6,7.9-2.1,16.1,0.7,21.8c1.5,3.2,4.4,5.6,7.8,6.6
		c1,0.3,1.6,1.5,1.3,2.5c-0.3,0.8-1,1.4-1.9,1.4c-0.2,0-0.4,0-0.6-0.1c-4.4-1.3-8.1-4.4-10.1-8.6c-3.2-6.5-2.8-15.3-1.2-23.6
		c1.4-6.8,3.4-13.6,5.8-20.1l0.4-1c1.6-4.8,5.3-8.6,10.1-10.4c0.8-0.3,1.7-0.5,2.5-0.6c0.5-0.1,1-0.1,1.5-0.1
		c4.8-0.1,9.3,2.2,11.9,6.1c4.5,6,6.6,13.9,7.9,20.1c0.5,2.1,0.8,4.1,1.1,6C247.8,321.6,239.4,328.1,239.1,328.3z"/>
	<path class="st13" d="M213.8,332c0,0,7.3,3,9.1,0s0.4-4.4-2.2-4.6c-2.5-0.1-5-0.1-7.5,0L213.8,332z"/>
	<path class="st12" d="M217.2,331c-0.3,0.8-1,1.4-1.9,1.4c-0.2,0-0.4,0-0.6-0.1c-4.4-1.3-8.1-4.4-10.1-8.6
		c-3.2-6.5-2.8-15.3-1.2-23.6h4c-1.6,7.9-2.1,16.1,0.7,21.8c1.5,3.2,4.4,5.6,7.8,6.6C216.9,328.8,217.5,329.9,217.2,331L217.2,331z"
		/>
	<path class="st13" d="M232.4,326.2c-0.6,0.7-0.9,1.7-0.8,2.6c0.4,1.4,1.8,2.3,3.2,2.2c1.4-0.2,2.7-0.9,3.6-2c1-1.1,4.5-8.5,1.3-7.2
		C237.4,322.6,233.9,324.1,232.4,326.2z"/>
	<path class="st12" d="M239.1,328.3c-0.9,0.6-2.2,0.4-2.8-0.6c-0.6-0.8-0.4-2,0.4-2.6c0.2-0.1,6.9-5.9,3.9-25.1h4
		C247.8,321.6,239.4,328.1,239.1,328.3z"/>
	<path class="st14" d="M257,151.6c0,0,12.6-6.5,24.2,0c0,0,0.2,9.6-4.2,13.6c-1.5,1.4-8.6,1.6-11.3,1.4
		C254.7,165.6,257,151.6,257,151.6z"/>
	<path class="st14" d="M249.1,151.6c0,0-12.6-6.5-24.1,0c0,0-0.2,9.6,4.2,13.6c1.6,1.4,8.7,1.6,11.3,1.4
		C251.4,165.6,249.1,151.6,249.1,151.6z"/>
	<path class="st15" d="M257,151.6c0,0,12.6-6.5,24.2,0c0,0,0.2,9.6-4.2,13.6c-1.5,1.4-8.6,1.6-11.3,1.4
		C254.7,165.6,257,151.6,257,151.6z"/>
	<path class="st15" d="M249.1,151.6c0,0-12.6-6.5-24.1,0c0,0-0.2,9.6,4.2,13.6c1.6,1.4,8.7,1.6,11.3,1.4
		C251.4,165.6,249.1,151.6,249.1,151.6z"/>
	<path class="st15" d="M249.1,151.6c0,0,2.8-2.1,7.9,0"/>
	<line class="st15" x1="281.2" y1="151.6" x2="286.4" y2="154"/>
</g>
<g id="freepik--Table--inject-164">
	<polyline class="st12" points="79.8,458.7 116.8,423.8 410.6,423.8 432.8,458.7 79.8,458.7 	"/>
	<rect x="79.8" y="458.7" class="st16" width="353" height="9.4"/>
</g>
<g id="freepik--Notebook--inject-164">
	<polygon class="st17" points="116.8,450.1 116.8,442.8 174.8,442.8 174.8,450.1 163.6,450.1 	"/>
	<polygon class="st12" points="116.8,442.8 151.1,419.9 196.8,420.9 174.8,442.8 	"/>
	<polygon class="st12" points="174.8,450.1 196.8,428.1 196.8,420.9 174.8,442.8 	"/>
	<path class="st9" d="M173.3,441c0,0-4.6,0.9-4.6,4.9s4,5.2,4,5.2"/>
	<path class="st9" d="M168.6,441c0,0-4.6,0.9-4.6,4.9s4,5.2,4,5.2"/>
	<path class="st9" d="M164,441c0,0-4.6,0.9-4.6,4.9s4,5.2,4,5.2"/>
	<path class="st9" d="M159.4,441c0,0-4.6,0.9-4.6,4.9s4,5.2,4,5.2"/>
	<path class="st9" d="M154.7,441c0,0-4.6,0.9-4.6,4.9s4,5.2,4,5.2"/>
	<path class="st9" d="M150.1,441c0,0-4.6,0.9-4.6,4.9s4,5.2,4,5.2"/>
	<path class="st9" d="M145.5,441c0,0-4.6,0.9-4.6,4.9s4,5.2,4,5.2"/>
	<path class="st9" d="M140.9,441c0,0-4.6,0.9-4.6,4.9s4,5.2,4,5.2"/>
	<path class="st9" d="M135.6,441c0,0-4.6,0.9-4.6,4.9s4,5.2,4,5.2"/>
	<path class="st9" d="M130.4,441c0,0-4.6,0.9-4.6,4.9s4,5.2,4,5.2"/>
	<path class="st9" d="M124.7,441c0,0-4.6,0.9-4.6,4.9s4,5.2,4,5.2"/>
	<path class="st18" d="M154,425.5c-3.2,1.8-5.7,4.5-7.2,7.9c4.2-1.3,7.5-4.3,10.7-7.3l-3.5,8.6c3.2-0.3,6.1-2,7.8-4.8
		c-1.1,0.5-1.6,1.7-1.1,2.8c0,0.1,0.1,0.1,0.1,0.2c2.9-0.4,4.8-3.2,6.2-5.8c0.3,1.4,0.4,2.9,0.3,4.3c2.4,0.3,4.9,0,7.2-0.9"/>
</g>
<g id="freepik--Box--inject-164">
	<rect x="307.8" y="388.7" class="st12" width="100.8" height="55.4"/>
	<polygon class="st12" points="307.4,444.1 291.2,428.7 291.2,373.3 307.4,388.7 	"/>
	<polygon class="st12" points="408.6,388.7 392.4,373.3 291.6,373.3 307.8,388.7 	"/>
	<line class="st7" x1="357.3" y1="388.7" x2="341.1" y2="373.3"/>
</g>
<g>
	<circle class="st12" cx="123" cy="132.2" r="30.1"/>
	<path class="st10" d="M144.8,124c0.6,1.1,1,2.3,0.9,3.5"/>
	
		<ellipse transform="matrix(0.9209 -0.3898 0.3898 0.9209 0.1902 128.1243)" class="st19" cx="315.8" cy="63.6" rx="30.1" ry="30.1"/>
	<circle class="st12" cx="202.1" cy="62" r="30.1"/>
	<circle class="st12" cx="95.3" cy="221.7" r="30.1"/>
	<ellipse class="st20" cx="412.4" cy="221.8" rx="30.1" ry="30.1"/>
	<circle class="st12" cx="383.5" cy="132.5" r="30.1"/>
	<path class="st7" d="M383,135.7"/>
	<path class="st7" d="M379.4,137.4"/>
	<path class="st21" d="M385,139.7"/>
	<path class="st21" d="M381.4,141.3"/>
</g>
<image style="overflow:visible;enable-background:new    ;" width="2377" height="1832" id="Camada_3" xlink:href="D0195545.png"  transform="matrix(1.924213e-02 0 0 2.058868e-02 335.8907 397.6527)">
</image>
<g>
	<path class="st22" d="M125,129.7c0,0,0,0.1-0.1,0.1c0.5,0.3,0.9,0.5,1.2,0.7c0-0.1,0.1-0.1,0.1-0.2
		C125.9,130.2,125.5,129.9,125,129.7z"/>
	<path class="st22" d="M126.3,130.4c0,0.1-0.1,0.1-0.1,0.2c0.1,0.1,0.2,0.1,0.3,0.2c0-0.1,0.1-0.1,0.1-0.2
		C126.5,130.5,126.4,130.5,126.3,130.4z"/>
	<path class="st22" d="M126.7,130.9c0.1,0,0.1,0.1,0.2,0.1c0,0,0-0.1,0.1-0.1c0-0.1,0.1-0.1,0.1-0.1c-0.1,0-0.1-0.1-0.2-0.1
		L126.7,130.9z"/>
	<path class="st22" d="M107.1,127.4C107.1,127.4,107.1,127.3,107.1,127.4c0.1,0,0.2,0.1,0.3,0.2l0.6,0.3c0.6,0.4,1.3,0,1.7-0.4
		l0.7,0.4c0.3,0.6,0.8,0.7,1.2,0.7l15.5,8.6c0.9,0.5,1.6,0.2,2-0.2l0.8,0.4c0.3,0.1,0.6,0.1,0.8-0.1c0.2,0,0.3,0.1,0.3,0.1l1.3,0.7
		c0.2,0.1,0.5,0.1,0.7,0l0.5,0.3c0.2,0.1,0.4,0.1,0.6-0.1c0,0,0.2-0.1,0.3-0.3c0.1,0,0.2,0.1,0.3,0.1c0.4,0.2,0.9,0.5,1.5,0.8
		c0.3,0.2,0.6,0.3,1,0.5c0.3,0.2,0.7,0.4,1.1,0.6c0.8,0.4,1.6,0.9,2.4,1.3c0.8,0.4,1.6,0.9,2.4,1.3c0.4,0.2,0.8,0.4,1.1,0.6
		c0.4,0.2,0.7,0.4,1,0.5c0.6,0.3,1.2,0.5,1.5,0.7c0.4,0.2,0.6,0.2,0.6,0.2s-0.2-0.2-0.5-0.4s-0.8-0.6-1.4-0.9
		c-0.3-0.2-0.6-0.4-1-0.6c-0.3-0.2-0.7-0.4-1.1-0.6c-0.7-0.4-1.5-0.9-2.3-1.4s-1.6-0.9-2.4-1.4c-0.4-0.2-0.7-0.4-1.1-0.6
		c-0.3-0.2-0.7-0.4-1-0.5c-0.6-0.3-1.1-0.6-1.5-0.8c-0.1-0.1-0.2-0.1-0.3-0.1c0.1-0.2,0.1-0.4,0.1-0.4c0-0.2,0-0.4-0.2-0.5l-0.5-0.3
		c0-0.2-0.1-0.5-0.4-0.6l-1.3-0.7c0,0-0.2-0.1-0.3-0.2c0-0.3-0.1-0.6-0.4-0.7l-0.8-0.4c0.1-0.6,0-1.3-0.9-1.8l-15.5-8.6
		c-0.2-0.4-0.5-0.8-1.2-0.7l-0.7-0.4c0.1-0.6,0.1-1.3-0.6-1.7l-0.6-0.3c-0.1-0.1-0.2-0.1-0.3-0.1l0.1-0.1c0.9-1.6,0.6-3.4-0.7-4.1
		c-1.2-0.7-3,0-3.8,1.6c-0.7,1.2-0.6,2.6,0,3.5c-0.1,0-0.1,0-0.2,0L105,120c-0.4-0.7-1-0.8-1.4-0.8l-0.3-0.2c0.3-1.2-0.1-2.5-1.1-3
		c-1.2-0.7-3,0-3.8,1.6s-0.6,3.4,0.7,4.1c1,0.5,2.2,0.2,3.1-0.6l0.3,0.2c0.2,0.4,0.7,0.8,1.4,0.8l1.5,0.8c0,0.1,0.1,0.1,0.1,0.2
		c-1.1-0.1-2.3,0.6-3,1.8c-0.9,1.6-0.6,3.4,0.7,4.1C104.5,129.7,106.2,128.9,107.1,127.4z M108,124.6c-0.2-0.1-0.4-0.2-0.6-0.3
		c-0.3-0.2-0.2-0.6-0.2-0.6l0,0l1-1.7l0,0c0,0,0.3-0.3,0.6-0.2c0.1,0.1,0.4,0.2,0.6,0.3L108,124.6z M102.7,120l0.3-0.5l0.2,0.1
		l-0.5,1l-0.2-0.1L102.7,120z M103.1,120.9l0.6-1.1c0.2,0,0.7,0.1,1,0.5l-0.6,1.1C103.5,121.5,103.2,121.1,103.1,120.9z
		 M104.5,121.6l0.5-1l1.1,0.6l-0.5,1L104.5,121.6z M106.1,122.8c0-0.1-0.1-0.1-0.1-0.2l0.7-1.2c0.1,0,0.2,0,0.2,0
		c0.2,0,0.6,0.2,0.9,0.3l-0.9,1.6C106.6,123.2,106.2,122.9,106.1,122.8z M110,126.9l2.4-4.4l0.4,0.2l-2.4,4.4L110,126.9z
		 M110.9,127.5l2.5-4.5c0.5-0.1,0.7,0.3,0.8,0.5l-2.5,4.4C111.5,127.9,111.1,128,110.9,127.5z M120.7,129.7c0.6,0.3,1.1,0.7,1.6,0.9
		c0.5,0.3,0.9,0.5,1.1,0.7c0.3,0.2,0.4,0.3,0.4,0.3s-0.2-0.1-0.4-0.2c-0.3-0.1-0.7-0.4-1.2-0.6c-0.5-0.3-1.1-0.6-1.7-0.9
		c-0.6-0.3-1.2-0.7-1.9-1c-0.6-0.4-1.3-0.7-1.9-1.1c-0.6-0.3-1.1-0.7-1.6-0.9c-0.5-0.3-0.9-0.5-1.1-0.7c-0.3-0.2-0.4-0.3-0.4-0.3
		s0.2,0.1,0.4,0.2c0.3,0.1,0.7,0.4,1.2,0.6c0.5,0.3,1.1,0.6,1.7,0.9s1.2,0.7,1.9,1C119.5,129,120.1,129.4,120.7,129.7z M123.8,132.2
		c-0.1,0.1-0.1,0.2-0.2,0.4c0.4,0.2,0.8,0.5,1.2,0.7c0.1-0.2,0.3-0.5,0.4-0.7c0.2-0.3,0.3-0.6,0.5-0.9c0.1-0.2,0.2-0.5,0.3-0.7h0.1
		c-0.1,0.2-0.2,0.4-0.3,0.7c-0.1,0.3-0.3,0.6-0.5,1c-0.1,0.3-0.3,0.5-0.4,0.7c0.1,0,0.2,0.1,0.2,0.1c0.5-0.8,0.9-1.6,1.3-2.4
		c0.1,0,0.1,0.1,0.2,0.1l-1.3,2.4l0.1,0.1c0.1-0.2,0.3-0.5,0.4-0.8c0.3-0.5,0.6-1.1,0.9-1.5c0-0.1,0.1-0.1,0.1-0.2c0,0,0,0,0.1,0
		c0,0.1-0.1,0.1-0.1,0.2c-0.2,0.4-0.5,1-0.8,1.5c-0.1,0.3-0.3,0.5-0.4,0.8c0.3,0.2,0.6,0.4,0.9,0.5c0.4,0.2,0.6,0.3,0.6,0.3
		s-0.2-0.1-0.6-0.3s-0.9-0.5-1.5-0.8s-1.4-0.7-2.2-1.2c-0.8-0.4-1.6-0.9-2.5-1.4c-0.8-0.5-1.7-0.9-2.5-1.4c-0.8-0.4-1.5-0.9-2.1-1.2
		c-0.6-0.4-1.1-0.7-1.5-0.9c-0.4-0.2-0.6-0.3-0.6-0.3l-0.5-0.3l0.2-0.4L123.8,132.2z M127.3,134.7l1.4-2.5c-0.1,0.9-0.5,1.9-1.1,2.6
		L127.3,134.7z M130.8,134.1c0.3,0.1,0.6,0.3,0.7,0.4c0.2,0.1,0.2,0.3,0.1,0.4l-1.1,1.9c-0.1,0.1-0.2,0.2-0.4,0.1
		c-0.1-0.1-0.4-0.2-0.7-0.4L130.8,134.1z M133.4,136.1c0.2,0.1,0.2,0.3,0.2,0.4l-0.6,1.1c-0.1,0.1-0.2,0.1-0.4,0.1
		c-0.2-0.1-1.1-0.6-1.3-0.7c0,0-0.1-0.1-0.2-0.1l0.9-1.6c0.1,0.1,0.1,0.1,0.2,0.1C132.3,135.5,133.2,135.9,133.4,136.1z M134,137.5
		c-0.1,0.2-0.4,0.4-0.4,0.4l-0.3-0.2l0.5-1l0.3,0.2C134.2,136.9,134.2,137.2,134,137.5z M130.5,132.9c0.1,0.3,0.1,0.5,0,0.7
		l-1.6,2.9c-0.1,0.1-0.3,0.3-0.6,0.3c-0.3,0.1-0.6,0-0.9-0.1c-0.3-0.2-0.6-0.3-1-0.5c-0.7-0.4-1.6-0.9-2.5-1.4s-1.9-1.1-2.9-1.6
		c-1-0.6-2-1.1-2.9-1.6s-1.8-1-2.5-1.4s-1.3-0.8-1.8-1c-0.4-0.3-0.7-0.4-0.7-0.4c-0.4-0.2-0.8-0.4-1.1-0.6l0.1-0.2l10.5,5.9
		l-0.1,0.1c0.4,0.2,0.8,0.5,1.2,0.7c0,0,0.1-0.1,0.1-0.2h0.1c0,0.1-0.1,0.1-0.1,0.1c0.1,0.1,0.2,0.1,0.3,0.2c0-0.1,0.1-0.1,0.1-0.2
		l0.2,0.1l-0.1,0.2c0.1,0,0.1,0.1,0.2,0.1c0,0,0-0.1,0.1-0.2l0,0l0,0l0,0c0,0.1-0.1,0.1-0.1,0.1c0.6,0.4,1.3,0.7,1.8,1
		c0.1,0.1,0.2,0.1,0.4,0.2c0.7-0.4,1.3-1.1,1.7-1.8c0.4-0.8,0.7-1.6,0.7-2.4c-0.1-0.1-0.2-0.1-0.4-0.2c-0.5-0.3-1.2-0.6-1.8-1
		c0,0,0,0.1-0.1,0.2v0.1c0.7,0.5,0.9,0.6,0.9,0.6l-13.2-7.4c0,0,0.8,0.8,6.5,3.9c1.6,0.9,2.8,1.5,3.7,2c-0.2,0.4-0.4,0.8-0.6,1.2
		l-10.6-5.9l1-1.8c0.2,0.1,0.6,0.3,1.1,0.6c0,0,0.2,0.1,0.7,0.4c0.4,0.2,1.1,0.6,1.8,1c0.7,0.4,1.6,0.9,2.5,1.4s1.9,1.1,2.9,1.6
		c1,0.6,2,1.1,2.9,1.6s1.8,1,2.5,1.4c0.4,0.2,0.7,0.4,1,0.6C130.2,132.4,130.4,132.7,130.5,132.9z M111.8,120.9
		c0.6,0.3,0.4,1,0.3,1.3l-2.6,4.6c-0.2,0.3-0.7,0.8-1.3,0.4c-0.2-0.1-0.3-0.2-0.6-0.3c-0.2-0.1,0.3-1.2,0.6-1.9l1.7-3
		c0.4-0.7,1.1-1.6,1.3-1.5C111.5,120.7,111.6,120.7,111.8,120.9z M107.6,125.4c0-0.1,0-0.2,0-0.4l0.2,0.1
		C107.7,125.2,107.6,125.3,107.6,125.4z M109.7,121.5l-0.2-0.1c0.1,0,0.2-0.1,0.3-0.2C109.8,121.4,109.7,121.5,109.7,121.5z
		 M110.9,119.6c-0.7,1.3-2.1,1.8-3.1,1.3c-0.1,0-0.1-0.1-0.2-0.1c0,0,0,0,0-0.1c-0.1-0.1-0.2-0.2-0.2-0.4c-0.1-0.2-0.1-0.3-0.2-0.5
		c0-0.2,0-0.4,0-0.6s0.1-0.5,0.1-0.7c0.1-0.2,0.2-0.5,0.3-0.7c0.1-0.2,0.3-0.4,0.4-0.6c0.2-0.2,0.3-0.3,0.5-0.5
		c0.2-0.1,0.4-0.2,0.6-0.3c0.2-0.1,0.4-0.1,0.5-0.1c0.2,0,0.3,0,0.5,0h0.1c0.1,0,0.1,0.1,0.2,0.1
		C111.3,116.8,111.6,118.3,110.9,119.6z M107.2,117.6c0.5-0.8,1.2-1.4,2-1.5h-0.1c-0.2,0.1-0.4,0.2-0.6,0.3
		c-0.2,0.1-0.4,0.3-0.6,0.5C107.6,117.1,107.4,117.4,107.2,117.6c0,0.3-0.1,0.6-0.2,0.8c-0.1,0.3-0.1,0.5-0.1,0.8
		c0,0.2,0,0.5,0.1,0.7v0.1C106.7,119.3,106.7,118.4,107.2,117.6z M98.9,117.9c0.5-0.9,1.3-1.4,2.1-1.5c-0.1,0-0.2,0-0.3,0.1
		c-0.2,0.1-0.4,0.2-0.6,0.3c-0.2,0.1-0.4,0.3-0.6,0.5S99.1,117.8,98.9,117.9c0,0.4-0.1,0.6-0.2,0.9c-0.1,0.3-0.1,0.5-0.1,0.8
		c0,0.2,0,0.5,0.1,0.7c0,0.1,0.1,0.2,0.1,0.3C98.4,119.8,98.4,118.8,98.9,117.9z M99.5,121.2c-0.1,0-0.1-0.1-0.2-0.1c0,0,0,0,0-0.1
		c-0.1-0.1-0.2-0.2-0.2-0.4c-0.1-0.2-0.1-0.3-0.2-0.5c0-0.2,0-0.4,0-0.6s0.1-0.5,0.1-0.7c0.1-0.2,0.2-0.5,0.3-0.7
		c0.1-0.2,0.3-0.4,0.4-0.6c0.2-0.2,0.3-0.3,0.5-0.5c0.2-0.1,0.4-0.2,0.6-0.3c0.2-0.1,0.4-0.1,0.5-0.1c0.2,0,0.3,0,0.5,0h0.1
		c0.1,0,0.1,0,0.2,0.1c0.8,0.4,1.1,1.4,0.9,2.3c-0.2,0-0.3,0.2-0.4,0.3l-0.3,0.5l-0.3,0.5c-0.1,0.2-0.1,0.4-0.1,0.5
		C101.2,121.4,100.2,121.6,99.5,121.2z M103,125.1c0.5-0.8,1.2-1.4,2-1.5h-0.1c-0.2,0.1-0.4,0.2-0.6,0.3c-0.2,0.1-0.4,0.3-0.6,0.5
		C103.4,124.7,103.2,124.9,103,125.1c0,0.3-0.1,0.6-0.2,0.8c-0.1,0.3-0.1,0.5-0.1,0.8c0,0.2,0,0.5,0.1,0.7v0.1
		C102.5,126.9,102.5,125.9,103,125.1z M103.4,128.3C103.4,128.3,103.3,128.3,103.4,128.3c-0.1-0.2-0.2-0.3-0.3-0.5
		c-0.1-0.2-0.1-0.3-0.2-0.5c0-0.2,0-0.4,0-0.6s0.1-0.5,0.1-0.7c0.1-0.2,0.2-0.5,0.3-0.7c0.1-0.2,0.3-0.4,0.4-0.6
		c0.2-0.2,0.3-0.3,0.5-0.5c0.2-0.1,0.4-0.2,0.6-0.3c0.2-0.1,0.4-0.1,0.5-0.1c0.2,0,0.3,0,0.5,0c0,0,0,0,0.1,0s0.1,0.1,0.2,0.1
		c1,0.6,1.2,2,0.5,3.3s-2.1,1.8-3.1,1.3C103.5,128.4,103.4,128.4,103.4,128.3z"/>
	<path class="st22" d="M127,136.3c0,0,0.1,0,0.4,0.2c0.4,0.2,1.2,0.3,1.4-0.2c0.2-0.4,0.8-1.4,0.8-1.4s-0.3-0.4-1-0.5
		C128.6,134.4,128.1,135.5,127,136.3z"/>
	<path class="st22" d="M130.5,136.6c0.1-0.1,0.4-0.7,0.4-0.7c-0.5-0.3-0.8-0.6-0.8-0.6l-0.6,1.1c0,0,0.6,0.3,0.7,0.4
		C130.3,136.9,130.5,136.7,130.5,136.6z"/>
	<path class="st22" d="M131.2,136.8c0,0,1.2,0.6,1.4,0.8c0.2,0.1,0.3,0,0.4,0c0-0.1,0.4-0.6,0.4-0.6c-0.9-0.5-1.8-0.6-1.8-0.6
		L131.2,136.8z"/>
	<path class="st22" d="M133.5,137.7l0.2,0.1c0.2-0.1,0.3-0.3,0.3-0.3c-0.1-0.2-0.2-0.3-0.2-0.3L133.5,137.7z"/>
	<path class="st22" d="M111,127.4c0,0,0.1,0.2,0.3,0.3c0.2,0.1,0.4,0.1,0.4,0.1l1.2-2.1l-0.3-0.2l-0.3-0.2L111,127.4z"/>
	
		<rect x="109.8" y="125.8" transform="matrix(0.4867 -0.8736 0.8736 0.4867 -53.1151 161.5716)" class="st22" width="2.3" height="0.3"/>
	<path class="st22" d="M107.5,124.2c0.1,0.1,0.5,0.3,0.5,0.3l0.6-1.2l-0.8-0.4c0,0-0.3,0.5-0.4,0.8
		C107.2,123.9,107.4,124.1,107.5,124.2z"/>
	<path class="st22" d="M106.8,123.2l0.4-0.7l-0.8-0.5l-0.3,0.5C106.1,122.6,106.3,122.9,106.8,123.2z"/>
	
		<rect x="105" y="121.1" transform="matrix(0.4867 -0.8736 0.8736 0.4867 -52.2519 154.3696)" class="st22" width="0.4" height="1.1"/>
	<path class="st22" d="M103.2,120.9c0,0,0.3,0.4,0.8,0.4l0.3-0.5l-0.8-0.4L103.2,120.9z"/>
	
		<rect x="102.5" y="120.1" transform="matrix(0.4867 -0.8736 0.8736 0.4867 -52.2873 151.4819)" class="st22" width="0.5" height="0.2"/>
	<path class="st22" d="M109.8,123.7c-0.3-0.3-0.5-0.3-0.5-0.3c-0.9,1.7-1.4,2.4-1.6,3.4c0,0,0.4,0.2,0.6,0.3c0.3,0.1,0.8,0,1.1-0.4
		c0.2-0.4,1.3-2.3,1.3-2.3s-0.3-0.1-0.6-0.4c0,0,0,0.1-0.1,0.1c-0.7,1.2-1,1.9-1.3,2.3c-0.2,0.4-0.3,0.5-0.3,0.5s0.7-1.5,1.5-2.9
		s1.7-2.8,1.7-2.8s-0.1,0.1-0.4,0.4C110.9,122,110.5,122.6,109.8,123.7z"/>
</g>
<path class="st22" d="M106.2,214.3c1.3-0.6,3.1-1.4,5.5-3.6c3.7-3.3,6-6.3,6-6.3l0.7-1l-1.6-0.5c-0.2-0.1-5.9-1.7-10.2,2.1
	c-2.5,2.3-3.5,3.3-4.3,4.2c-0.5,0.6-0.9,1-1.7,1.7l-1.9,1.7c-0.7,0.6-1,0.7-1.5,0.9c-0.2,0.1-0.5,0.1-0.8,0.3
	c-1,0.4-2.2,1.4-5.2,4.1c-5.4,4.8-6.9,6.7-8.2,8.2c-0.8,1-1.4,1.8-2.9,3.1c-2.6,2.3-4.5,3.4-5.9,4.2c-0.7,0.4-1.1,0.7-1.4,0.9
	c-0.4,0.4-0.9,0.8-0.8,1.6c0.1,0.9,0.9,2,1.7,2.8c2.2,2.4,3.2,2.3,4.3,1.4c0.3-0.3,0.6-0.7,1.1-1.3c0.9-1.2,2.3-3.1,4.8-5.3
	c1.5-1.3,2.3-1.9,3.4-2.6c1.6-1.1,3.7-2.4,9.1-7.2c3-2.7,4.1-3.8,4.7-4.7c0.2-0.3,0.3-0.6,0.4-0.8c0.2-0.4,0.3-0.7,1-1.3l1.9-1.7
	C104.9,214.9,105.4,214.6,106.2,214.3z M76.7,240.3c0.1,0,0.2-0.1,0.3-0.2c0.2-0.2,0.3-0.4,0.4-0.6c-0.2,0.1-0.5,0.2-0.7,0.2
	c-0.1,0-0.3,0-0.4,0c0.2,0,0.4-0.1,0.6-0.2c0.3-0.2,0.6-0.5,0.8-0.8l0.7-1c1-1.3,2.1-2.6,3.2-3.7c1.2-1.1,2.4-2.2,3.7-3.2
	c0.7-0.5,1.4-0.9,2.1-1.4s1.4-0.9,2-1.4c2.6-2,5.1-4.1,7.5-6.3c0.6-0.5,1.2-1.1,1.8-1.7c0.6-0.6,1.2-1.1,1.6-1.9
	c0.2-0.4,0.3-0.8,0.6-1.1c0.2-0.3,0.5-0.6,0.8-0.9l1.5-1.3c-0.8,0.2-2,0.6-3.5,1.3c0.2,0.2,0.3,0.4,0.4,0.6c0.1,0.3,0.2,0.5,0.2,0.7
	s0,0.3,0,0.3c0,0.1,0,0.1,0,0.1c-0.2-0.7-0.6-1.3-1.1-1.9c-0.5-0.6-1.1-1-1.8-1.3c0,0,0,0,0.1,0.1c0,0.1,0.1,0.1,0.2,0.3
	c0.2,0.2,0.6,0.5,1.2,1.2c0.1,0.1,0.2,0.2,0.2,0.3c-2.2,1.1-4.9,2.9-7.9,5.8c-3.5,3.4-7,5.6-9.2,6.9c-0.8,0.8-1.7,1.6-2.6,2.4
	c-1.3,1-2.6,2-4.1,2.8l-1.1,0.6c-0.4,0.2-0.7,0.4-0.9,0.7c-0.1,0.2-0.3,0.3-0.3,0.6c0-0.1,0-0.3,0.1-0.4c0.1-0.2,0.2-0.4,0.3-0.7
	c-0.2,0.1-0.5,0.2-0.7,0.4c-0.1,0.1-0.2,0.2-0.2,0.3l0,0c0.1-0.2,0.2-0.4,0.4-0.6c0.3-0.3,0.6-0.6,1-0.8l1.1-0.6
	c1.4-0.8,2.8-1.7,4.1-2.8c1.3-1,2.5-2.1,3.6-3.3c0.5-0.6,1.1-1.3,1.6-1.9c0.5-0.6,1.1-1.2,1.7-1.8c1.1-1.2,2.3-2.3,3.5-3.4
	c1.2-1.1,2.4-2.2,3.7-3.3c0.6-0.5,1.3-1.1,1.9-1.6c0.7-0.5,1.3-1,2.1-1.3c0.4-0.2,0.9-0.2,1.2-0.4c0.4-0.2,0.7-0.4,1-0.7l1.9-1.6
	c1.1-1,1.9-2.2,2.9-3.3c0.5-0.5,1-1.1,1.6-1.6l0.8-0.8c0.3-0.3,0.5-0.5,0.8-0.7l0.4-0.4c0.2-0.1,0.3-0.2,0.5-0.3s0.3-0.2,0.5-0.3
	l0.5-0.3l0.3-0.1l0.3-0.1l0.5-0.2l0.6-0.2l0.3-0.1l0.3-0.1c0.8-0.2,1.6-0.3,2.5-0.3s1.8,0.1,2.8,0.4l0.6,0.1l-0.3,0.3
	c-0.9,1.1-1.9,2.2-2.8,3.2c-1,1-2,2-3.1,2.9s-2.2,1.8-3.5,2.5c-0.6,0.3-1.3,0.6-2,0.9c-0.7,0.3-1.4,0.5-1.9,1l-1.8,1.7
	c-0.3,0.3-0.6,0.6-0.8,0.9c-0.2,0.3-0.3,0.8-0.6,1.2c-0.4,0.8-1,1.3-1.5,1.9c-0.6,0.6-1.2,1.2-1.8,1.7c-1.2,1.1-2.4,2.2-3.6,3.3
	s-2.5,2.1-3.8,3.1c-0.7,0.5-1.3,1-2,1.5s-1.4,0.9-2.1,1.4c-1.3,0.9-2.5,2-3.7,3.2s-2.2,2.4-3.2,3.7l-0.7,1c-0.2,0.3-0.5,0.6-0.9,0.9
	C77.2,240.1,77,240.2,76.7,240.3L76.7,240.3z"/>
<g>
	<path class="st22" d="M214.5,72.4c-0.9,0-1.7,0.1-2.4,0.1c-0.6,0-1,0.1-1.4,0.1c-1,0-1.2-0.2-1.4-0.6c-0.6-1.5-4.9-21-5.2-23.1
		c-0.3-1.8-0.2-5.2-0.2-8c0-0.8,0-1.6,0-2.2c0-2.7-0.5-4.2-0.5-4.3c-0.1-0.2-0.3-0.3-0.5-0.3h-0.5c-0.2,0-0.3,0.1-0.4,0.1l-0.1,0.1
		c0,0,0-0.1-0.1-0.1c-0.1-0.1-0.3-0.1-0.4-0.1h-0.5c-0.2,0-0.5,0.1-0.5,0.3c0,0.1-0.5,1.6-0.5,4.3c0,0.6,0,1.4,0,2.2
		c0,2.8,0.1,6.2-0.2,8c-0.3,2.2-4.7,21.6-5.2,23.1c-0.1,0.4-0.4,0.6-1.4,0.6c-0.4,0-0.9,0-1.4-0.1c-0.7-0.1-1.5-0.1-2.4-0.1
		c-3.3,0-6.6,2.1-6.6,6.1c0,4.1,2.9,5.6,5.6,5.6c3.1,0,5.4-1.7,6-4.4c0.4-1.5,1-4.4,2-4.4h3.8c0.3,0,0.5-0.2,0.5-0.4l0.2-1.1
		c0-0.1,0-0.2-0.1-0.3c-0.1-0.1-0.2-0.1-0.4-0.1c-1.7-0.1-3.5-0.3-3.9-0.5c0-1.4,3.1-12.2,5.5-20.4c2.4,8.1,5.4,19,5.5,20.4
		c-0.4,0.2-2.2,0.5-3.9,0.5c-0.1,0-0.3,0.1-0.4,0.1c-0.1,0.1-0.1,0.2-0.1,0.3l0.2,1.1c0,0.2,0.3,0.4,0.5,0.4h3.8c1,0,1.7,2.9,2,4.4
		c0.6,2.8,2.9,4.4,6,4.4c2.7,0,5.6-1.5,5.6-5.6C221.1,74.5,217.8,72.4,214.5,72.4z M202.9,34.5c0,0,0.5,1.5,0.5,4.2
		c0,0.8,0,1.7,0,2.8c0-0.1,0-0.1,0-0.2c0-1.2-0.1-2.5-0.1-2.5s-0.1,1.2-0.2,2.4c-0.1,0.6-0.1,1.2-0.1,1.7c0,0.1,0,0.2,0,0.3
		l-0.8-0.7c0.2-0.7,0.6-2.1,0.6-4c0-2.8-0.3-4.1-0.3-4.1L202.9,34.5L202.9,34.5z M201.9,34.8c0.1,0.4,0.3,1.7,0.3,3.8
		c0,1.1-0.1,2-0.3,2.7c-0.1-0.7-0.3-1.6-0.3-2.7C201.6,36.4,201.8,35.2,201.9,34.8z M200,49.8l0.7,0.6l-3.9,14.2
		C198.1,59.1,199.5,52.4,200,49.8z M199.6,74.8c-0.3,0-0.7,0-1.2,0s-1.1,0-1.8,0c-0.2,0-0.3,0-0.5,0c-0.1,0-0.3,0.1-0.4,0.1
		c-0.2,0.1-0.4,0.4-0.6,0.6c-0.2,0.2-0.3,0.5-0.4,0.7c-0.1,0.2-0.2,0.5-0.3,0.7c-0.2,0.5-0.3,0.9-0.4,1.3c-0.2,0.8-0.4,1.3-0.4,1.3
		s0-0.1,0.1-0.4c0-0.2,0.1-0.5,0.2-0.9c0.1-0.4,0.2-0.8,0.3-1.3c0.1-0.2,0.2-0.5,0.3-0.7s0.2-0.5,0.4-0.7s0.4-0.5,0.7-0.6
		c0.1-0.1,0.3-0.1,0.5-0.2c0.2,0,0.3,0,0.5,0c0.6,0,1.2,0,1.8,0C198.9,74.8,199.3,74.8,199.6,74.8s0.5,0,0.5,0
		S199.9,74.8,199.6,74.8z M185.1,82.8c-0.1-0.1-0.2-0.1-0.3-0.2l-0.1-0.1l-0.1-0.1c-0.1-0.1-0.1-0.1-0.2-0.2
		c-0.1-0.1-0.1-0.2-0.2-0.2c-0.1-0.1-0.1-0.1-0.2-0.2c-0.1-0.2-0.2-0.3-0.3-0.5s-0.1-0.3-0.2-0.5c0-0.2-0.1-0.3-0.1-0.4
		s-0.1-0.3-0.1-0.4s0-0.1,0-0.2s0-0.1,0-0.2c0-0.2-0.1-0.4-0.1-0.6c0-0.3,0-0.5,0-0.5s0-0.2,0-0.6c0-0.1,0-0.2,0-0.3
		c0-0.1,0-0.2,0-0.3c0-0.1,0-0.3,0.1-0.4c0-0.1,0-0.1,0-0.2s0-0.1,0.1-0.2s0.1-0.3,0.2-0.5c0.1-0.2,0.2-0.3,0.2-0.5
		c0.1-0.2,0.2-0.3,0.3-0.5s0.3-0.3,0.4-0.5c0.3-0.3,0.6-0.6,1.1-0.9c0.4-0.3,0.9-0.5,1.4-0.7c0.3-0.1,0.5-0.2,0.8-0.2
		c0.3-0.1,0.5-0.1,0.8-0.1c0.1,0,0.3,0,0.4,0h0.2l0,0l0,0l0,0h0.1c0.3,0,0.5,0,0.8,0c1,0,1.9,0.2,2.7,0.2c0.4,0,0.8,0,1.1,0
		c0.3-0.1,0.5-0.2,0.7-0.3c0.2-0.1,0.2-0.3,0.3-0.3c0-0.1,0.1-0.1,0.1-0.1s0,0-0.1,0.1c0,0.1-0.1,0.2-0.3,0.4
		c-0.1,0.1-0.4,0.3-0.7,0.4s-0.7,0.1-1.1,0.1c-0.4,0-0.8,0-1.2,0c0.2,0.5,0.4,1.3,0.6,2.3c0.1,0.2,0.2,0.3,0.2,0.5
		c0.1,0.3,0.2,0.5,0.2,0.7s0.1,0.4,0.1,0.6s0,0.3,0,0.4s0,0.1,0,0.1s0,0,0-0.1s0-0.2-0.1-0.4c-0.1-0.3-0.2-0.7-0.4-1.2
		c-0.1-0.2-0.3-0.5-0.5-0.7s-0.5-0.5-0.8-0.7c-0.2-0.1-0.4-0.2-0.6-0.3c-0.3-0.1-0.6-0.2-1-0.2c-0.2,0-0.3,0-0.5,0
		c-2.2,0-4.2,1.7-4.6,4c0,0,0,0,0,0.1s0,0.2,0,0.4c0,0.2,0,0.4,0,0.6c0,0.1,0,0.2,0,0.4c0,0.1,0,0.3,0.1,0.4c0,0.1,0.1,0.3,0.1,0.4
		s0.1,0.1,0.1,0.2s0.1,0.1,0.1,0.2c0.1,0.2,0.2,0.3,0.3,0.4s0.1,0.1,0.2,0.2l0.1,0.1l0.1,0.1c0.3,0.3,0.6,0.5,1,0.7l0.1,0.1
		c0.1,0,0.1,0,0.2,0.1c0.1,0,0.2,0.1,0.3,0.1s0.2,0.1,0.3,0.1l0.4,0.1c0.5,0.1,1,0,1.4-0.1s0.9-0.3,1.2-0.5l0.1-0.1l0.1-0.1
		c0.1-0.1,0.2-0.1,0.2-0.2c0.1-0.1,0.3-0.2,0.4-0.4c0.1-0.1,0.1-0.1,0.2-0.2c0.1-0.1,0.1-0.1,0.2-0.2c0.1-0.1,0.2-0.3,0.3-0.4
		s0.2-0.2,0.2-0.4c0.1-0.1,0.1-0.2,0.2-0.3c0.1-0.2,0.2-0.4,0.3-0.6s0.1-0.3,0.1-0.4s0-0.1,0-0.1s0,0,0,0.1s0,0.2-0.1,0.4
		c-0.1,0.2-0.1,0.4-0.2,0.6c0,0.1-0.1,0.2-0.2,0.4c-0.1,0.1-0.1,0.3-0.2,0.4c-0.1,0.1-0.2,0.3-0.3,0.4s-0.1,0.1-0.2,0.2
		c-0.1,0.1-0.1,0.1-0.2,0.2c-0.1,0.1-0.3,0.3-0.4,0.4c-0.1,0.1-0.2,0.1-0.3,0.2l-0.1,0.1l-0.1,0.1c-0.4,0.2-0.8,0.4-1.3,0.6
		c-0.5,0.1-1,0.2-1.6,0.1l-0.4-0.1c-0.1,0-0.3-0.1-0.4-0.1c-0.1,0-0.2-0.1-0.4-0.1c-0.1,0-0.1,0-0.2-0.1l-0.2-0.1
		c-0.4-0.2-0.8-0.5-1-0.8l-0.1-0.1l-0.1-0.1c-0.1-0.1-0.1-0.2-0.2-0.2l-0.1-0.1c0.2,0.7,0.5,1.5,1.1,2.1c0.3,0.1,0.6,0.2,0.9,0.3
		c0.5,0.1,1,0.2,1.4,0.2c0.5,0,1,0,1.4-0.1s0.9-0.2,1.2-0.4c0.4-0.2,0.7-0.4,1-0.6c0.1-0.1,0.1-0.1,0.2-0.1c0.1-0.1,0.1-0.1,0.2-0.2
		c0.1-0.1,0.2-0.2,0.3-0.3c0.2-0.2,0.3-0.4,0.4-0.5c0.1-0.1,0.2-0.3,0.2-0.3c0.1-0.1,0.1-0.1,0.1-0.1s0,0-0.1,0.1
		c0,0.1-0.1,0.2-0.2,0.4c-0.1,0.2-0.2,0.3-0.4,0.5c-0.1,0.1-0.2,0.2-0.3,0.3c-0.1,0.1-0.1,0.1-0.2,0.2c-0.1,0.1-0.1,0.1-0.2,0.2
		c-0.3,0.2-0.6,0.4-1,0.6s-0.8,0.3-1.3,0.4s-1,0.1-1.5,0.1s-1-0.1-1.5-0.2s-0.9-0.3-1.3-0.6C185.3,83,185.2,82.9,185.1,82.8z
		 M187.8,82.4c-1-0.1-1.8-0.6-2.3-1.4c-0.6-0.9-0.8-1.9-0.6-3c0.4-2,2.2-3.6,4.1-3.6c0.1,0,0.3,0,0.4,0c1,0.1,1.8,0.6,2.3,1.4
		c0.6,0.9,0.8,1.9,0.6,3c-0.4,2-2.2,3.6-4.1,3.6C188.1,82.4,187.9,82.4,187.8,82.4z M215.2,83.8c-0.1,0-0.2,0-0.3,0
		c-0.2,0-0.4,0-0.6-0.1c-0.1,0-0.2,0-0.3-0.1c-0.1,0-0.2,0-0.3-0.1c-0.8-0.2-1.4-0.5-1.9-0.9s-0.8-0.8-1.1-1.2
		c-0.1-0.1-0.1-0.2-0.2-0.3c0-0.1-0.1-0.2-0.1-0.3c-0.1-0.2-0.2-0.3-0.2-0.5c0-0.1-0.1-0.3-0.1-0.4s0-0.2-0.1-0.3
		c0-0.2-0.1-0.2-0.1-0.2c-0.6-2.7-1.2-4.8-2.6-4.8c-1.4,0-3.8,0-3.8,0l-0.2-1.1c0,0,3.9-0.2,4.4-0.8c0.5-0.6-6-22.4-6-22.4
		s-0.4,1.6-1.1,4c-0.7,2.4-1.6,5.6-2.5,8.9c-0.5,1.6-0.9,3.2-1.3,4.7c-0.2,0.8-0.4,1.5-0.6,2.2c-0.2,0.7-0.3,1.4-0.4,2
		c0,0.2-0.1,0.3-0.1,0.4v0.1l0,0l0,0l0,0l0,0c0,0.1,0.1,0.1,0.2,0.1c0.3,0.1,0.7,0.2,1,0.3c0.6,0.1,1.2,0.2,1.7,0.2
		c0.9,0.1,1.5,0.1,1.5,0.1s-0.1,0-0.4,0c-0.3,0-0.6,0-1.1-0.1c-0.5,0-1-0.1-1.7-0.2c-0.3-0.1-0.7-0.1-1-0.3c-0.1,0-0.2-0.1-0.2-0.2
		l0,0l0,0l0,0l0,0v-0.1v-0.1c0-0.2,0-0.3,0.1-0.5c0.1-0.6,0.2-1.3,0.4-2s0.3-1.4,0.5-2.2c0.4-1.5,0.8-3.1,1.3-4.7
		c0.5-1.6,0.9-3.2,1.3-4.7c0.4-1.5,0.9-2.9,1.2-4.1c0.4-1.2,0.7-2.2,0.9-2.9s0.3-1.1,0.3-1.1l-1.8-1.1c0-0.2,0.1-0.4,0.1-0.5
		c0.3-2.3,0.2-7.5,0.2-10.2s0.5-4.2,0.5-4.2h0.5c0,0-0.3,1.2-0.3,4.1c0,2.2,0.5,3.7,0.7,4.3c0,0.1,0.1,0.1,0.2,0.2
		c0.1,0.1,0.1,0.1,0.2,0.2c0.2,0.1,0.3,0.3,0.5,0.4c0.2,0.1,0.3,0.2,0.4,0.3c0.1,0.1,0.2,0.2,0.3,0.2c0.1,0.1,0.1,0.1,0.1,0.1
		s-0.2-0.1-0.5-0.3s-0.6-0.4-0.9-0.7c-0.1,0-0.1-0.1-0.1-0.1c0,0.5,0,2.8,0,4.3c0,1.6,3.7,13.4,5.1,20.1c1.4,6.5,3.7,13.5,6.4,15.7
		c0.1,0,0.2,0.1,0.3,0.1s0.2,0,0.3,0.1c0.1,0,0.2,0,0.3,0c0.2,0,0.4,0,0.6,0.1c0.1,0,0.2,0,0.3,0s0.2,0,0.3,0s0.2,0,0.3,0h0.2h0.1
		c0.1,0,0.2,0,0.3,0s0.2,0,0.3-0.1h0.2h0.1c0.1,0,0.2-0.1,0.3-0.1l0.3-0.1l0.1-0.1l0.1-0.1l0.3-0.1l0.2-0.2c0.7-0.4,1.1-1,1.4-1.6
		c0.3-0.6,0.5-1.3,0.5-1.9c0-0.2,0-0.3,0-0.5c0-0.1,0-0.2,0-0.2c0-0.1,0-0.2,0-0.2c0-0.2,0-0.3,0-0.5s0-0.3-0.1-0.5
		c-0.1-0.6-0.3-1.2-0.7-1.7c-0.3-0.5-0.7-0.9-1.1-1.3c0.6,1.1,1.5,3.3,0.9,5.3c0,0.1,0,0.2,0,0.3c0,0.1-0.1,0.3-0.1,0.4
		s-0.1,0.2-0.1,0.2c0,0.1-0.1,0.2-0.1,0.2c-0.1,0.2-0.2,0.3-0.3,0.5c0,0.1-0.1,0.2-0.2,0.2l-0.1,0.1l-0.1,0.1
		c-0.3,0.3-0.6,0.6-1,0.8c-0.4,0.2-0.9,0.4-1.4,0.4h-0.4c-0.1,0-0.3,0-0.4,0c-0.1,0-0.3,0-0.4,0c-0.1,0-0.1,0-0.2,0h-0.2
		c-0.5-0.1-0.9-0.3-1.3-0.5l-0.1-0.1L213,82c-0.1-0.1-0.2-0.1-0.3-0.2s-0.3-0.3-0.4-0.4c-0.1-0.1-0.1-0.1-0.2-0.2
		c-0.1-0.1-0.1-0.1-0.2-0.2c-0.1-0.1-0.2-0.3-0.3-0.4s-0.2-0.3-0.2-0.4c-0.1-0.1-0.1-0.2-0.2-0.4c-0.1-0.2-0.2-0.4-0.2-0.6
		s-0.1-0.3-0.1-0.4s0-0.1,0-0.1s0,0,0,0.1s0.1,0.2,0.1,0.4c0.1,0.2,0.1,0.4,0.2,0.6c0.1,0.1,0.1,0.2,0.2,0.3
		c0.1,0.1,0.1,0.2,0.2,0.4c0.1,0.1,0.2,0.3,0.3,0.4s0.1,0.1,0.2,0.2c0.1,0.1,0.1,0.1,0.2,0.2c0.1,0.1,0.3,0.2,0.4,0.4
		c0.1,0.1,0.2,0.1,0.2,0.2L213,82l0.1,0.1c0.4,0.2,0.8,0.4,1.2,0.5h0.2c0.1,0,0.1,0,0.2,0c0.1,0,0.2,0,0.4,0c0.1,0,0.2,0,0.4,0h0.4
		c0.5-0.1,0.9-0.2,1.3-0.4c0.4-0.2,0.7-0.5,1-0.8l0.1-0.1l0.1-0.1c0.1-0.1,0.1-0.1,0.2-0.2c0.1-0.2,0.2-0.3,0.3-0.5
		c0-0.1,0.1-0.2,0.1-0.2c0-0.1,0.1-0.2,0.1-0.2c0.1-0.1,0.1-0.3,0.1-0.4s0.1-0.3,0.1-0.4s0-0.3,0-0.4c0-0.2,0-0.4,0-0.6s0-0.3,0-0.4
		s0-0.1,0-0.1c-0.5-2.3-2.5-4-4.6-4c-0.2,0-0.3,0-0.5,0c-1.1,0.1-2,0.7-2.6,1.4c0-0.7-1.4-1.5-2.1-2.4c-0.1,0-0.2-0.1-0.2-0.1
		c-0.2-0.1-0.3-0.2-0.4-0.4c-0.1-0.1-0.2-0.3-0.2-0.5c-0.1-0.2-0.1-0.3-0.2-0.5c-0.1-0.4-0.2-0.7-0.3-1.1c-0.2-0.7-0.4-1.5-0.6-2.4
		c-0.4-1.6-0.8-3.4-1.2-5.1c-0.4-1.7-0.8-3.5-1.1-5.1c-0.4-1.6-0.7-3.2-0.9-4.5c-0.3-1.3-0.5-2.4-0.6-3.2c-0.1-0.4-0.1-0.7-0.2-0.9
		c0-0.2-0.1-0.3-0.1-0.3s0,0.1,0.1,0.3c0,0.2,0.1,0.5,0.2,0.9c0.2,0.8,0.4,1.9,0.7,3.2c0.6,2.6,1.4,6.1,2.2,9.6
		c0.4,1.7,0.8,3.5,1.2,5.1c0.2,0.8,0.4,1.6,0.6,2.4c0.1,0.4,0.2,0.7,0.3,1.1c0,0.2,0.1,0.3,0.1,0.5s0.1,0.3,0.2,0.5
		c0.1,0.1,0.2,0.3,0.4,0.3c0.2,0.1,0.4,0.1,0.5,0.2c0.4,0.1,0.8,0.1,1.1,0c0.7,0,1.3-0.1,1.8-0.1s0.9,0,1.2,0s0.4,0,0.4,0
		s0.1,0,0.3,0s0.5,0,0.9,0.1c0.1,0,0.2,0,0.3,0.1c0.1,0,0.1,0,0.2,0c0.1,0,0.1,0,0.2,0c0.1,0,0.2,0.1,0.4,0.1c0.1,0,0.2,0.1,0.4,0.1
		c0.1,0,0.1,0,0.2,0.1c0.1,0,0.1,0.1,0.2,0.1c0.1,0.1,0.3,0.1,0.4,0.2c0.1,0.1,0.2,0.1,0.4,0.2c0.1,0.1,0.2,0.2,0.4,0.3
		c0.5,0.4,0.9,0.8,1.3,1.4c0.3,0.5,0.6,1.1,0.7,1.8c0,0.2,0.1,0.3,0.1,0.5s0,0.3,0,0.5c0,0.1,0,0.2,0,0.2c0,0.1,0,0.2,0,0.3
		c0,0.2,0,0.3,0,0.5c-0.1,0.7-0.2,1.4-0.5,2s-0.8,1.3-1.5,1.7l-0.3,0.2l-0.3,0.1l-0.1,0.1l-0.2,0.1l-0.3,0.1c-0.1,0-0.2,0.1-0.3,0.1
		h-0.2H217c-0.1,0-0.2,0-0.3,0.1c-0.1,0-0.2,0-0.3,0h-0.2H216c-0.1,0-0.2,0-0.3,0C215.4,83.8,215.3,83.8,215.2,83.8z M216,82.4
		c-0.1,0-0.3,0-0.4,0c-1.9,0-3.7-1.6-4.1-3.6c-0.2-1.1,0-2.2,0.6-3c0.5-0.8,1.4-1.3,2.3-1.4c0.1,0,0.3,0,0.4,0
		c1.9,0,3.7,1.6,4.1,3.6C219.3,80.1,218,82.1,216,82.4z"/>
	<path class="st22" d="M214.5,72.8c0,0-0.1,0-0.2,0C214.4,72.8,214.4,72.8,214.5,72.8z"/>
	<path class="st22" d="M207,74.6c-0.4,0-0.8,0-1.3,0s-1,0-1.3,0c-0.2,0-0.3,0-0.4,0c-0.1,0-0.2,0-0.2,0s0.1,0,0.2,0
		c0.1,0,0.3,0,0.4,0c0.4,0,0.8,0,1.3,0C206.2,74.7,206.7,74.7,207,74.6c0.2,0.1,0.3,0.1,0.4,0.1c0.1,0,0.2,0,0.2,0s-0.1,0-0.2,0
		C207.4,74.6,207.2,74.6,207,74.6z"/>
	<path class="st22" d="M200.8,43.4c0-0.2,0-0.3,0-0.3S200.7,43.3,200.8,43.4c-0.1,0.2-0.1,0.4-0.1,0.7c0,0.6-0.1,1.3,0,2.1
		c0,0.2,0,0.4,0,0.6c0,0.2,0,0.4,0,0.5c0,0.4,0,0.7-0.1,1c0,0.6-0.1,0.9-0.1,0.9s0-0.1,0.1-0.3c0-0.2,0.1-0.4,0.1-0.7s0.1-0.6,0.1-1
		c0-0.2,0-0.4,0-0.6c0-0.2,0-0.4,0-0.6c0-0.8,0-1.5,0-2.1C200.8,43.8,200.8,43.6,200.8,43.4z"/>
</g>
<g>
	<path class="st22" d="M309.7,79.2L309.7,79.2L309.7,79.2z"/>
	<path class="st22" d="M306.5,76.6l0.1-0.1C306.6,76.5,306.6,76.5,306.5,76.6z"/>
	<path class="st22" d="M310,78.9c0,0.1-0.1,0.1-0.2,0.2C309.9,79,309.9,79,310,78.9z"/>
	<path class="st22" d="M332.3,46c0.4-1.5,0.6-3.1-0.9-4c-0.5-0.3-0.9-0.4-1.4-0.4c-1.7,0-3,2.2-5,5.7c-0.9,1.6-1.9,3.3-2.8,4.2
		c-2.9,3-5.9,7.8-8.2,11.7c-3.2,5.4-7.3,11.8-8.2,12.7c-0.7,0.7-5.3,2.1-8.1,2.9c-0.4,0.1-0.5,0.5-0.2,0.9c0.1,0.2,0.3,0.3,0.4,0.4
		c0.3,0.2,0.5,0.2,0.8,0.2c0.3-0.1,8.1-1.3,10-2.5c0.4-0.3,1.1-1,2-2c-0.7,1.2-1.3,2.2-1.5,2.6c-1,1.3-6,3-7.9,3.6
		c-0.4,0.1-0.4,0.5-0.2,0.9c0.1,0.2,0.3,0.3,0.4,0.4c0.2,0.2,0.5,0.2,0.8,0.2c0.8-0.1,8.1-1,9.7-2.7c0.9-0.9,4.3-4.8,10.3-14.8
		c2.7-4.5,5.7-9.7,7.8-14C331.2,49.4,332,47.5,332.3,46z M298.2,79.6c0,0,7.2-2,8.3-3c0.4-0.4,0.7-0.8,1-1.3
		c0.3-0.4,0.6-0.9,0.9-1.3c0.6-0.9,1.2-1.8,1.7-2.7c1.1-1.8,2.3-3.6,3.4-5.5c1.1-1.8,2.2-3.7,3.4-5.5c1.2-1.8,2.4-3.6,3.7-5.2
		c-0.6,0.9-1.2,1.8-1.8,2.7c-0.6,0.9-1.2,1.8-1.7,2.7c-1.1,1.7-2.1,3.5-3.1,5.2c-1.4,4-3.8,8.5-5,10.7c-0.4,0.4-0.7,0.7-0.9,0.9
		C306.2,78.4,298.2,79.6,298.2,79.6z M301.7,82.6L301.7,82.6c1.5-0.5,3-1,4.4-1.6c0.7-0.3,1.4-0.6,2.1-0.9c0.3-0.2,0.6-0.4,0.9-0.6
		s0.6-0.4,0.8-0.7c1.3-1.7,7.5-13.6,7.5-13.6l0,0c1.2-2.3,5.1-10.9,7.4-15.8c0.5-0.9,1.1-1.9,1.6-2.8l0,0c0.6-1,1.2-2.1,2-3
		c0.4-0.5,0.8-0.9,1.4-1.2c0.2-0.1,0.3-0.1,0.5-0.1s0.4,0,0.7,0.2c0.2,0.1,0.4,0.3,0.5,0.5s0.1,0.4,0.2,0.5c0.1,0.7,0,1.3-0.2,1.9
		c-0.1,0.6-0.3,1.2-0.5,1.8c-0.4,1.2-0.9,2.3-1.4,3.4c-2,4.4-4.4,8.5-6.8,12.7s-4.9,8.2-7.7,12.1c-0.7,1-1.4,1.9-2.2,2.9
		c-0.4,0.5-0.8,0.9-1.2,1.4c-0.2,0.2-0.4,0.5-0.7,0.6c-0.3,0.2-0.5,0.3-0.8,0.5c-1.2,0.5-2.6,0.9-4,1.2S303.3,82.5,301.7,82.6
		C301.8,82.7,301.8,82.7,301.7,82.6z"/>
	<path class="st22" d="M302.5,82.5c1.2-0.2,2.4-0.4,3.6-0.6c1.4-0.3,2.8-0.6,4-1.2c0.3-0.1,0.6-0.3,0.8-0.5c0.2-0.2,0.4-0.4,0.6-0.6
		c0.4-0.4,0.8-0.9,1.2-1.4c0.8-0.9,1.5-1.9,2.2-2.9c1.4-2,2.7-4,4-6s2.5-4.1,3.7-6.2c2.4-4.1,4.9-8.3,6.9-12.6
		c0.5-1.1,1-2.2,1.4-3.3c0.2-0.6,0.4-1.2,0.5-1.8s0.3-1.2,0.2-1.8c-2.2,0.6-3.6,5.2-6.7,11.5c-1.8,3.6-12.8,23.1-14.7,24.6
		c-1.5,1.1-5.6,2.3-7.5,2.8C302.6,82.4,302.5,82.5,302.5,82.5z"/>
</g>
<g>
	<path class="st22" d="M395.9,131.3c-1.3-1-2.7-1.9-4.3-2.6c1.4-4.3,1.4-7.9,1.4-11.4v-0.7c0-1.4-0.3-2.3-1-2.9
		c-1.1-1-2.7-0.8-4.3-0.6c-0.3,0-0.7,0.1-1,0.1c-0.1-0.1-0.2-0.2-0.3-0.1c-0.4,0-0.4,0-0.5,0.1c-0.1,0-0.2,0.2-0.2,0.2
		s-0.1-0.2-0.7-0.1s-0.7,0.2-0.6,0.8c0.1,0.6,0.2,0.7,0.8,0.7c0.6-0.1,0.7-0.3,0.7-0.3s0.1,0.2,0.2,0.2s0.2,0,0.5-0.1
		c0.2,0,0.3-0.1,0.3-0.3c0.3,0,0.6-0.1,0.9-0.1c1.4-0.2,2.7-0.3,3.5,0.3c0.4,0.4,0.7,1.1,0.7,2.1v0.7c0,3.4,0,6.9-1.3,11
		c-4.1-1.6-8.9-2.2-14.4-1.8c-0.8-3.4-0.8-6.3-0.8-9.2v-0.7c0-1,0.2-1.7,0.7-2.1c0.7-0.6,2.1-0.5,3.5-0.3c0.3,0,0.6,0.1,0.9,0.1
		c0.1,0.1,0.2,0.2,0.3,0.3c0.4,0,0.4,0,0.5,0.1c0.1,0,0.2-0.2,0.2-0.2s0.1,0.2,0.7,0.3c0.6,0.1,0.7-0.1,0.8-0.7
		c0.1-0.6,0-0.8-0.6-0.8s-0.7,0.1-0.7,0.1s-0.1-0.2-0.2-0.2s-0.2,0-0.5-0.1c-0.2,0-0.3,0-0.3,0.1c-0.3,0-0.6-0.1-0.9-0.1
		c-1.6-0.2-3.2-0.4-4.3,0.6c-0.7,0.6-1,1.6-1,2.9v0.7c0,2.9,0,5.9,0.8,9.3c-2.1,0.2-4.2,0.5-6.4,1c-0.7-1-1.8-1.6-3.1-1.6
		c-2.1,0-3.8,1.7-3.8,3.9c0,2.1,1.7,3.9,3.8,3.9s3.8-1.7,3.8-3.9c0-0.2,0-0.5-0.1-0.7c2.1-0.5,4.2-0.8,6.2-0.9
		c0.3,0.9,0.6,1.9,1.1,2.9c-0.1,0.2-0.1,0.4,0,0.6c0.6,1.2,1.5,3.3,1.7,4.2c1,4.5,3.5,6.5,4.6,7.2c0,4.4,1.1,7.8,3.3,10.1
		c1.6,1.7,3.8,2.7,5.8,2.7c3.4,0,10.5-2.6,10.5-10.6C402.4,139.7,400.1,134.7,395.9,131.3z M384.6,114.3c0,0.1,0,0.2,0,0.2
		S384.6,114.4,384.6,114.3c-0.1-0.1-0.1-0.2-0.1-0.3c0-0.1,0-0.3,0-0.4s0-0.2,0-0.2l0,0c0,0,0,0.1,0.1,0.1c0,0.1,0.1,0.2,0.1,0.4
		C384.6,114.1,384.6,114.2,384.6,114.3z M381.6,113.8L381.6,113.8v-0.2v-0.1c0,0,0-0.1,0.1-0.1l0.1-0.1l0,0c0,0,0,0,0,0.1v0.1v0.1
		v0.1c0,0.1,0,0.1,0,0.2s0,0.1,0,0.2s0,0.1,0,0.2s0,0.2,0,0.2s-0.1-0.1-0.1-0.2s0-0.1,0-0.2V114
		C381.6,113.9,381.6,113.9,381.6,113.8z M365.4,127.5c1,0,1.8,0.8,1.8,1.8s-0.8,1.8-1.8,1.8s-1.8-0.8-1.8-1.8
		C363.7,128.3,364.5,127.5,365.4,127.5z M365.4,133c-1.7,0-3.2-1.4-3.2-3.2c0-1.3,0.8-2.4,1.8-2.9c-0.1,0.1-0.1,0.1-0.2,0.2
		s-0.2,0.2-0.3,0.3c-0.1,0.1-0.1,0.1-0.1,0.1s0,0,0.1-0.1l0.1-0.1c0.1,0,0.1-0.1,0.2-0.1s0.2-0.1,0.3-0.1l0,0
		c-0.8,0.4-1.3,1.2-1.3,2.2c0,1.3,1.1,2.4,2.4,2.4c0.1,0,0.1,0,0.2,0c-0.1,0-0.2,0-0.3,0c-0.3,0-0.5,0-0.7-0.1
		c-0.1,0-0.2-0.1-0.3-0.1c-0.1,0-0.2-0.1-0.3-0.1c-0.1,0-0.1-0.1-0.2-0.1s-0.1-0.1-0.1-0.1c-0.1,0-0.1-0.1-0.1-0.1s0,0,0.1,0.1
		s0.1,0.2,0.3,0.3c0.1,0.1,0.1,0.1,0.2,0.2c0.1,0.1,0.2,0.1,0.3,0.2c0.2,0.1,0.5,0.2,0.8,0.3c0.3,0,0.7,0,1.1-0.1s0.7-0.3,1.1-0.5
		l0.1-0.1h0.1l0,0l0,0l0,0l0,0l0,0c0.1-0.1,0.2-0.2,0.2-0.2c0.1-0.2,0.3-0.4,0.4-0.6c0.2-0.4,0.3-0.8,0.3-1.3c0,0.1,0,0.3,0,0.4
		C368.6,131.6,367.2,133,365.4,133z M386,114.4c0,0,0-0.1,0-0.2s0-0.2-0.1-0.4c0-0.1,0-0.3,0-0.4s0-0.2,0-0.2l0,0c0,0,0,0.1,0.1,0.1
		c0,0.1,0.1,0.2,0.1,0.4c0,0.1,0,0.3,0,0.4C386,114.3,386,114.4,386,114.4z M392.1,117.3v-0.7c0-1.1-0.2-1.9-0.7-2.3
		c-0.8-0.7-2.3-0.6-3.7-0.4c-0.3,0-0.6,0.1-0.9,0.1c0-0.1,0-0.2,0-0.3c0-0.1,0-0.2-0.1-0.3c0.3,0,0.6-0.1,0.9-0.1
		c1.5-0.2,3.1-0.4,4.1,0.5c0.6,0.6,0.9,1.5,0.9,2.7v0.7c0,1.9,0,3.8-0.2,5.9c0-0.1,0-0.3,0-0.4c0-0.2,0-0.4,0-0.6c0-0.4,0-0.8,0-1.2
		c0-0.4,0-0.7,0-1c0-0.6,0-1.2,0-1.6s0-0.6,0-0.6s0,0.2,0,0.6s0,0.9-0.1,1.6c0,0.3,0,0.7-0.1,1c0,0.4,0,0.8-0.1,1.2
		c0,0.2,0,0.4-0.1,0.6c0,0.2-0.1,0.4-0.1,0.6c-0.1,0.4-0.1,0.8-0.2,1.3l-0.1,0.3l-0.1,0.3c0,0.2-0.1,0.4-0.1,0.6
		c-0.1,0.2-0.1,0.4-0.2,0.6s-0.1,0.4-0.2,0.6c-0.1,0.4-0.2,0.8-0.4,1.1c0,0.1-0.1,0.2-0.1,0.3h-0.1
		C392.1,124.2,392.1,120.7,392.1,117.3z M380.8,113.1L380.8,113.1c0,0.1-0.1,0.1-0.1,0.2v0.1v0.1c0,0.1,0,0.1,0,0.2s0,0.1,0,0.2
		s0,0.1,0,0.2s0,0.2,0,0.2s-0.1-0.1-0.1-0.2s0-0.1,0-0.2v-0.1v-0.1v-0.1v-0.1v-0.1c0,0,0-0.1,0.1-0.1
		C380.7,113.2,380.7,113.2,380.8,113.1L380.8,113.1z M374.5,117.3v-0.7c0-1.3,0.3-2.2,0.9-2.7s1.4-0.7,2.2-0.7
		c0.6,0,1.2,0.1,1.9,0.1c0.3,0,0.6,0.1,0.8,0.1c0,0.1,0,0.2-0.1,0.3c0,0.1,0,0.2,0,0.3c-0.3,0-0.6-0.1-0.8-0.1
		c-1.4-0.2-2.9-0.3-3.7,0.4c-0.5,0.4-0.7,1.2-0.7,2.3v0.7c0,2.3,0,4.6,0.4,7.1c0-0.2-0.1-0.3-0.1-0.5c-0.1-0.4-0.1-0.8-0.2-1.1
		c-0.1-0.4-0.1-0.7-0.1-1.1c0-0.3-0.1-0.7-0.1-1s0-0.6,0-0.8c0-0.2,0-0.5,0-0.6c0-0.4,0-0.6,0-0.6s0,0.2,0,0.6c0,0.2,0,0.4,0,0.6
		s0,0.5,0,0.8s0,0.6,0,1c0,0.3,0,0.7,0.1,1.1c0,0.4,0.1,0.8,0.1,1.2c0.1,0.4,0.1,0.8,0.2,1.2c0,0.2,0.1,0.4,0.1,0.6s0.1,0.4,0.1,0.6
		c0,0.1,0,0.1,0.1,0.2c-0.1,0-0.2,0-0.2,0C374.5,123.2,374.5,120.2,374.5,117.3z M373.6,127.3c-0.6,0.1-1.2,0.1-1.7,0.2
		c-0.3,0-0.5,0.1-0.7,0.1s-0.4,0.1-0.6,0.1c-0.4,0.1-0.6,0.1-0.8,0.1c-0.2,0-0.3,0-0.3,0s0.1,0,0.3-0.1c0.2,0,0.5-0.1,0.8-0.2
		c0.2,0,0.4-0.1,0.6-0.1s0.4-0.1,0.7-0.1c0.5-0.1,1.1-0.2,1.7-0.3c0.6-0.1,1.3-0.2,2-0.3c0.4,0,0.7-0.1,1.1-0.1c0.2,0,0.4,0,0.6,0
		s0.4,0,0.6,0c0.8,0,1.6-0.1,2.4,0c0.2,0,0.4,0,0.6,0s0.4,0,0.6,0c0.4,0,0.8,0.1,1.3,0.1c0.2,0,0.4,0,0.6,0.1c0.2,0,0.4,0.1,0.6,0.1
		s0.4,0.1,0.6,0.1s0.4,0.1,0.6,0.1s0.4,0.1,0.6,0.1s0.4,0.1,0.6,0.1c0.4,0.1,0.8,0.2,1.2,0.3c0.2,0,0.4,0.1,0.6,0.2s0.4,0.1,0.5,0.2
		c0.2,0.1,0.4,0.1,0.5,0.2c0.2,0.1,0.3,0.1,0.5,0.2c0.2,0.1,0.3,0.1,0.5,0.2c0.1,0,0.2,0.1,0.2,0.1c0.1,0,0.2,0.1,0.2,0.1
		c0.3,0.1,0.6,0.3,0.9,0.4c0.1,0.1,0.3,0.1,0.4,0.2c0.1,0.1,0.3,0.1,0.4,0.2c0.1,0.1,0.2,0.1,0.4,0.2c0.1,0.1,0.2,0.1,0.3,0.2
		c0.2,0.1,0.4,0.3,0.6,0.4c0.1,0.1,0.2,0.1,0.3,0.2l0.1,0.1l0.1,0.1c0.3,0.2,0.5,0.4,0.7,0.5s0.2,0.2,0.2,0.2s-0.1-0.1-0.3-0.2
		c-0.2-0.1-0.4-0.3-0.7-0.5l-0.1-0.1c0,0-0.1,0-0.1-0.1c-0.1-0.1-0.2-0.1-0.3-0.2c-0.2-0.1-0.4-0.2-0.6-0.4
		c-0.1-0.1-0.2-0.1-0.3-0.2c-0.1-0.1-0.2-0.1-0.4-0.2c-0.1-0.1-0.3-0.1-0.4-0.2c-0.1-0.1-0.3-0.1-0.4-0.2c-0.3-0.1-0.6-0.2-0.9-0.4
		c-0.1,0-0.2-0.1-0.2-0.1c-0.1,0-0.2-0.1-0.2-0.1c-0.2-0.1-0.3-0.1-0.5-0.2c-0.2-0.1-0.3-0.1-0.5-0.2c-0.2-0.1-0.4-0.1-0.5-0.2
		c-0.4-0.1-0.7-0.2-1.1-0.3c-0.4-0.1-0.8-0.2-1.2-0.3c-0.2,0-0.4-0.1-0.6-0.1s-0.4-0.1-0.6-0.1s-0.4-0.1-0.6-0.1s-0.4-0.1-0.6-0.1
		s-0.4-0.1-0.6-0.1s-0.4-0.1-0.6-0.1c-0.4,0-0.8-0.1-1.2-0.1c-0.2,0-0.4,0-0.6,0s-0.4,0-0.6,0c-0.8,0-1.6,0-2.4,0
		c-0.2,0-0.4,0-0.6,0s-0.4,0-0.6,0c-0.4,0-0.7,0-1.1,0.1C374.9,127.2,374.2,127.3,373.6,127.3z M387.5,137.1
		c-0.1,0.4-0.2,0.7-0.4,1.1c-0.1,0.3-0.3,0.7-0.5,1c-0.3,0.6-0.7,1.2-1.1,1.6c-0.4,0.4-0.7,0.7-1,0.9s-0.4,0.3-0.4,0.3s0,0,0.1-0.1
		s0.2-0.1,0.3-0.2c0.2-0.2,0.6-0.5,0.9-1c0.2-0.2,0.4-0.5,0.5-0.7c0.2-0.3,0.3-0.6,0.5-0.9c0.3-0.6,0.6-1.3,0.8-2
		c0.1-0.4,0.2-0.7,0.3-1.1c0.1-0.4,0.2-0.7,0.3-1.1c0.1-0.3,0.2-0.7,0.4-0.9c0.1-0.3,0.3-0.6,0.4-0.8c0.2-0.5,0.5-0.9,0.6-1.2
		c0.2-0.3,0.2-0.5,0.2-0.5s-0.1,0.2-0.2,0.5s-0.3,0.7-0.5,1.3c-0.2,0.5-0.4,1.1-0.7,1.8c-0.1,0.3-0.2,0.7-0.3,1
		C387.7,136.3,387.6,136.7,387.5,137.1z M379.8,135.6c-0.3-1.2-1.3-3.5-1.8-4.6c-0.1-0.2-0.3-0.3-0.5-0.4c-0.4-0.9-0.7-1.7-0.9-2.5
		c5.1-0.3,9.7,0.3,13.4,1.8c-0.1,0.3-0.2,0.5-0.3,0.8c-0.2,0-0.4,0.2-0.5,0.4c-0.5,1.1-1.6,3.4-1.8,4.6c-0.1,0.4-0.2,0.9-0.3,1.2
		c-2.3,0.2-4.6,0.2-6.9,0C380,136.5,379.9,136.1,379.8,135.6z M390.3,130c-0.1,0.2-0.2,0.4-0.2,0.6v0.1c0,0,0,0-0.1,0
		C390.1,130.4,390.2,130.2,390.3,130L390.3,130z M386.6,137.3c0,0-0.1,0-0.3,0.1c-0.2,0-0.4,0.1-0.7,0.1c-0.3,0-0.6,0.1-1,0.1
		c-0.2,0-0.4,0-0.5,0c-0.2,0-0.4,0-0.6,0s-0.4,0-0.6,0s-0.4,0-0.5,0c-0.4,0-0.7-0.1-1-0.1s-0.5-0.1-0.7-0.1s-0.3-0.1-0.3-0.1
		s0.1,0,0.3,0c0.2,0,0.4,0,0.7,0c0.3,0,0.6,0,1,0c0.3,0,0.7,0,1.1,0s0.7,0,1.1,0c0.3,0,0.7,0,1,0s0.5,0,0.7,0
		C386.5,137.3,386.6,137.3,386.6,137.3z M383.6,138.7c0.9,0,1.8,0,2.7-0.1c-1,1.8-2.2,2.7-2.7,3.1c-0.6-0.4-1.8-1.3-2.7-3.1
		C381.8,138.7,382.7,138.7,383.6,138.7z M376,128.2c0,0.1,0.1,0.2,0.1,0.3c0.1,0.3,0.2,0.6,0.3,0.9c0.1,0.3,0.2,0.6,0.3,0.8
		c0.1,0.2,0.1,0.4,0.2,0.6h-0.1c0,0,0,0-0.1,0c-0.4-0.9-0.7-1.8-1-2.7C375.8,128.2,375.9,128.2,376,128.2z M382.5,142.7
		c-0.1,0-0.2-0.1-0.3-0.2c-0.3-0.2-0.6-0.5-1-1c-0.4-0.4-0.8-1-1.2-1.6c-0.2-0.3-0.4-0.7-0.5-1c-0.2-0.4-0.3-0.7-0.4-1.1
		c-0.1-0.4-0.3-0.7-0.4-1.1c-0.1-0.4-0.2-0.7-0.3-1.1c-0.2-0.7-0.5-1.3-0.7-1.9c-0.2-0.5-0.4-1-0.5-1.3s-0.2-0.5-0.2-0.5
		s0.1,0.2,0.2,0.5c0.1,0.2,0.2,0.3,0.3,0.5c0.1,0.2,0.2,0.5,0.3,0.7c0.1,0.3,0.3,0.6,0.4,0.9c0.1,0.3,0.3,0.6,0.4,1s0.2,0.7,0.3,1.1
		c0.1,0.4,0.2,0.7,0.4,1.1c0.3,0.7,0.6,1.4,0.9,2.1c0.3,0.6,0.7,1.2,1.1,1.7s0.7,0.8,0.9,1C382.4,142.5,382.5,142.6,382.5,142.7
		c0.1,0,0.1,0.1,0.1,0.1S382.6,142.7,382.5,142.7z M390.2,155.4c-0.2-0.1-0.4-0.1-0.7-0.2c-0.3-0.1-0.6-0.2-0.9-0.4
		c-0.1,0-0.2-0.1-0.2-0.1c-0.1,0-0.2-0.1-0.2-0.2c-0.2-0.1-0.3-0.2-0.5-0.3s-0.3-0.3-0.5-0.4c-0.1-0.1-0.2-0.1-0.2-0.2
		c-0.1-0.1-0.2-0.2-0.2-0.2c-0.1-0.1-0.2-0.2-0.2-0.2c-0.1-0.1-0.2-0.2-0.2-0.3c-0.2-0.2-0.3-0.4-0.4-0.6c-0.1-0.2-0.3-0.4-0.4-0.6
		c-0.1-0.2-0.3-0.4-0.4-0.6c-0.1-0.2-0.2-0.4-0.3-0.6c-0.1-0.1-0.1-0.2-0.2-0.3c0-0.1-0.1-0.2-0.1-0.3c-0.2-0.4-0.3-0.9-0.5-1.3
		c-0.1-0.4-0.2-0.9-0.3-1.3c-0.1-0.4-0.2-0.8-0.2-1.1c-0.1-0.7-0.2-1.3-0.2-1.7s0-0.7,0-0.7s0,0.2,0.1,0.6c0,0.2,0.1,0.5,0.1,0.7
		c0.1,0.3,0.1,0.6,0.2,1c0.1,0.3,0.2,0.7,0.3,1.1c0.1,0.4,0.2,0.8,0.4,1.2c0.1,0.2,0.1,0.4,0.2,0.6c0.1,0.2,0.2,0.4,0.3,0.6
		c0,0.1,0.1,0.2,0.1,0.3c0.1,0.1,0.1,0.2,0.2,0.3c0.1,0.2,0.2,0.4,0.3,0.6c0.1,0.2,0.2,0.4,0.3,0.6c0.1,0.2,0.2,0.4,0.4,0.6
		c0.1,0.2,0.3,0.4,0.4,0.5s0.1,0.2,0.2,0.3s0.1,0.2,0.2,0.2c0.1,0.1,0.1,0.2,0.2,0.2c0.1,0.1,0.2,0.1,0.2,0.2
		c0.1,0.2,0.3,0.3,0.5,0.4c0.1,0.1,0.1,0.1,0.2,0.2c0.1,0.1,0.2,0.1,0.2,0.2c0.1,0.1,0.2,0.1,0.2,0.2c0.1,0,0.2,0.1,0.2,0.1
		c0.3,0.2,0.6,0.3,0.8,0.5C389.8,155.1,390.1,155.2,390.2,155.4c0.4,0.1,0.6,0.1,0.6,0.1S390.6,155.5,390.2,155.4z M384.4,143.1
		c1.1-0.7,3.6-2.7,4.5-7.1c0.2-1,1.1-3,1.7-4.2c0.1-0.2,0.1-0.4,0-0.6c0.1-0.3,0.2-0.5,0.3-0.8c1.4,0.6,2.7,1.4,3.8,2.3
		c3.9,3.1,5.9,7.5,5.9,12.7c0,3-1.2,5.4-3.4,7.1c-1.8,1.3-4,1.9-5.5,1.9C389.1,154.3,384.5,151.9,384.4,143.1z M398.3,135.1
		c0.1,0.1,0.2,0.2,0.3,0.3c0.1,0.1,0.2,0.2,0.2,0.4c0.1,0.1,0.2,0.2,0.3,0.4c0.1,0.1,0.2,0.3,0.2,0.4c0.2,0.3,0.3,0.6,0.5,0.9
		c0.1,0.1,0.2,0.3,0.2,0.5c0.1,0.2,0.1,0.3,0.2,0.5s0.1,0.3,0.2,0.5s0.1,0.3,0.2,0.5s0.1,0.4,0.2,0.5c0.1,0.2,0.1,0.4,0.2,0.5
		c0.1,0.4,0.2,0.7,0.3,1.1c0.1,0.8,0.3,1.5,0.3,2.3c0,0.4,0,0.8,0,1.2v0.1c0,0.1,0,0.1,0,0.2v0.3c0,0.2,0,0.4,0,0.6
		c0,0.4-0.1,0.8-0.2,1.2c0,0.1,0,0.2-0.1,0.3v0.1v0.1c-0.1,0.2-0.1,0.4-0.2,0.5c-0.2,0.7-0.5,1.4-0.9,1.9c-0.4,0.6-0.8,1.1-1.2,1.5
		c-0.1,0.1-0.1,0.1-0.2,0.2c-0.1,0-0.1,0.1-0.2,0.1c-0.1,0.1-0.2,0.2-0.3,0.3c-0.2,0.2-0.4,0.3-0.6,0.4c-0.4,0.3-0.8,0.5-1.1,0.6
		c-0.2,0.1-0.3,0.1-0.4,0.2c-0.1,0.1-0.2,0.1-0.3,0.1c-0.2,0.1-0.3,0.1-0.3,0.1s0.1,0,0.2-0.1c0.1,0,0.2-0.1,0.3-0.2
		c0.1-0.1,0.2-0.1,0.4-0.2c0.3-0.2,0.6-0.4,1-0.7c0.2-0.1,0.4-0.3,0.6-0.5c0.1-0.1,0.2-0.2,0.3-0.3c0,0,0.1-0.1,0.2-0.1
		c0-0.1,0.1-0.1,0.1-0.2c0.1-0.1,0.2-0.2,0.3-0.3c0.1-0.1,0.2-0.2,0.3-0.4c0.1-0.1,0.2-0.3,0.3-0.4c0-0.1,0.1-0.1,0.1-0.2l0.1-0.1
		l0.1-0.1c0.1-0.1,0.2-0.3,0.2-0.4c0.1-0.1,0.1-0.3,0.2-0.5c0-0.1,0.1-0.2,0.1-0.2c0-0.1,0.1-0.2,0.1-0.2c0.1-0.2,0.1-0.3,0.2-0.5
		c0-0.2,0.1-0.3,0.1-0.5v-0.1v-0.1c0-0.1,0-0.2,0.1-0.3c0.1-0.4,0.1-0.7,0.2-1.1c0-0.2,0-0.4,0-0.6v-0.3v-0.1v-0.1
		c0-0.4,0-0.8,0-1.2c0-0.8-0.2-1.5-0.3-2.3c-0.1-0.4-0.2-0.7-0.3-1.1c0-0.2-0.1-0.4-0.1-0.5c-0.1-0.2-0.1-0.3-0.2-0.5
		s-0.1-0.3-0.2-0.5s-0.1-0.3-0.2-0.5s-0.1-0.3-0.2-0.5s-0.1-0.3-0.2-0.5c-0.1-0.3-0.3-0.6-0.4-0.9c-0.1-0.1-0.2-0.3-0.2-0.4
		c-0.1-0.1-0.2-0.3-0.2-0.4c-0.1-0.1-0.2-0.2-0.2-0.4c-0.1-0.1-0.2-0.2-0.2-0.3c-0.2-0.2-0.3-0.4-0.4-0.6c-0.1-0.2-0.3-0.4-0.4-0.5
		c-0.1-0.2-0.3-0.3-0.4-0.4c-0.1-0.1-0.2-0.2-0.3-0.3c-0.1-0.1-0.2-0.2-0.2-0.2c-0.1-0.1-0.2-0.2-0.2-0.2s0.1,0.1,0.2,0.2
		c0.1,0.1,0.2,0.1,0.2,0.2c0.1,0.1,0.2,0.2,0.3,0.3c0.1,0.1,0.3,0.3,0.4,0.4c0.1,0.1,0.3,0.3,0.4,0.5S398.1,134.9,398.3,135.1z"/>
	<path class="st22" d="M364,129.3c0,0.8,0.6,1.5,1.4,1.5s1.4-0.7,1.4-1.5s-0.6,0-1.4,0S364,128.5,364,129.3z"/>
</g>
<g>
	<path class="st22" d="M425.7,226.5c0-0.9-0.5-1.4-1-1.9s-1-1-1-1.9c0-1.8-0.3-19.2-0.3-19.4c0-0.8-0.3-3.4-3-3.4
		c-2.5,0-2.7,2.2-2.7,2.2l-0.1,0.7l0.5-0.6c0.3-0.4,1.3-1.4,2.2-1.4c0.5,0,0.9,0.1,1.1,0.4c0.5,0.4,0.7,1.1,0.7,2.1
		c0,0.2-0.3,17.6-0.3,19.4c0,0.8-0.5,1.3-1,1.9c-0.5,0.5-1,1.1-1,1.9c0,0.9,0.3,1.3,0.6,1.7c0.3,0.4,0.5,0.7,0.5,1.4
		c0,0.8-0.3,3.3-0.6,5.8c-0.3,2.2-0.5,4.2-0.5,4.8c0,2.2,1,3.3,2.9,3.3s2.9-1.1,2.9-3.3c0-0.6-0.3-2.6-0.5-4.8
		c-0.3-2.4-0.6-5-0.6-5.8c0-0.7,0.3-1,0.5-1.4C425.4,227.9,425.7,227.4,425.7,226.5z M424.6,226.6c0,0.8-0.8,1.4-1.8,1.4
		s-1.8-0.6-1.8-1.4c0-0.8,0.8-1.4,1.8-1.4C423.8,225.2,424.6,225.8,424.6,226.6z M420.9,235.4c0.3-2.5,0.6-5,0.6-5.8
		s-0.3-1.2-0.6-1.6c-0.3-0.4-0.6-0.8-0.6-1.6s0.4-1.2,0.9-1.7s1-1.1,1-2.1c0-1.8,0.3-19.2,0.3-19.4c0-1.1-0.3-1.9-0.8-2.4
		c-0.4-0.3-0.9-0.5-1.5-0.5c-0.7,0-1.4,0.5-1.9,0.9c0.3-0.5,0.9-1.1,2.1-1.1c2.3,0,2.6,2.1,2.6,3.1c0,0.1,0,1.9,0.1,4.4
		c0-0.6,0-1.2-0.1-1.7c0-0.9-0.1-1.7-0.1-2.3c0-0.5-0.1-0.9-0.1-0.9s0,0.3,0,0.9c0,0.5,0,1.3-0.1,2.3c0,0.9,0,2,0,3.2
		c0,0.6,0,1.2,0,1.8s0,1.2,0,1.9c0,0.6,0,1.3,0,1.9c0,0.6,0,1.2,0,1.8c0,1.2,0.1,2.3,0.1,3.2s0.1,1.7,0.1,2.3c0,0.5,0.1,0.9,0.1,0.9
		s0-0.3,0-0.9c0-0.5,0-1.3,0.1-2.3c0-0.9,0-2,0-3.2c0-0.2,0-0.5,0-0.7c0.1,3.3,0.1,6.1,0.1,6.7c0,1,0.5,1.5,1,2.1
		c0.1,0.1,0.1,0.1,0.2,0.2c-0.2-0.1-0.3-0.2-0.5-0.2c-0.1,0-0.2-0.1-0.3-0.1c-0.1,0-0.2,0-0.2,0c-0.1,0-0.1,0-0.2,0s-0.1,0-0.2,0
		s-0.2,0-0.2,0c-0.1,0-0.1,0-0.1,0s0,0,0.1,0s0.1,0,0.2,0.1c0,0,0.1,0,0.2,0s0.1,0,0.2,0.1c0.1,0,0.3,0.1,0.4,0.2
		c0.1,0,0.2,0.1,0.2,0.1c-0.4-0.2-0.8-0.3-1.3-0.3c-1.2,0-2.2,0.8-2.2,1.8s1,1.8,2.2,1.8c0.5,0,0.9-0.1,1.3-0.3
		c-0.1,0.1-0.1,0.1-0.2,0.1c-0.1,0.1-0.3,0.1-0.4,0.2c-0.1,0-0.1,0-0.2,0.1c-0.1,0-0.1,0-0.2,0s-0.2,0-0.2,0.1c-0.1,0-0.1,0-0.1,0
		s0,0,0.1,0s0.1,0,0.2,0s0.1,0,0.2,0s0.1,0,0.2,0s0.2,0,0.2,0c0.1,0,0.2,0,0.3-0.1l0,0c-0.6,0.9-0.1,2.3,0.1,4.4
		c0.2,1.8,1.1,6.3,0.6,8.6c0,0.1-0.1,0.3-0.2,0.4c-0.1,0.2-0.2,0.4-0.4,0.6c-0.2,0.2-0.4,0.3-0.6,0.4c-0.3,0.1-0.6,0.1-0.9,0.1
		s-0.6,0-0.9-0.1s-0.5-0.2-0.7-0.4s-0.3-0.4-0.4-0.6c-0.1-0.2-0.1-0.4-0.2-0.6c-0.1-0.4-0.1-0.7-0.1-1c0-0.2,0-0.4,0-0.4
		s0,0.1-0.1,0.4c0,0.1,0,0.1,0,0.2c0-0.1,0-0.2,0-0.3C420.4,239.7,420.6,237.6,420.9,235.4z"/>
	<path class="st22" d="M422.8,242.7c1.3,0,1.9-0.7,1.9-2.5c0-1-0.2-3.7-0.5-6c-0.6-4.8-1.1-4.8-1.4-4.8s-0.8,0-1.4,4.8
		c-0.3,2.3-0.5,5.1-0.5,6C420.9,242,421.5,242.7,422.8,242.7z M422.8,229.7c0.7,0.7,1.5,8.2,1.5,10.4c0,2-0.7,2.2-1.5,2.2
		c-0.7,0-1.5-0.2-1.5-2.2C421.4,238,422.1,230.5,422.8,229.7z"/>
</g>
<g>
	<path class="st22" d="M397.3,211.2c0.5,0,0.9-0.1,1.3-0.1c0.3,0,0.5-0.1,0.8-0.1c0.5,0,0.7,0.2,0.7,0.5c0.3,1.2,2.8,16.9,3,18.6
		c0.2,1.4,0.2,4.2,0.2,6.4c0,0.7,0,1.3,0,1.8c0,2.2,0.3,3.4,0.3,3.4c0,0.1,0.1,0.2,0.3,0.2h0.3c0.1,0,0.2,0,0.2-0.1c0,0,0,0,0-0.1
		v0.1c0.1,0.1,0.1,0.1,0.2,0.1h0.3c0.1,0,0.2-0.1,0.3-0.3c0-0.1,0.3-1.3,0.2-3.5c0-0.5,0-1.1,0-1.8c0-2.2-0.1-5,0-6.4
		c0.1-1.7,2.3-17.5,2.5-18.7c0.1-0.3,0.2-0.5,0.7-0.5c0.2,0,0.5,0,0.8,0.1c0.4,0,0.8,0.1,1.3,0.1c1.7,0,3.5-1.7,3.4-5
		c0-3.3-1.6-4.5-3-4.5c-1.7,0-2.8,1.4-3.1,3.6c-0.2,1.2-0.5,3.6-1,3.6h-2c-0.1,0-0.3,0.1-0.3,0.3l-0.1,0.9c0,0.1,0,0.2,0.1,0.2
		c0.1,0.1,0.1,0.1,0.2,0.1c0.9,0.1,1.9,0.2,2.1,0.4c0,1.1-1.5,9.9-2.7,16.5c-1.3-6.5-3.1-15.3-3.1-16.4c0.2-0.2,1.2-0.4,2.1-0.5
		c0.1,0,0.2-0.1,0.2-0.1c0-0.1,0.1-0.2,0.1-0.3l-0.1-0.9c0-0.2-0.1-0.3-0.3-0.3h-2c-0.5,0-0.9-2.3-1.1-3.6c-0.4-2.2-1.6-3.6-3.2-3.6
		c-1.4,0-3,1.2-2.9,4.6C393.8,209.5,395.6,211.2,397.3,211.2z M403.9,241.6c0,0-0.3-1.2-0.3-3.4c0-0.6,0-1.4,0-2.3
		c0,0.1,0,0.1,0,0.2c0,1,0.1,2,0.1,2s0-1,0.1-2c0-0.5,0-1,0.1-1.4c0-0.1,0-0.2,0-0.3l0.4,0.6c-0.1,0.6-0.3,1.7-0.3,3.2
		c0,2.3,0.2,3.3,0.2,3.3L403.9,241.6z M404.4,241.4c0-0.4-0.2-1.3-0.2-3.1c0-0.9,0-1.6,0.1-2.2c0.1,0.6,0.2,1.3,0.2,2.2
		C404.5,240.1,404.4,241.1,404.4,241.4z M405.2,229.3l-0.4-0.4l1.9-11.5C406.2,221.7,405.5,227.2,405.2,229.3z M405.2,209.1
		c0.2,0,0.4,0,0.7,0c0.3,0,0.6,0,0.9,0c0.1,0,0.2,0,0.2,0c0.1,0,0.1-0.1,0.2-0.1c0.1-0.1,0.2-0.3,0.3-0.5c0.1-0.2,0.1-0.4,0.2-0.6
		c0.1-0.2,0.1-0.4,0.1-0.6c0.1-0.4,0.2-0.7,0.2-1c0.1-0.6,0.2-1,0.2-1s0,0.1,0,0.3s0,0.4-0.1,0.8c0,0.3-0.1,0.7-0.2,1.1
		c0,0.2-0.1,0.4-0.1,0.6c-0.1,0.2-0.1,0.4-0.2,0.6c-0.1,0.2-0.2,0.4-0.3,0.5c-0.1,0.1-0.2,0.1-0.3,0.1c-0.1,0-0.2,0-0.3,0
		c-0.3,0-0.7,0-0.9,0C405.6,209.1,405.3,209.1,405.2,209.1c-0.2,0-0.2,0-0.2,0S405,209.1,405.2,209.1z M412.8,202.5
		c0,0.1,0.1,0.1,0.1,0.2l0.1,0.1c0,0,0,0.1,0.1,0.1c0,0.1,0.1,0.1,0.1,0.2c0,0.1,0.1,0.1,0.1,0.2c0,0.1,0.1,0.1,0.1,0.2
		c0.1,0.1,0.1,0.2,0.1,0.4c0,0.1,0.1,0.2,0.1,0.4c0,0.1,0.1,0.2,0.1,0.3s0,0.2,0.1,0.3c0,0.1,0,0.1,0,0.2v0.1c0,0.2,0,0.3,0,0.5
		c0,0.3,0,0.4,0,0.4s0,0.2,0,0.4c0,0.1,0,0.2,0,0.2c0,0.1,0,0.2,0,0.3s0,0.2,0,0.3s0,0.1,0,0.2c0,0.1,0,0.1,0,0.2
		c0,0.1-0.1,0.2-0.1,0.4c0,0.1-0.1,0.3-0.1,0.4c0,0.1-0.1,0.3-0.2,0.4c-0.1,0.1-0.1,0.3-0.2,0.4c-0.2,0.3-0.3,0.5-0.6,0.7
		c-0.2,0.2-0.5,0.4-0.7,0.5c-0.1,0.1-0.3,0.1-0.4,0.2c-0.1,0.1-0.3,0.1-0.4,0.1s-0.1,0-0.2,0h-0.1l0,0l0,0l0,0h-0.1
		c-0.1,0-0.3,0-0.4,0c-0.5,0-1-0.1-1.4-0.1c-0.2,0-0.4,0-0.6,0s-0.3,0.1-0.4,0.2c-0.1,0.1-0.1,0.2-0.1,0.3s0,0.1,0,0.1s0,0,0-0.1
		s0.1-0.2,0.1-0.3c0.1-0.1,0.2-0.2,0.4-0.3c0.2-0.1,0.4-0.1,0.6-0.1s0.4,0,0.6,0c-0.1-0.4-0.2-1.1-0.4-1.9c-0.1-0.1-0.1-0.2-0.1-0.4
		c-0.1-0.2-0.1-0.4-0.1-0.6c0-0.2,0-0.3-0.1-0.4c0-0.1,0-0.2,0-0.3s0-0.1,0-0.1s0,0,0,0.1s0,0.2,0,0.3c0,0.2,0.1,0.6,0.2,1
		c0.1,0.2,0.2,0.4,0.3,0.6c0.1,0.2,0.3,0.4,0.4,0.6c0.1,0.1,0.2,0.2,0.3,0.3c0.2,0.1,0.3,0.2,0.5,0.2c0.1,0,0.2,0,0.2,0
		c1.2,0,2.2-1.4,2.4-3.3c0,0,0,0,0-0.1s0-0.2,0-0.3s0-0.3,0-0.5c0-0.1,0-0.2,0-0.3s0-0.2-0.1-0.3c0-0.1,0-0.2-0.1-0.3
		c0-0.1,0-0.1,0-0.2c0-0.1,0-0.1-0.1-0.2c0-0.1-0.1-0.2-0.1-0.4c0-0.1-0.1-0.1-0.1-0.2v-0.1c0,0,0-0.1-0.1-0.1
		c-0.1-0.2-0.3-0.4-0.5-0.6l-0.1-0.1c0,0-0.1,0-0.1-0.1c-0.1,0-0.1-0.1-0.2-0.1s-0.1-0.1-0.2-0.1h-0.2c-0.3,0-0.5,0-0.7,0.1
		s-0.5,0.2-0.6,0.4c0,0,0,0-0.1,0.1l-0.1,0.1l-0.1,0.1c-0.1,0.1-0.2,0.2-0.2,0.3s-0.1,0.1-0.1,0.2c0,0.1-0.1,0.1-0.1,0.2
		c-0.1,0.1-0.1,0.2-0.2,0.3s-0.1,0.2-0.1,0.3s-0.1,0.2-0.1,0.3c-0.1,0.2-0.1,0.3-0.1,0.5c0,0.1,0,0.2-0.1,0.3c0,0.1,0,0.1,0,0.1
		s0,0,0-0.1s0-0.2,0-0.3s0-0.3,0.1-0.5c0-0.1,0-0.2,0.1-0.3c0-0.1,0.1-0.2,0.1-0.3s0.1-0.2,0.1-0.3s0.1-0.1,0.1-0.2
		c0-0.1,0.1-0.1,0.1-0.2c0.1-0.1,0.1-0.2,0.2-0.3c0-0.1,0.1-0.1,0.1-0.2l0.1-0.1c0,0,0,0,0.1-0.1c0.2-0.2,0.4-0.4,0.7-0.5
		c0.3-0.1,0.5-0.1,0.8-0.1l0.2,0.1c0.1,0,0.1,0.1,0.2,0.1s0.1,0.1,0.2,0.1c0,0,0.1,0,0.1,0.1l0.1,0.1c0.2,0.2,0.4,0.4,0.6,0.7
		c0,0,0,0.1,0.1,0.1v0.1c0,0.1,0.1,0.1,0.1,0.2v0.1c-0.1-0.6-0.3-1.2-0.6-1.7c-0.2-0.1-0.3-0.2-0.5-0.3c-0.3-0.1-0.5-0.1-0.8-0.1
		s-0.5,0-0.8,0.1c-0.2,0.1-0.5,0.2-0.7,0.3s-0.4,0.3-0.5,0.5l-0.1,0.1l-0.1,0.1c-0.1,0.1-0.1,0.2-0.2,0.2c-0.1,0.2-0.2,0.3-0.2,0.4
		c-0.1,0.1-0.1,0.2-0.1,0.3s0,0.1,0,0.1s0,0,0-0.1s0.1-0.2,0.1-0.3s0.1-0.3,0.2-0.4c0-0.1,0.1-0.2,0.1-0.2l0.1-0.1l0.1-0.1
		c0.1-0.2,0.3-0.3,0.5-0.5c0.2-0.1,0.4-0.3,0.7-0.3c0.2-0.1,0.5-0.1,0.8-0.1s0.5,0,0.8,0.1s0.5,0.3,0.7,0.4
		C412.7,202.4,412.8,202.5,412.8,202.5z M411.4,202.9c0.5,0.1,1,0.5,1.3,1.1c0.3,0.7,0.4,1.6,0.3,2.5c-0.2,1.7-1.1,3-2.1,3
		c-0.1,0-0.1,0-0.2,0c-0.5-0.1-1-0.5-1.3-1.1c-0.3-0.7-0.4-1.6-0.3-2.5c0.2-1.7,1.1-3,2.1-3C411.3,202.9,411.3,202.9,411.4,202.9z
		 M396.8,201.9c0.1,0,0.1,0,0.2,0s0.2,0,0.3,0.1c0.1,0,0.1,0,0.2,0s0.1,0,0.2,0.1c0.4,0.2,0.7,0.4,1,0.7s0.4,0.6,0.6,0.9
		c0,0.1,0.1,0.2,0.1,0.2c0,0.1,0.1,0.1,0.1,0.2c0,0.1,0.1,0.3,0.1,0.4c0,0.1,0.1,0.2,0.1,0.3s0,0.2,0,0.2c0,0.1,0,0.2,0,0.2
		c0.4,2.1,0.7,3.8,1.4,3.8c0.7,0,2,0,2,0l0.1,0.9c0,0-2.1,0.2-2.3,0.6s3.4,18.1,3.4,18.1s0.2-1.3,0.5-3.3s0.8-4.6,1.2-7.2
		c0.2-1.3,0.4-2.6,0.6-3.8c0.1-0.6,0.2-1.2,0.3-1.8c0.1-0.6,0.2-1.1,0.2-1.6c0-0.1,0-0.2,0-0.4v-0.1l0,0l0,0l0,0l0,0l-0.1-0.1
		c-0.2-0.1-0.3-0.2-0.5-0.2c-0.3-0.1-0.6-0.1-0.9-0.2c-0.5-0.1-0.8-0.1-0.8-0.1s0.1,0,0.2,0s0.3,0,0.6,0.1c0.3,0,0.6,0.1,0.9,0.2
		c0.2,0,0.4,0.1,0.5,0.2l0.1,0.1l0,0l0,0l0,0l0,0v0.1v0.1c0,0.1,0,0.2,0,0.4c0,0.5-0.1,1-0.2,1.6s-0.2,1.2-0.3,1.8
		c-0.2,1.2-0.4,2.5-0.6,3.8s-0.5,2.6-0.7,3.8s-0.4,2.4-0.6,3.3c-0.2,1-0.3,1.8-0.4,2.4c-0.1,0.6-0.2,0.9-0.2,0.9l0.9,0.9
		c0,0.2,0,0.3,0,0.4c-0.2,1.9,0,6.1,0,8.2s-0.2,3.4-0.2,3.4h-0.3c0,0,0.2-1,0.1-3.3c0-1.8-0.3-3-0.4-3.4l-0.1-0.1
		c0-0.1-0.1-0.1-0.1-0.2c-0.1-0.1-0.2-0.2-0.3-0.3c-0.1-0.1-0.2-0.2-0.2-0.3c-0.1-0.1-0.1-0.1-0.2-0.2l-0.1-0.1c0,0,0.1,0.1,0.2,0.2
		c0.1,0.1,0.3,0.3,0.5,0.5l0.1,0.1c0-0.4,0-2.3,0-3.4c0-1.3-2.1-10.8-2.9-16.2c-0.8-5.2-2.1-10.9-3.6-12.6c-0.1,0-0.1-0.1-0.2-0.1
		h-0.1h-0.1c-0.1,0-0.2,0-0.3,0c-0.1,0-0.1,0-0.2,0s-0.1,0-0.2,0s-0.1,0-0.2,0h-0.1H396c-0.1,0-0.1,0-0.2,0s-0.1,0-0.2,0h-0.1h-0.1
		c-0.1,0-0.1,0-0.2,0.1l-0.1,0.1H395l-0.1,0.1l-0.1,0.1l-0.1,0.1c-0.3,0.3-0.6,0.8-0.7,1.3c-0.2,0.5-0.2,1-0.3,1.6
		c0,0.1,0,0.3,0,0.4c0,0.1,0,0.1,0,0.2c0,0.1,0,0.1,0,0.2c0,0.1,0,0.3,0,0.4c0,0.1,0,0.3,0,0.4c0.1,0.5,0.2,1,0.4,1.4
		c0.2,0.4,0.4,0.8,0.6,1c-0.3-0.9-0.8-2.6-0.6-4.2c0-0.1,0-0.1,0-0.2c0-0.1,0-0.2,0.1-0.4c0-0.1,0-0.1,0-0.2c0-0.1,0-0.1,0.1-0.2
		c0-0.1,0.1-0.3,0.1-0.4c0-0.1,0.1-0.1,0.1-0.2v-0.1c0,0,0-0.1,0.1-0.1c0.1-0.2,0.3-0.5,0.5-0.7s0.5-0.3,0.8-0.4h0.2
		c0.1,0,0.1,0,0.2,0s0.1,0,0.2,0h0.1h0.1c0.3,0.1,0.5,0.2,0.7,0.4c0,0,0.1,0,0.1,0.1l0.1,0.1l0.1,0.1c0.1,0.1,0.2,0.2,0.2,0.3
		s0.1,0.1,0.1,0.2c0,0.1,0.1,0.1,0.1,0.2c0.1,0.1,0.1,0.2,0.2,0.3s0.1,0.2,0.1,0.3s0.1,0.2,0.1,0.3c0.1,0.2,0.1,0.3,0.1,0.5
		c0,0.1,0,0.2,0.1,0.3c0,0.1,0,0.1,0,0.1s0,0,0-0.1s0-0.2-0.1-0.3c0-0.1-0.1-0.3-0.1-0.5c0-0.1-0.1-0.2-0.1-0.3s-0.1-0.2-0.1-0.3
		s-0.1-0.2-0.2-0.3c0-0.1-0.1-0.1-0.1-0.2c0-0.1-0.1-0.1-0.1-0.2c-0.1-0.1-0.2-0.2-0.2-0.3l-0.1-0.1l-0.1-0.1c0,0,0,0-0.1-0.1
		c-0.2-0.2-0.4-0.3-0.7-0.4h-0.1h-0.1c-0.1,0-0.1,0-0.2,0s-0.1,0-0.2,0h-0.2c-0.3,0-0.5,0.2-0.7,0.3c-0.2,0.2-0.4,0.4-0.5,0.6
		c0,0,0,0.1-0.1,0.1v0.1c0,0.1-0.1,0.1-0.1,0.2c0,0.1-0.1,0.2-0.1,0.4c0,0.1,0,0.1-0.1,0.2c0,0.1,0,0.1,0,0.2c0,0.1,0,0.2-0.1,0.3
		c0,0.1,0,0.2,0,0.3s0,0.2,0,0.3c0,0.2,0,0.3,0,0.5c0,0.1,0,0.2,0,0.3s0,0.1,0,0.1c0.3,1.8,1.4,3.2,2.5,3.2c0.1,0,0.2,0,0.2,0
		c0.6-0.1,1-0.5,1.4-1.2c0,0.6,0.8,1.2,1.1,1.9c0,0,0.1,0,0.1,0.1c0.1,0.1,0.2,0.2,0.2,0.3c0.1,0.1,0.1,0.3,0.1,0.4
		c0,0.1,0.1,0.3,0.1,0.4c0.1,0.3,0.1,0.6,0.2,0.9c0.1,0.6,0.2,1.2,0.3,1.9c0.2,1.3,0.5,2.7,0.7,4.1c0.2,1.4,0.4,2.8,0.7,4.1
		c0.2,1.3,0.4,2.6,0.6,3.6c0.2,1.1,0.3,1.9,0.4,2.6c0,0.3,0.1,0.6,0.1,0.7c0,0.2,0,0.3,0,0.3s0-0.1,0-0.3s-0.1-0.4-0.1-0.7
		c-0.1-0.6-0.2-1.5-0.4-2.5c-0.3-2.1-0.8-4.9-1.3-7.7c-0.2-1.4-0.5-2.8-0.7-4.1c-0.1-0.7-0.2-1.3-0.3-1.9c-0.1-0.3-0.1-0.6-0.2-0.9
		c0-0.1-0.1-0.3-0.1-0.4c0-0.1-0.1-0.3-0.1-0.4c-0.1-0.1-0.1-0.2-0.2-0.3s-0.2-0.1-0.3-0.1c-0.2,0-0.4,0-0.6,0c-0.4,0-0.7,0.1-1,0.1
		s-0.5,0-0.6,0s-0.2,0-0.2,0s-0.1,0-0.2,0s-0.3,0-0.5-0.1c-0.1,0-0.1,0-0.2,0h-0.1h-0.1c-0.1,0-0.1-0.1-0.2-0.1s-0.1-0.1-0.2-0.1
		c0,0-0.1,0-0.1-0.1c0,0-0.1,0-0.1-0.1c-0.1,0-0.1-0.1-0.2-0.1c-0.1-0.1-0.1-0.1-0.2-0.2c-0.1-0.1-0.1-0.1-0.2-0.2
		c-0.3-0.3-0.5-0.7-0.7-1.1c-0.2-0.4-0.3-0.9-0.4-1.4c0-0.1,0-0.3,0-0.4c0-0.1,0-0.3,0-0.4c0-0.1,0-0.1,0-0.2c0-0.1,0-0.1,0-0.2
		c0-0.1,0-0.3,0-0.4c0-0.5,0.1-1.1,0.3-1.6c0.2-0.5,0.4-1,0.8-1.4l0.1-0.1l0.2-0.1l0.1-0.1h0.1l0.2-0.1c0.1,0,0.1,0,0.2-0.1h0.1h0.1
		c0.1,0,0.1,0,0.2-0.1c0.1,0,0.1,0,0.2,0h0.1h0.1c0.1,0,0.1,0,0.2,0C396.7,201.9,396.7,201.9,396.8,201.9z M396.4,203.1
		c0.1,0,0.1,0,0.2,0c1,0,2,1.3,2.2,2.9c0.1,0.9,0,1.8-0.3,2.5s-0.7,1.1-1.2,1.2c-0.1,0-0.1,0-0.2,0c-1,0-2-1.3-2.2-2.9
		C394.7,204.9,395.3,203.3,396.4,203.1z"/>
	<path class="st22" d="M397.3,210.8c0,0,0,0,0.1,0H397.3z"/>
	<path class="st22" d="M401.2,209.3c0.2,0,0.4,0,0.7,0c0.3,0,0.5,0,0.7,0c0.1,0,0.2,0,0.2,0c0.1,0,0.1,0,0.1,0s0,0-0.1,0
		s-0.1,0-0.2,0c-0.2,0-0.4,0-0.7,0C401.7,209.2,401.4,209.2,401.2,209.3c-0.1-0.1-0.2,0-0.2,0c-0.1,0-0.1,0-0.1,0s0,0,0.1,0
		S401.2,209.3,401.2,209.3z"/>
	<path class="st22" d="M404.9,234.4c0,0.1,0,0.2,0,0.2S404.9,234.6,404.9,234.4c0-0.1,0-0.3,0.1-0.6c0-0.5,0-1.1,0-1.7
		c0-0.2,0-0.3,0-0.5c0-0.1,0-0.3,0-0.4c0-0.3,0-0.6,0-0.8c0-0.5,0-0.8,0-0.8s0,0.1,0,0.2c0,0.1,0,0.3-0.1,0.6c0,0.2,0,0.5-0.1,0.8
		c0,0.1,0,0.3,0,0.4c0,0.2,0,0.3,0,0.5c0,0.6,0,1.2,0,1.7C404.9,234.1,404.9,234.3,404.9,234.4z"/>
</g>
</svg>
