<svg xmlns="http://www.w3.org/2000/svg" version="1.1" xmlns:xlink="http://www.w3.org/1999/xlink" xmlns:svgjs="http://svgjs.dev/svgjs" width="1440" height="560" preserveAspectRatio="none" viewBox="0 0 1440 560"><g mask="url(&quot;#SvgjsMask1700&quot;)" fill="none"><rect width="1440" height="560" x="0" y="0" fill="url(&quot;#SvgjsRadialGradient1701&quot;)"></rect><path d="M194.41 156.21L285.34 208.71L285.34 313.71L194.41 366.21L103.47 313.71L103.47 208.71zM194.41 471.21L285.34 523.71L285.34 628.71L194.41 681.21L103.47 628.71L103.47 523.71zM103.47 628.71L194.41 681.21L194.41 786.21L103.47 838.71L12.53 786.21L12.53 681.21zM376.28 471.21L467.21 523.71L467.21 628.71L376.28 681.21L285.34 628.71L285.34 523.71zM285.34 628.71L376.28 681.21L376.28 786.21L285.34 838.71L194.41 786.21L194.41 681.21zM558.15 156.21L649.08 208.71L649.08 313.71L558.15 366.21L467.21 313.71L467.21 208.71zM467.21 313.71L558.15 366.21L558.15 471.21L467.21 523.71L376.28 471.21L376.28 366.21zM921.89 156.21L1012.82 208.71L1012.82 313.71L921.89 366.21L830.95 313.71L830.95 208.71zM830.95 628.71L921.89 681.21L921.89 786.21L830.95 838.71L740.02 786.21L740.02 681.21zM1012.82 -1.29L1103.76 51.21L1103.76 156.21L1012.82 208.71L921.89 156.21L921.89 51.21zM1103.76 156.21L1194.69 208.71L1194.69 313.71L1103.76 366.21L1012.82 313.71L1012.82 208.71zM1012.82 313.71L1103.76 366.21L1103.76 471.21L1012.82 523.71L921.89 471.21L921.89 366.21zM1012.82 628.71L1103.76 681.21L1103.76 786.21L1012.82 838.71L921.89 786.21L921.89 681.21zM1194.69 313.71L1285.63 366.21L1285.63 471.21L1194.69 523.71L1103.76 471.21L1103.76 366.21zM1194.69 628.71L1285.63 681.21L1285.63 786.21L1194.69 838.71L1103.76 786.21L1103.76 681.21zM1376.56 -1.29L1467.5 51.21L1467.5 156.21L1376.56 208.71L1285.63 156.21L1285.63 51.21zM1467.5 156.21L1558.43 208.71L1558.43 313.71L1467.5 366.21L1376.56 313.71L1376.56 208.71z" stroke="rgba(155, 27, 27, 1)" stroke-width="2"></path><path d="M183.91 156.21 a10.5 10.5 0 1 0 21 0 a10.5 10.5 0 1 0 -21 0zM274.84 208.71 a10.5 10.5 0 1 0 21 0 a10.5 10.5 0 1 0 -21 0zM274.84 313.71 a10.5 10.5 0 1 0 21 0 a10.5 10.5 0 1 0 -21 0zM183.91 366.21 a10.5 10.5 0 1 0 21 0 a10.5 10.5 0 1 0 -21 0zM92.97 313.71 a10.5 10.5 0 1 0 21 0 a10.5 10.5 0 1 0 -21 0zM92.97 208.71 a10.5 10.5 0 1 0 21 0 a10.5 10.5 0 1 0 -21 0zM183.91 471.21 a10.5 10.5 0 1 0 21 0 a10.5 10.5 0 1 0 -21 0zM274.84 523.71 a10.5 10.5 0 1 0 21 0 a10.5 10.5 0 1 0 -21 0zM274.84 628.71 a10.5 10.5 0 1 0 21 0 a10.5 10.5 0 1 0 -21 0zM183.91 681.21 a10.5 10.5 0 1 0 21 0 a10.5 10.5 0 1 0 -21 0zM92.97 628.71 a10.5 10.5 0 1 0 21 0 a10.5 10.5 0 1 0 -21 0zM92.97 523.71 a10.5 10.5 0 1 0 21 0 a10.5 10.5 0 1 0 -21 0zM183.91 786.21 a10.5 10.5 0 1 0 21 0 a10.5 10.5 0 1 0 -21 0zM92.97 838.71 a10.5 10.5 0 1 0 21 0 a10.5 10.5 0 1 0 -21 0zM2.03 786.21 a10.5 10.5 0 1 0 21 0 a10.5 10.5 0 1 0 -21 0zM2.03 681.21 a10.5 10.5 0 1 0 21 0 a10.5 10.5 0 1 0 -21 0zM365.78 471.21 a10.5 10.5 0 1 0 21 0 a10.5 10.5 0 1 0 -21 0zM456.71 523.71 a10.5 10.5 0 1 0 21 0 a10.5 10.5 0 1 0 -21 0zM456.71 628.71 a10.5 10.5 0 1 0 21 0 a10.5 10.5 0 1 0 -21 0zM365.78 681.21 a10.5 10.5 0 1 0 21 0 a10.5 10.5 0 1 0 -21 0zM365.78 786.21 a10.5 10.5 0 1 0 21 0 a10.5 10.5 0 1 0 -21 0zM274.84 838.71 a10.5 10.5 0 1 0 21 0 a10.5 10.5 0 1 0 -21 0zM547.65 156.21 a10.5 10.5 0 1 0 21 0 a10.5 10.5 0 1 0 -21 0zM638.58 208.71 a10.5 10.5 0 1 0 21 0 a10.5 10.5 0 1 0 -21 0zM638.58 313.71 a10.5 10.5 0 1 0 21 0 a10.5 10.5 0 1 0 -21 0zM547.65 366.21 a10.5 10.5 0 1 0 21 0 a10.5 10.5 0 1 0 -21 0zM456.71 313.71 a10.5 10.5 0 1 0 21 0 a10.5 10.5 0 1 0 -21 0zM456.71 208.71 a10.5 10.5 0 1 0 21 0 a10.5 10.5 0 1 0 -21 0zM547.65 471.21 a10.5 10.5 0 1 0 21 0 a10.5 10.5 0 1 0 -21 0zM365.78 366.21 a10.5 10.5 0 1 0 21 0 a10.5 10.5 0 1 0 -21 0zM911.39 156.21 a10.5 10.5 0 1 0 21 0 a10.5 10.5 0 1 0 -21 0zM1002.32 208.71 a10.5 10.5 0 1 0 21 0 a10.5 10.5 0 1 0 -21 0zM1002.32 313.71 a10.5 10.5 0 1 0 21 0 a10.5 10.5 0 1 0 -21 0zM911.39 366.21 a10.5 10.5 0 1 0 21 0 a10.5 10.5 0 1 0 -21 0zM820.45 313.71 a10.5 10.5 0 1 0 21 0 a10.5 10.5 0 1 0 -21 0zM820.45 208.71 a10.5 10.5 0 1 0 21 0 a10.5 10.5 0 1 0 -21 0zM820.45 628.71 a10.5 10.5 0 1 0 21 0 a10.5 10.5 0 1 0 -21 0zM911.39 681.21 a10.5 10.5 0 1 0 21 0 a10.5 10.5 0 1 0 -21 0zM911.39 786.21 a10.5 10.5 0 1 0 21 0 a10.5 10.5 0 1 0 -21 0zM820.45 838.71 a10.5 10.5 0 1 0 21 0 a10.5 10.5 0 1 0 -21 0zM729.52 786.21 a10.5 10.5 0 1 0 21 0 a10.5 10.5 0 1 0 -21 0zM729.52 681.21 a10.5 10.5 0 1 0 21 0 a10.5 10.5 0 1 0 -21 0zM1002.32 -1.29 a10.5 10.5 0 1 0 21 0 a10.5 10.5 0 1 0 -21 0zM1093.26 51.21 a10.5 10.5 0 1 0 21 0 a10.5 10.5 0 1 0 -21 0zM1093.26 156.21 a10.5 10.5 0 1 0 21 0 a10.5 10.5 0 1 0 -21 0zM911.39 51.21 a10.5 10.5 0 1 0 21 0 a10.5 10.5 0 1 0 -21 0zM1184.19 208.71 a10.5 10.5 0 1 0 21 0 a10.5 10.5 0 1 0 -21 0zM1184.19 313.71 a10.5 10.5 0 1 0 21 0 a10.5 10.5 0 1 0 -21 0zM1093.26 366.21 a10.5 10.5 0 1 0 21 0 a10.5 10.5 0 1 0 -21 0zM1093.26 471.21 a10.5 10.5 0 1 0 21 0 a10.5 10.5 0 1 0 -21 0zM1002.32 523.71 a10.5 10.5 0 1 0 21 0 a10.5 10.5 0 1 0 -21 0zM911.39 471.21 a10.5 10.5 0 1 0 21 0 a10.5 10.5 0 1 0 -21 0zM1002.32 628.71 a10.5 10.5 0 1 0 21 0 a10.5 10.5 0 1 0 -21 0zM1093.26 681.21 a10.5 10.5 0 1 0 21 0 a10.5 10.5 0 1 0 -21 0zM1093.26 786.21 a10.5 10.5 0 1 0 21 0 a10.5 10.5 0 1 0 -21 0zM1002.32 838.71 a10.5 10.5 0 1 0 21 0 a10.5 10.5 0 1 0 -21 0zM1275.13 366.21 a10.5 10.5 0 1 0 21 0 a10.5 10.5 0 1 0 -21 0zM1275.13 471.21 a10.5 10.5 0 1 0 21 0 a10.5 10.5 0 1 0 -21 0zM1184.19 523.71 a10.5 10.5 0 1 0 21 0 a10.5 10.5 0 1 0 -21 0zM1184.19 628.71 a10.5 10.5 0 1 0 21 0 a10.5 10.5 0 1 0 -21 0zM1275.13 681.21 a10.5 10.5 0 1 0 21 0 a10.5 10.5 0 1 0 -21 0zM1275.13 786.21 a10.5 10.5 0 1 0 21 0 a10.5 10.5 0 1 0 -21 0zM1184.19 838.71 a10.5 10.5 0 1 0 21 0 a10.5 10.5 0 1 0 -21 0zM1366.06 -1.29 a10.5 10.5 0 1 0 21 0 a10.5 10.5 0 1 0 -21 0zM1457 51.21 a10.5 10.5 0 1 0 21 0 a10.5 10.5 0 1 0 -21 0zM1457 156.21 a10.5 10.5 0 1 0 21 0 a10.5 10.5 0 1 0 -21 0zM1366.06 208.71 a10.5 10.5 0 1 0 21 0 a10.5 10.5 0 1 0 -21 0zM1275.13 156.21 a10.5 10.5 0 1 0 21 0 a10.5 10.5 0 1 0 -21 0zM1275.13 51.21 a10.5 10.5 0 1 0 21 0 a10.5 10.5 0 1 0 -21 0zM1547.93 208.71 a10.5 10.5 0 1 0 21 0 a10.5 10.5 0 1 0 -21 0zM1547.93 313.71 a10.5 10.5 0 1 0 21 0 a10.5 10.5 0 1 0 -21 0zM1457 366.21 a10.5 10.5 0 1 0 21 0 a10.5 10.5 0 1 0 -21 0zM1366.06 313.71 a10.5 10.5 0 1 0 21 0 a10.5 10.5 0 1 0 -21 0z" fill="rgba(155, 27, 27, 1)"></path><path d="M48.66 -19.96L98.89 9.04L98.89 67.04L48.66 96.04L-1.57 67.04L-1.57 9.04zM48.66 154.04L98.89 183.04L98.89 241.04L48.66 270.04L-1.57 241.04L-1.57 183.04zM199.35 241.04L249.58 270.04L249.58 328.04L199.35 357.04L149.12 328.04L149.12 270.04zM149.12 502.04L199.35 531.04L199.35 589.04L149.12 618.04L98.89 589.04L98.89 531.04zM249.58 502.04L299.81 531.04L299.81 589.04L249.58 618.04L199.35 589.04L199.35 531.04zM350.05 154.04L400.28 183.04L400.28 241.04L350.05 270.04L299.81 241.04L299.81 183.04zM400.28 241.04L450.51 270.04L450.51 328.04L400.28 357.04L350.05 328.04L350.05 270.04zM450.51 -19.96L500.74 9.04L500.74 67.04L450.51 96.04L400.28 67.04L400.28 9.04zM500.74 67.04L550.97 96.04L550.97 154.04L500.74 183.04L450.51 154.04L450.51 96.04zM450.51 328.04L500.74 357.04L500.74 415.04L450.51 444.04L400.28 415.04L400.28 357.04zM450.51 502.04L500.74 531.04L500.74 589.04L450.51 618.04L400.28 589.04L400.28 531.04zM550.97 154.04L601.2 183.04L601.2 241.04L550.97 270.04L500.74 241.04L500.74 183.04zM601.2 241.04L651.43 270.04L651.43 328.04L601.2 357.04L550.97 328.04L550.97 270.04zM601.2 415.04L651.43 444.04L651.43 502.04L601.2 531.04L550.97 502.04L550.97 444.04zM651.43 502.04L701.66 531.04L701.66 589.04L651.43 618.04L601.2 589.04L601.2 531.04zM751.89 328.04L802.12 357.04L802.12 415.04L751.89 444.04L701.66 415.04L701.66 357.04zM802.12 415.04L852.35 444.04L852.35 502.04L802.12 531.04L751.89 502.04L751.89 444.04zM902.59 241.04L952.82 270.04L952.82 328.04L902.59 357.04L852.35 328.04L852.35 270.04zM852.35 502.04L902.59 531.04L902.59 589.04L852.35 618.04L802.12 589.04L802.12 531.04zM1003.05 241.04L1053.28 270.04L1053.28 328.04L1003.05 357.04L952.82 328.04L952.82 270.04zM1053.28 154.04L1103.51 183.04L1103.51 241.04L1053.28 270.04L1003.05 241.04L1003.05 183.04zM1103.51 415.04L1153.74 444.04L1153.74 502.04L1103.51 531.04L1053.28 502.04L1053.28 444.04zM1053.28 502.04L1103.51 531.04L1103.51 589.04L1053.28 618.04L1003.05 589.04L1003.05 531.04zM1153.74 154.04L1203.97 183.04L1203.97 241.04L1153.74 270.04L1103.51 241.04L1103.51 183.04zM1153.74 328.04L1203.97 357.04L1203.97 415.04L1153.74 444.04L1103.51 415.04L1103.51 357.04zM1254.2 -19.96L1304.43 9.04L1304.43 67.04L1254.2 96.04L1203.97 67.04L1203.97 9.04zM1404.89 67.04L1455.13 96.04L1455.13 154.04L1404.89 183.04L1354.66 154.04L1354.66 96.04zM1354.66 154.04L1404.89 183.04L1404.89 241.04L1354.66 270.04L1304.43 241.04L1304.43 183.04zM1354.66 328.04L1404.89 357.04L1404.89 415.04L1354.66 444.04L1304.43 415.04L1304.43 357.04zM1455.13 154.04L1505.36 183.04L1505.36 241.04L1455.13 270.04L1404.89 241.04L1404.89 183.04z" stroke="rgba(168, 23, 23, 1)" stroke-width="2"></path></g><defs><mask id="SvgjsMask1700"><rect width="1440" height="560" fill="#ffffff"></rect></mask><radialGradient cx="50%" cy="50%" r="772.53" gradientUnits="userSpaceOnUse" id="SvgjsRadialGradient1701"><stop stop-color="rgba(50, 2, 6, 1)" offset="0"></stop><stop stop-color="rgba(155, 27, 27, 1)" offset="1"></stop></radialGradient></defs></svg>