<svg xmlns="http://www.w3.org/2000/svg" version="1.1" xmlns:xlink="http://www.w3.org/1999/xlink" xmlns:svgjs="http://svgjs.dev/svgjs" width="1440" height="560" preserveAspectRatio="none" viewBox="0 0 1440 560" style="rotate: 180deg;transform: scaleX(-1);"><g mask="url(&quot;#SvgjsMask1082&quot;)" fill="none"><rect width="1440" height="560" x="0" y="0" fill="rgba(77, 4, 4, 1)"></rect><path d="M-42.56 349.51L-42.56 349.51" stroke="rgba(117, 11, 11, 1)" stroke-width="1.5"></path><path d="M-42.56 349.51L89.01 411.97" stroke="rgba(117, 11, 11, 1)" stroke-width="1.5"></path><path d="M-42.56 349.51L-102.6 512.65" stroke="rgba(117, 11, 11, 1)" stroke-width="1.5"></path><path d="M-102.6 512.65L-102.6 512.65" stroke="rgba(117, 11, 11, 1)" stroke-width="1.5"></path><path d="M-102.6 512.65L-74.92 676.69" stroke="rgba(117, 11, 11, 1)" stroke-width="1.5"></path><path d="M-102.6 512.65L109.31 530.36" stroke="rgba(117, 11, 11, 1)" stroke-width="1.5"></path><path d="M-102.6 512.65L89.01 411.97" stroke="rgba(117, 11, 11, 1)" stroke-width="1.5"></path><path d="M-102.6 512.65L71.73 670.28" stroke="rgba(117, 11, 11, 1)" stroke-width="1.5"></path><path d="M-102.6 512.65L227.05 488.6" stroke="rgba(117, 11, 11, 1)" stroke-width="1.5"></path><path d="M-74.92 676.69L-74.92 676.69" stroke="rgba(117, 11, 11, 1)" stroke-width="1.5"></path><path d="M-74.92 676.69L71.73 670.28" stroke="rgba(117, 11, 11, 1)" stroke-width="1.5"></path><path d="M89.01 411.97L89.01 411.97" stroke="rgba(117, 11, 11, 1)" stroke-width="1.5"></path><path d="M89.01 411.97L109.31 530.36" stroke="rgba(117, 11, 11, 1)" stroke-width="1.5"></path><path d="M89.01 411.97L223.86 352.91" stroke="rgba(117, 11, 11, 1)" stroke-width="1.5"></path><path d="M89.01 411.97L227.05 488.6" stroke="rgba(117, 11, 11, 1)" stroke-width="1.5"></path><path d="M109.31 530.36L109.31 530.36" stroke="rgba(117, 11, 11, 1)" stroke-width="1.5"></path><path d="M109.31 530.36L227.05 488.6" stroke="rgba(117, 11, 11, 1)" stroke-width="1.5"></path><path d="M109.31 530.36L71.73 670.28" stroke="rgba(117, 11, 11, 1)" stroke-width="1.5"></path><path d="M109.31 530.36L257.8 653.58" stroke="rgba(117, 11, 11, 1)" stroke-width="1.5"></path><path d="M109.31 530.36L223.86 352.91" stroke="rgba(117, 11, 11, 1)" stroke-width="1.5"></path><path d="M71.73 670.28L71.73 670.28" stroke="rgba(117, 11, 11, 1)" stroke-width="1.5"></path><path d="M71.73 670.28L257.8 653.58" stroke="rgba(117, 11, 11, 1)" stroke-width="1.5"></path><path d="M223.86 352.91L223.86 352.91" stroke="rgba(117, 11, 11, 1)" stroke-width="1.5"></path><path d="M223.86 352.91L227.05 488.6" stroke="rgba(117, 11, 11, 1)" stroke-width="1.5"></path><path d="M223.86 352.91L367.07 405.88" stroke="rgba(117, 11, 11, 1)" stroke-width="1.5"></path><path d="M227.05 488.6L227.05 488.6" stroke="rgba(117, 11, 11, 1)" stroke-width="1.5"></path><path d="M227.05 488.6L385.85 516.65" stroke="rgba(117, 11, 11, 1)" stroke-width="1.5"></path><path d="M227.05 488.6L367.07 405.88" stroke="rgba(117, 11, 11, 1)" stroke-width="1.5"></path><path d="M257.8 653.58L257.8 653.58" stroke="rgba(117, 11, 11, 1)" stroke-width="1.5"></path><path d="M257.8 653.58L410.56 647.73" stroke="rgba(117, 11, 11, 1)" stroke-width="1.5"></path><path d="M257.8 653.58L227.05 488.6" stroke="rgba(117, 11, 11, 1)" stroke-width="1.5"></path><path d="M367.07 405.88L367.07 405.88" stroke="rgba(117, 11, 11, 1)" stroke-width="1.5"></path><path d="M367.07 405.88L385.85 516.65" stroke="rgba(117, 11, 11, 1)" stroke-width="1.5"></path><path d="M367.07 405.88L529.53 356.07" stroke="rgba(117, 11, 11, 1)" stroke-width="1.5"></path><path d="M367.07 405.88L538.87 502.4" stroke="rgba(117, 11, 11, 1)" stroke-width="1.5"></path><path d="M367.07 405.88L410.56 647.73" stroke="rgba(117, 11, 11, 1)" stroke-width="1.5"></path><path d="M385.85 516.65L385.85 516.65" stroke="rgba(117, 11, 11, 1)" stroke-width="1.5"></path><path d="M385.85 516.65L410.56 647.73" stroke="rgba(117, 11, 11, 1)" stroke-width="1.5"></path><path d="M385.85 516.65L538.87 502.4" stroke="rgba(117, 11, 11, 1)" stroke-width="1.5"></path><path d="M385.85 516.65L495.41 666.97" stroke="rgba(117, 11, 11, 1)" stroke-width="1.5"></path><path d="M410.56 647.73L410.56 647.73" stroke="rgba(117, 11, 11, 1)" stroke-width="1.5"></path><path d="M410.56 647.73L495.41 666.97" stroke="rgba(117, 11, 11, 1)" stroke-width="1.5"></path><path d="M529.53 356.07L529.53 356.07" stroke="rgba(117, 11, 11, 1)" stroke-width="1.5"></path><path d="M529.53 356.07L538.87 502.4" stroke="rgba(117, 11, 11, 1)" stroke-width="1.5"></path><path d="M529.53 356.07L677.54 357.64" stroke="rgba(117, 11, 11, 1)" stroke-width="1.5"></path><path d="M538.87 502.4L538.87 502.4" stroke="rgba(117, 11, 11, 1)" stroke-width="1.5"></path><path d="M538.87 502.4L683.59 517.4" stroke="rgba(117, 11, 11, 1)" stroke-width="1.5"></path><path d="M538.87 502.4L495.41 666.97" stroke="rgba(117, 11, 11, 1)" stroke-width="1.5"></path><path d="M495.41 666.97L495.41 666.97" stroke="rgba(117, 11, 11, 1)" stroke-width="1.5"></path><path d="M495.41 666.97L702.85 671.28" stroke="rgba(117, 11, 11, 1)" stroke-width="1.5"></path><path d="M495.41 666.97L257.8 653.58" stroke="rgba(117, 11, 11, 1)" stroke-width="1.5"></path><path d="M495.41 666.97L683.59 517.4" stroke="rgba(117, 11, 11, 1)" stroke-width="1.5"></path><path d="M692.86 222.18L692.86 222.18" stroke="rgba(117, 11, 11, 1)" stroke-width="1.5"></path><path d="M692.86 222.18L790.99 241.56" stroke="rgba(117, 11, 11, 1)" stroke-width="1.5"></path><path d="M692.86 222.18L677.54 357.64" stroke="rgba(117, 11, 11, 1)" stroke-width="1.5"></path><path d="M692.86 222.18L829.61 339.42" stroke="rgba(117, 11, 11, 1)" stroke-width="1.5"></path><path d="M692.86 222.18L851.38 97.16" stroke="rgba(117, 11, 11, 1)" stroke-width="1.5"></path><path d="M692.86 222.18L529.53 356.07" stroke="rgba(117, 11, 11, 1)" stroke-width="1.5"></path><path d="M692.86 222.18L949.53 104" stroke="rgba(117, 11, 11, 1)" stroke-width="1.5"></path><path d="M677.54 357.64L677.54 357.64" stroke="rgba(117, 11, 11, 1)" stroke-width="1.5"></path><path d="M677.54 357.64L829.61 339.42" stroke="rgba(117, 11, 11, 1)" stroke-width="1.5"></path><path d="M677.54 357.64L683.59 517.4" stroke="rgba(117, 11, 11, 1)" stroke-width="1.5"></path><path d="M677.54 357.64L790.99 241.56" stroke="rgba(117, 11, 11, 1)" stroke-width="1.5"></path><path d="M677.54 357.64L538.87 502.4" stroke="rgba(117, 11, 11, 1)" stroke-width="1.5"></path><path d="M683.59 517.4L683.59 517.4" stroke="rgba(117, 11, 11, 1)" stroke-width="1.5"></path><path d="M683.59 517.4L702.85 671.28" stroke="rgba(117, 11, 11, 1)" stroke-width="1.5"></path><path d="M702.85 671.28L702.85 671.28" stroke="rgba(117, 11, 11, 1)" stroke-width="1.5"></path><path d="M702.85 671.28L856.52 550.22" stroke="rgba(117, 11, 11, 1)" stroke-width="1.5"></path><path d="M851.38 97.16L851.38 97.16" stroke="rgba(117, 11, 11, 1)" stroke-width="1.5"></path><path d="M851.38 97.16L949.53 104" stroke="rgba(117, 11, 11, 1)" stroke-width="1.5"></path><path d="M851.38 97.16L790.99 241.56" stroke="rgba(117, 11, 11, 1)" stroke-width="1.5"></path><path d="M851.38 97.16L1009.86 191.85" stroke="rgba(117, 11, 11, 1)" stroke-width="1.5"></path><path d="M790.99 241.56L790.99 241.56" stroke="rgba(117, 11, 11, 1)" stroke-width="1.5"></path><path d="M790.99 241.56L829.61 339.42" stroke="rgba(117, 11, 11, 1)" stroke-width="1.5"></path><path d="M790.99 241.56L949.53 104" stroke="rgba(117, 11, 11, 1)" stroke-width="1.5"></path><path d="M829.61 339.42L829.61 339.42" stroke="rgba(117, 11, 11, 1)" stroke-width="1.5"></path><path d="M829.61 339.42L961.15 381.08" stroke="rgba(117, 11, 11, 1)" stroke-width="1.5"></path><path d="M856.52 550.22L856.52 550.22" stroke="rgba(117, 11, 11, 1)" stroke-width="1.5"></path><path d="M856.52 550.22L944.72 510.87" stroke="rgba(117, 11, 11, 1)" stroke-width="1.5"></path><path d="M856.52 550.22L683.59 517.4" stroke="rgba(117, 11, 11, 1)" stroke-width="1.5"></path><path d="M856.52 550.22L966.7 697.3" stroke="rgba(117, 11, 11, 1)" stroke-width="1.5"></path><path d="M991.7 -59.41L991.7 -59.41" stroke="rgba(117, 11, 11, 1)" stroke-width="1.5"></path><path d="M991.7 -59.41L1092.4 -86.72" stroke="rgba(117, 11, 11, 1)" stroke-width="1.5"></path><path d="M991.7 -59.41L949.53 104" stroke="rgba(117, 11, 11, 1)" stroke-width="1.5"></path><path d="M991.7 -59.41L1106.22 68.22" stroke="rgba(117, 11, 11, 1)" stroke-width="1.5"></path><path d="M991.7 -59.41L851.38 97.16" stroke="rgba(117, 11, 11, 1)" stroke-width="1.5"></path><path d="M991.7 -59.41L1009.86 191.85" stroke="rgba(117, 11, 11, 1)" stroke-width="1.5"></path><path d="M991.7 -59.41L1247.42 85.29" stroke="rgba(117, 11, 11, 1)" stroke-width="1.5"></path><path d="M949.53 104L949.53 104" stroke="rgba(117, 11, 11, 1)" stroke-width="1.5"></path><path d="M949.53 104L1009.86 191.85" stroke="rgba(117, 11, 11, 1)" stroke-width="1.5"></path><path d="M949.53 104L1106.22 68.22" stroke="rgba(117, 11, 11, 1)" stroke-width="1.5"></path><path d="M1009.86 191.85L1009.86 191.85" stroke="rgba(117, 11, 11, 1)" stroke-width="1.5"></path><path d="M1009.86 191.85L1106.22 68.22" stroke="rgba(117, 11, 11, 1)" stroke-width="1.5"></path><path d="M1009.86 191.85L1156.41 260.56" stroke="rgba(117, 11, 11, 1)" stroke-width="1.5"></path><path d="M1009.86 191.85L961.15 381.08" stroke="rgba(117, 11, 11, 1)" stroke-width="1.5"></path><path d="M1009.86 191.85L1125.07 380.79" stroke="rgba(117, 11, 11, 1)" stroke-width="1.5"></path><path d="M961.15 381.08L961.15 381.08" stroke="rgba(117, 11, 11, 1)" stroke-width="1.5"></path><path d="M961.15 381.08L944.72 510.87" stroke="rgba(117, 11, 11, 1)" stroke-width="1.5"></path><path d="M961.15 381.08L1125.07 380.79" stroke="rgba(117, 11, 11, 1)" stroke-width="1.5"></path><path d="M961.15 381.08L856.52 550.22" stroke="rgba(117, 11, 11, 1)" stroke-width="1.5"></path><path d="M961.15 381.08L790.99 241.56" stroke="rgba(117, 11, 11, 1)" stroke-width="1.5"></path><path d="M944.72 510.87L944.72 510.87" stroke="rgba(117, 11, 11, 1)" stroke-width="1.5"></path><path d="M944.72 510.87L1112 559.36" stroke="rgba(117, 11, 11, 1)" stroke-width="1.5"></path><path d="M944.72 510.87L966.7 697.3" stroke="rgba(117, 11, 11, 1)" stroke-width="1.5"></path><path d="M944.72 510.87L829.61 339.42" stroke="rgba(117, 11, 11, 1)" stroke-width="1.5"></path><path d="M966.7 697.3L966.7 697.3" stroke="rgba(117, 11, 11, 1)" stroke-width="1.5"></path><path d="M966.7 697.3L1122.62 650.85" stroke="rgba(117, 11, 11, 1)" stroke-width="1.5"></path><path d="M966.7 697.3L1112 559.36" stroke="rgba(117, 11, 11, 1)" stroke-width="1.5"></path><path d="M966.7 697.3L702.85 671.28" stroke="rgba(117, 11, 11, 1)" stroke-width="1.5"></path><path d="M966.7 697.3L1246.74 553.79" stroke="rgba(117, 11, 11, 1)" stroke-width="1.5"></path><path d="M1092.4 -86.72L1092.4 -86.72" stroke="rgba(117, 11, 11, 1)" stroke-width="1.5"></path><path d="M1092.4 -86.72L1106.22 68.22" stroke="rgba(117, 11, 11, 1)" stroke-width="1.5"></path><path d="M1092.4 -86.72L1300.4 -37.9" stroke="rgba(117, 11, 11, 1)" stroke-width="1.5"></path><path d="M1092.4 -86.72L1247.42 85.29" stroke="rgba(117, 11, 11, 1)" stroke-width="1.5"></path><path d="M1092.4 -86.72L949.53 104" stroke="rgba(117, 11, 11, 1)" stroke-width="1.5"></path><path d="M1106.22 68.22L1106.22 68.22" stroke="rgba(117, 11, 11, 1)" stroke-width="1.5"></path><path d="M1106.22 68.22L1247.42 85.29" stroke="rgba(117, 11, 11, 1)" stroke-width="1.5"></path><path d="M1156.41 260.56L1156.41 260.56" stroke="rgba(117, 11, 11, 1)" stroke-width="1.5"></path><path d="M1156.41 260.56L1125.07 380.79" stroke="rgba(117, 11, 11, 1)" stroke-width="1.5"></path><path d="M1156.41 260.56L1311.48 212.15" stroke="rgba(117, 11, 11, 1)" stroke-width="1.5"></path><path d="M1156.41 260.56L1309.56 376.02" stroke="rgba(117, 11, 11, 1)" stroke-width="1.5"></path><path d="M1125.07 380.79L1125.07 380.79" stroke="rgba(117, 11, 11, 1)" stroke-width="1.5"></path><path d="M1125.07 380.79L1112 559.36" stroke="rgba(117, 11, 11, 1)" stroke-width="1.5"></path><path d="M1125.07 380.79L1309.56 376.02" stroke="rgba(117, 11, 11, 1)" stroke-width="1.5"></path><path d="M1125.07 380.79L1246.74 553.79" stroke="rgba(117, 11, 11, 1)" stroke-width="1.5"></path><path d="M1112 559.36L1112 559.36" stroke="rgba(117, 11, 11, 1)" stroke-width="1.5"></path><path d="M1112 559.36L1122.62 650.85" stroke="rgba(117, 11, 11, 1)" stroke-width="1.5"></path><path d="M1112 559.36L1246.74 553.79" stroke="rgba(117, 11, 11, 1)" stroke-width="1.5"></path><path d="M1112 559.36L961.15 381.08" stroke="rgba(117, 11, 11, 1)" stroke-width="1.5"></path><path d="M1122.62 650.85L1122.62 650.85" stroke="rgba(117, 11, 11, 1)" stroke-width="1.5"></path><path d="M1122.62 650.85L1246.74 553.79" stroke="rgba(117, 11, 11, 1)" stroke-width="1.5"></path><path d="M1300.4 -37.9L1300.4 -37.9" stroke="rgba(117, 11, 11, 1)" stroke-width="1.5"></path><path d="M1300.4 -37.9L1247.42 85.29" stroke="rgba(117, 11, 11, 1)" stroke-width="1.5"></path><path d="M1300.4 -37.9L1432.41 -74.39" stroke="rgba(117, 11, 11, 1)" stroke-width="1.5"></path><path d="M1247.42 85.29L1247.42 85.29" stroke="rgba(117, 11, 11, 1)" stroke-width="1.5"></path><path d="M1247.42 85.29L1311.48 212.15" stroke="rgba(117, 11, 11, 1)" stroke-width="1.5"></path><path d="M1311.48 212.15L1311.48 212.15" stroke="rgba(117, 11, 11, 1)" stroke-width="1.5"></path><path d="M1311.48 212.15L1416.63 105.2" stroke="rgba(117, 11, 11, 1)" stroke-width="1.5"></path><path d="M1311.48 212.15L1457.7 246.87" stroke="rgba(117, 11, 11, 1)" stroke-width="1.5"></path><path d="M1311.48 212.15L1309.56 376.02" stroke="rgba(117, 11, 11, 1)" stroke-width="1.5"></path><path d="M1311.48 212.15L1437.06 397.94" stroke="rgba(117, 11, 11, 1)" stroke-width="1.5"></path><path d="M1309.56 376.02L1309.56 376.02" stroke="rgba(117, 11, 11, 1)" stroke-width="1.5"></path><path d="M1309.56 376.02L1437.06 397.94" stroke="rgba(117, 11, 11, 1)" stroke-width="1.5"></path><path d="M1309.56 376.02L1246.74 553.79" stroke="rgba(117, 11, 11, 1)" stroke-width="1.5"></path><path d="M1246.74 553.79L1246.74 553.79" stroke="rgba(117, 11, 11, 1)" stroke-width="1.5"></path><path d="M1246.74 553.79L1304.86 699.92" stroke="rgba(117, 11, 11, 1)" stroke-width="1.5"></path><path d="M1304.86 699.92L1304.86 699.92" stroke="rgba(117, 11, 11, 1)" stroke-width="1.5"></path><path d="M1304.86 699.92L1416.75 643.63" stroke="rgba(117, 11, 11, 1)" stroke-width="1.5"></path><path d="M1304.86 699.92L1122.62 650.85" stroke="rgba(117, 11, 11, 1)" stroke-width="1.5"></path><path d="M1432.41 -74.39L1432.41 -74.39" stroke="rgba(117, 11, 11, 1)" stroke-width="1.5"></path><path d="M1432.41 -74.39L1543.56 -106.59" stroke="rgba(117, 11, 11, 1)" stroke-width="1.5"></path><path d="M1432.41 -74.39L1416.63 105.2" stroke="rgba(117, 11, 11, 1)" stroke-width="1.5"></path><path d="M1432.41 -74.39L1561.41 96.27" stroke="rgba(117, 11, 11, 1)" stroke-width="1.5"></path><path d="M1432.41 -74.39L1247.42 85.29" stroke="rgba(117, 11, 11, 1)" stroke-width="1.5"></path><path d="M1416.63 105.2L1416.63 105.2" stroke="rgba(117, 11, 11, 1)" stroke-width="1.5"></path><path d="M1416.63 105.2L1561.41 96.27" stroke="rgba(117, 11, 11, 1)" stroke-width="1.5"></path><path d="M1416.63 105.2L1457.7 246.87" stroke="rgba(117, 11, 11, 1)" stroke-width="1.5"></path><path d="M1416.63 105.2L1247.42 85.29" stroke="rgba(117, 11, 11, 1)" stroke-width="1.5"></path><path d="M1457.7 246.87L1457.7 246.87" stroke="rgba(117, 11, 11, 1)" stroke-width="1.5"></path><path d="M1457.7 246.87L1552.01 230.79" stroke="rgba(117, 11, 11, 1)" stroke-width="1.5"></path><path d="M1457.7 246.87L1560.82 337.86" stroke="rgba(117, 11, 11, 1)" stroke-width="1.5"></path><path d="M1457.7 246.87L1437.06 397.94" stroke="rgba(117, 11, 11, 1)" stroke-width="1.5"></path><path d="M1457.7 246.87L1561.41 96.27" stroke="rgba(117, 11, 11, 1)" stroke-width="1.5"></path><path d="M1437.06 397.94L1437.06 397.94" stroke="rgba(117, 11, 11, 1)" stroke-width="1.5"></path><path d="M1437.06 397.94L1560.82 337.86" stroke="rgba(117, 11, 11, 1)" stroke-width="1.5"></path><path d="M1437.06 397.94L1569.66 545.39" stroke="rgba(117, 11, 11, 1)" stroke-width="1.5"></path><path d="M1437.06 397.94L1552.01 230.79" stroke="rgba(117, 11, 11, 1)" stroke-width="1.5"></path><path d="M1416.75 643.63L1416.75 643.63" stroke="rgba(117, 11, 11, 1)" stroke-width="1.5"></path><path d="M1416.75 643.63L1541.59 699.84" stroke="rgba(117, 11, 11, 1)" stroke-width="1.5"></path><path d="M1416.75 643.63L1569.66 545.39" stroke="rgba(117, 11, 11, 1)" stroke-width="1.5"></path><path d="M1416.75 643.63L1246.74 553.79" stroke="rgba(117, 11, 11, 1)" stroke-width="1.5"></path><path d="M1416.75 643.63L1437.06 397.94" stroke="rgba(117, 11, 11, 1)" stroke-width="1.5"></path><path d="M1416.75 643.63L1309.56 376.02" stroke="rgba(117, 11, 11, 1)" stroke-width="1.5"></path><path d="M1543.56 -106.59L1543.56 -106.59" stroke="rgba(117, 11, 11, 1)" stroke-width="1.5"></path><path d="M1543.56 -106.59L1561.41 96.27" stroke="rgba(117, 11, 11, 1)" stroke-width="1.5"></path><path d="M1561.41 96.27L1561.41 96.27" stroke="rgba(117, 11, 11, 1)" stroke-width="1.5"></path><path d="M1561.41 96.27L1552.01 230.79" stroke="rgba(117, 11, 11, 1)" stroke-width="1.5"></path><path d="M1552.01 230.79L1552.01 230.79" stroke="rgba(117, 11, 11, 1)" stroke-width="1.5"></path><path d="M1552.01 230.79L1560.82 337.86" stroke="rgba(117, 11, 11, 1)" stroke-width="1.5"></path><path d="M1552.01 230.79L1416.63 105.2" stroke="rgba(117, 11, 11, 1)" stroke-width="1.5"></path><path d="M1552.01 230.79L1311.48 212.15" stroke="rgba(117, 11, 11, 1)" stroke-width="1.5"></path><path d="M1560.82 337.86L1560.82 337.86" stroke="rgba(117, 11, 11, 1)" stroke-width="1.5"></path><path d="M1560.82 337.86L1569.66 545.39" stroke="rgba(117, 11, 11, 1)" stroke-width="1.5"></path><path d="M1569.66 545.39L1569.66 545.39" stroke="rgba(117, 11, 11, 1)" stroke-width="1.5"></path><path d="M1569.66 545.39L1541.59 699.84" stroke="rgba(117, 11, 11, 1)" stroke-width="1.5"></path><path d="M1569.66 545.39L1304.86 699.92" stroke="rgba(117, 11, 11, 1)" stroke-width="1.5"></path><path d="M1541.59 699.84L1541.59 699.84" stroke="rgba(117, 11, 11, 1)" stroke-width="1.5"></path><circle r="5" cx="-42.56" cy="349.51" fill="rgba(117, 11, 11, 1)"></circle><circle r="5" cx="-102.6" cy="512.65" fill="rgba(117, 11, 11, 1)"></circle><circle r="5" cx="-74.92" cy="676.69" fill="rgba(117, 11, 11, 1)"></circle><circle r="5" cx="89.01" cy="411.97" fill="rgba(117, 11, 11, 1)"></circle><circle r="5" cx="109.31" cy="530.36" fill="rgba(117, 11, 11, 1)"></circle><circle r="5" cx="71.73" cy="670.28" fill="rgba(117, 11, 11, 1)"></circle><circle r="5" cx="223.86" cy="352.91" fill="rgba(117, 11, 11, 1)"></circle><circle r="5" cx="227.05" cy="488.6" fill="rgba(117, 11, 11, 1)"></circle><circle r="5" cx="257.8" cy="653.58" fill="rgba(117, 11, 11, 1)"></circle><circle r="5" cx="367.07" cy="405.88" fill="rgba(117, 11, 11, 1)"></circle><circle r="5" cx="385.85" cy="516.65" fill="rgba(117, 11, 11, 1)"></circle><circle r="5" cx="410.56" cy="647.73" fill="rgba(117, 11, 11, 1)"></circle><circle r="5" cx="529.53" cy="356.07" fill="rgba(117, 11, 11, 1)"></circle><circle r="5" cx="538.87" cy="502.4" fill="rgba(117, 11, 11, 1)"></circle><circle r="5" cx="495.41" cy="666.97" fill="rgba(117, 11, 11, 1)"></circle><circle r="5" cx="692.86" cy="222.18" fill="rgba(117, 11, 11, 1)"></circle><circle r="5" cx="677.54" cy="357.64" fill="rgba(117, 11, 11, 1)"></circle><circle r="5" cx="683.59" cy="517.4" fill="rgba(117, 11, 11, 1)"></circle><circle r="5" cx="702.85" cy="671.28" fill="rgba(117, 11, 11, 1)"></circle><circle r="5" cx="851.38" cy="97.16" fill="rgba(117, 11, 11, 1)"></circle><circle r="5" cx="790.99" cy="241.56" fill="rgba(117, 11, 11, 1)"></circle><circle r="5" cx="829.61" cy="339.42" fill="rgba(117, 11, 11, 1)"></circle><circle r="5" cx="856.52" cy="550.22" fill="rgba(117, 11, 11, 1)"></circle><circle r="5" cx="991.7" cy="-59.41" fill="rgba(117, 11, 11, 1)"></circle><circle r="5" cx="949.53" cy="104" fill="rgba(117, 11, 11, 1)"></circle><circle r="5" cx="1009.86" cy="191.85" fill="rgba(117, 11, 11, 1)"></circle><circle r="5" cx="961.15" cy="381.08" fill="rgba(117, 11, 11, 1)"></circle><circle r="5" cx="944.72" cy="510.87" fill="rgba(117, 11, 11, 1)"></circle><circle r="5" cx="966.7" cy="697.3" fill="rgba(117, 11, 11, 1)"></circle><circle r="5" cx="1092.4" cy="-86.72" fill="rgba(117, 11, 11, 1)"></circle><circle r="5" cx="1106.22" cy="68.22" fill="rgba(117, 11, 11, 1)"></circle><circle r="5" cx="1156.41" cy="260.56" fill="rgba(117, 11, 11, 1)"></circle><circle r="5" cx="1125.07" cy="380.79" fill="rgba(117, 11, 11, 1)"></circle><circle r="5" cx="1112" cy="559.36" fill="rgba(117, 11, 11, 1)"></circle><circle r="5" cx="1122.62" cy="650.85" fill="rgba(117, 11, 11, 1)"></circle><circle r="5" cx="1300.4" cy="-37.9" fill="rgba(117, 11, 11, 1)"></circle><circle r="5" cx="1247.42" cy="85.29" fill="rgba(117, 11, 11, 1)"></circle><circle r="5" cx="1311.48" cy="212.15" fill="rgba(117, 11, 11, 1)"></circle><circle r="5" cx="1309.56" cy="376.02" fill="rgba(117, 11, 11, 1)"></circle><circle r="5" cx="1246.74" cy="553.79" fill="rgba(117, 11, 11, 1)"></circle><circle r="5" cx="1304.86" cy="699.92" fill="rgba(117, 11, 11, 1)"></circle><circle r="5" cx="1432.41" cy="-74.39" fill="rgba(117, 11, 11, 1)"></circle><circle r="5" cx="1416.63" cy="105.2" fill="rgba(117, 11, 11, 1)"></circle><circle r="5" cx="1457.7" cy="246.87" fill="rgba(117, 11, 11, 1)"></circle><circle r="5" cx="1437.06" cy="397.94" fill="rgba(117, 11, 11, 1)"></circle><circle r="5" cx="1416.75" cy="643.63" fill="rgba(117, 11, 11, 1)"></circle><circle r="5" cx="1543.56" cy="-106.59" fill="rgba(117, 11, 11, 1)"></circle><circle r="5" cx="1561.41" cy="96.27" fill="rgba(117, 11, 11, 1)"></circle><circle r="5" cx="1552.01" cy="230.79" fill="rgba(117, 11, 11, 1)"></circle><circle r="5" cx="1560.82" cy="337.86" fill="rgba(117, 11, 11, 1)"></circle><circle r="5" cx="1569.66" cy="545.39" fill="rgba(117, 11, 11, 1)"></circle><circle r="5" cx="1541.59" cy="699.84" fill="rgba(117, 11, 11, 1)"></circle><path d="M-68.67 703.05L-68.67 703.05" stroke="hsl(0, 70.5%, 53.5%)" stroke-width="1.5"></path><path d="M-68.67 703.05L98.17 681" stroke="hsl(0, 70.5%, 53.5%)" stroke-width="1.5"></path><path d="M-68.67 703.05L-102.37 504.09" stroke="hsl(0, 70.5%, 53.5%)" stroke-width="1.5"></path><path d="M-68.67 703.05L103.1 535.43" stroke="hsl(0, 70.5%, 53.5%)" stroke-width="1.5"></path><path d="M-68.67 703.05L192.34 685.49" stroke="hsl(0, 70.5%, 53.5%)" stroke-width="1.5"></path><path d="M-68.67 703.05L197.78 559.4" stroke="hsl(0, 70.5%, 53.5%)" stroke-width="1.5"></path><path d="M-68.67 703.05L352.64 656.54" stroke="hsl(0, 70.5%, 53.5%)" stroke-width="1.5"></path><path d="M516.31 546.41L516.31 546.41" stroke="hsl(0, 70.5%, 53.5%)" stroke-width="1.5"></path><path d="M516.31 546.41L350.16 494.62" stroke="hsl(0, 70.5%, 53.5%)" stroke-width="1.5"></path><path d="M516.31 546.41L687.81 508.56" stroke="hsl(0, 70.5%, 53.5%)" stroke-width="1.5"></path><path d="M516.31 546.41L352.64 656.54" stroke="hsl(0, 70.5%, 53.5%)" stroke-width="1.5"></path><path d="M516.31 546.41L666.69 701.64" stroke="hsl(0, 70.5%, 53.5%)" stroke-width="1.5"></path><path d="M516.31 546.41L686.12 412.08" stroke="hsl(0, 70.5%, 53.5%)" stroke-width="1.5"></path><path d="M686.12 412.08L686.12 412.08" stroke="hsl(0, 70.5%, 53.5%)" stroke-width="1.5"></path><path d="M686.12 412.08L687.81 508.56" stroke="hsl(0, 70.5%, 53.5%)" stroke-width="1.5"></path><path d="M686.12 412.08L800.46 506.46" stroke="hsl(0, 70.5%, 53.5%)" stroke-width="1.5"></path><path d="M1102.15 217.7L1102.15 217.7" stroke="hsl(0, 70.5%, 53.5%)" stroke-width="1.5"></path><path d="M1102.15 217.7L1248.1 241.86" stroke="hsl(0, 70.5%, 53.5%)" stroke-width="1.5"></path><path d="M1102.15 217.7L1123.03 410.22" stroke="hsl(0, 70.5%, 53.5%)" stroke-width="1.5"></path><path d="M1102.15 217.7L1284.91 110.58" stroke="hsl(0, 70.5%, 53.5%)" stroke-width="1.5"></path><path d="M1102.15 217.7L1250.87 386.28" stroke="hsl(0, 70.5%, 53.5%)" stroke-width="1.5"></path><path d="M1288.04 -45.54L1288.04 -45.54" stroke="hsl(0, 70.5%, 53.5%)" stroke-width="1.5"></path><path d="M1288.04 -45.54L1284.91 110.58" stroke="hsl(0, 70.5%, 53.5%)" stroke-width="1.5"></path><path d="M1288.04 -45.54L1430.4 90.79" stroke="hsl(0, 70.5%, 53.5%)" stroke-width="1.5"></path><path d="M1288.04 -45.54L1540.67 -95.26" stroke="hsl(0, 70.5%, 53.5%)" stroke-width="1.5"></path><path d="M1250.87 386.28L1250.87 386.28" stroke="hsl(0, 70.5%, 53.5%)" stroke-width="1.5"></path><path d="M1250.87 386.28L1252.18 493.17" stroke="hsl(0, 70.5%, 53.5%)" stroke-width="1.5"></path><path d="M1250.87 386.28L1123.03 410.22" stroke="hsl(0, 70.5%, 53.5%)" stroke-width="1.5"></path><path d="M1250.87 386.28L1248.1 241.86" stroke="hsl(0, 70.5%, 53.5%)" stroke-width="1.5"></path><path d="M1250.87 386.28L1396.68 395.91" stroke="hsl(0, 70.5%, 53.5%)" stroke-width="1.5"></path><path d="M1250.87 386.28L1128.51 521.87" stroke="hsl(0, 70.5%, 53.5%)" stroke-width="1.5"></path><path d="M1250.87 386.28L1394.98 514.14" stroke="hsl(0, 70.5%, 53.5%)" stroke-width="1.5"></path><path d="M1252.18 493.17L1252.18 493.17" stroke="hsl(0, 70.5%, 53.5%)" stroke-width="1.5"></path><path d="M1252.18 493.17L1128.51 521.87" stroke="hsl(0, 70.5%, 53.5%)" stroke-width="1.5"></path><path d="M1252.18 493.17L1394.98 514.14" stroke="hsl(0, 70.5%, 53.5%)" stroke-width="1.5"></path><path d="M1252.18 493.17L1123.03 410.22" stroke="hsl(0, 70.5%, 53.5%)" stroke-width="1.5"></path><path d="M1252.18 493.17L1295.28 640.98" stroke="hsl(0, 70.5%, 53.5%)" stroke-width="1.5"></path><path d="M1252.18 493.17L1396.68 395.91" stroke="hsl(0, 70.5%, 53.5%)" stroke-width="1.5"></path><path d="M1430.4 90.79L1430.4 90.79" stroke="hsl(0, 70.5%, 53.5%)" stroke-width="1.5"></path><path d="M1430.4 90.79L1456.48 196.24" stroke="hsl(0, 70.5%, 53.5%)" stroke-width="1.5"></path><path d="M1430.4 90.79L1548.1 59.3" stroke="hsl(0, 70.5%, 53.5%)" stroke-width="1.5"></path><path d="M1430.4 90.79L1284.91 110.58" stroke="hsl(0, 70.5%, 53.5%)" stroke-width="1.5"></path><path d="M1394.98 514.14L1394.98 514.14" stroke="hsl(0, 70.5%, 53.5%)" stroke-width="1.5"></path><path d="M1394.98 514.14L1396.68 395.91" stroke="hsl(0, 70.5%, 53.5%)" stroke-width="1.5"></path><path d="M1540.67 -95.26L1540.67 -95.26" stroke="hsl(0, 70.5%, 53.5%)" stroke-width="1.5"></path><path d="M1540.67 -95.26L1548.1 59.3" stroke="hsl(0, 70.5%, 53.5%)" stroke-width="1.5"></path><path d="M1540.67 -95.26L1430.4 90.79" stroke="hsl(0, 70.5%, 53.5%)" stroke-width="1.5"></path><path d="M1540.67 -95.26L1456.48 196.24" stroke="hsl(0, 70.5%, 53.5%)" stroke-width="1.5"></path><path d="M1553.26 375.2L1553.26 375.2" stroke="hsl(0, 70.5%, 53.5%)" stroke-width="1.5"></path><path d="M1553.26 375.2L1603.27 261.32" stroke="hsl(0, 70.5%, 53.5%)" stroke-width="1.5"></path><path d="M1553.26 375.2L1396.68 395.91" stroke="hsl(0, 70.5%, 53.5%)" stroke-width="1.5"></path><path d="M1553.26 375.2L1456.48 196.24" stroke="hsl(0, 70.5%, 53.5%)" stroke-width="1.5"></path><path d="M1553.26 375.2L1394.98 514.14" stroke="hsl(0, 70.5%, 53.5%)" stroke-width="1.5"></path><path d="M-102.37 504.09L-102.37 504.09" stroke="hsl(0, 70.5%, 53.5%)" stroke-width="1.5"></path><path d="M-102.37 504.09L103.1 535.43" stroke="hsl(0, 70.5%, 53.5%)" stroke-width="1.5"></path><path d="M-102.37 504.09L98.17 681" stroke="hsl(0, 70.5%, 53.5%)" stroke-width="1.5"></path><path d="M-102.37 504.09L197.78 559.4" stroke="hsl(0, 70.5%, 53.5%)" stroke-width="1.5"></path><path d="M-102.37 504.09L192.34 685.49" stroke="hsl(0, 70.5%, 53.5%)" stroke-width="1.5"></path><path d="M103.1 535.43L103.1 535.43" stroke="hsl(0, 70.5%, 53.5%)" stroke-width="1.5"></path><path d="M103.1 535.43L197.78 559.4" stroke="hsl(0, 70.5%, 53.5%)" stroke-width="1.5"></path><path d="M103.1 535.43L98.17 681" stroke="hsl(0, 70.5%, 53.5%)" stroke-width="1.5"></path><path d="M103.1 535.43L192.34 685.49" stroke="hsl(0, 70.5%, 53.5%)" stroke-width="1.5"></path><path d="M98.17 681L98.17 681" stroke="hsl(0, 70.5%, 53.5%)" stroke-width="1.5"></path><path d="M98.17 681L192.34 685.49" stroke="hsl(0, 70.5%, 53.5%)" stroke-width="1.5"></path><path d="M98.17 681L197.78 559.4" stroke="hsl(0, 70.5%, 53.5%)" stroke-width="1.5"></path><path d="M197.78 559.4L197.78 559.4" stroke="hsl(0, 70.5%, 53.5%)" stroke-width="1.5"></path><path d="M197.78 559.4L192.34 685.49" stroke="hsl(0, 70.5%, 53.5%)" stroke-width="1.5"></path><path d="M192.34 685.49L192.34 685.49" stroke="hsl(0, 70.5%, 53.5%)" stroke-width="1.5"></path><path d="M192.34 685.49L352.64 656.54" stroke="hsl(0, 70.5%, 53.5%)" stroke-width="1.5"></path><path d="M350.16 494.62L350.16 494.62" stroke="hsl(0, 70.5%, 53.5%)" stroke-width="1.5"></path><path d="M350.16 494.62L352.64 656.54" stroke="hsl(0, 70.5%, 53.5%)" stroke-width="1.5"></path><path d="M350.16 494.62L197.78 559.4" stroke="hsl(0, 70.5%, 53.5%)" stroke-width="1.5"></path><path d="M352.64 656.54L352.64 656.54" stroke="hsl(0, 70.5%, 53.5%)" stroke-width="1.5"></path><path d="M687.81 508.56L687.81 508.56" stroke="hsl(0, 70.5%, 53.5%)" stroke-width="1.5"></path><path d="M687.81 508.56L800.46 506.46" stroke="hsl(0, 70.5%, 53.5%)" stroke-width="1.5"></path><path d="M687.81 508.56L666.69 701.64" stroke="hsl(0, 70.5%, 53.5%)" stroke-width="1.5"></path><path d="M687.81 508.56L825.62 670.79" stroke="hsl(0, 70.5%, 53.5%)" stroke-width="1.5"></path><path d="M687.81 508.56L1007.72 512.84" stroke="hsl(0, 70.5%, 53.5%)" stroke-width="1.5"></path><path d="M666.69 701.64L666.69 701.64" stroke="hsl(0, 70.5%, 53.5%)" stroke-width="1.5"></path><path d="M666.69 701.64L825.62 670.79" stroke="hsl(0, 70.5%, 53.5%)" stroke-width="1.5"></path><path d="M666.69 701.64L800.46 506.46" stroke="hsl(0, 70.5%, 53.5%)" stroke-width="1.5"></path><path d="M666.69 701.64L686.12 412.08" stroke="hsl(0, 70.5%, 53.5%)" stroke-width="1.5"></path><path d="M666.69 701.64L981.84 695.18" stroke="hsl(0, 70.5%, 53.5%)" stroke-width="1.5"></path><path d="M800.46 506.46L800.46 506.46" stroke="hsl(0, 70.5%, 53.5%)" stroke-width="1.5"></path><path d="M800.46 506.46L825.62 670.79" stroke="hsl(0, 70.5%, 53.5%)" stroke-width="1.5"></path><path d="M825.62 670.79L825.62 670.79" stroke="hsl(0, 70.5%, 53.5%)" stroke-width="1.5"></path><path d="M825.62 670.79L981.84 695.18" stroke="hsl(0, 70.5%, 53.5%)" stroke-width="1.5"></path><path d="M825.62 670.79L1007.72 512.84" stroke="hsl(0, 70.5%, 53.5%)" stroke-width="1.5"></path><path d="M825.62 670.79L1105.47 660.38" stroke="hsl(0, 70.5%, 53.5%)" stroke-width="1.5"></path><path d="M1007.72 512.84L1007.72 512.84" stroke="hsl(0, 70.5%, 53.5%)" stroke-width="1.5"></path><path d="M1007.72 512.84L1128.51 521.87" stroke="hsl(0, 70.5%, 53.5%)" stroke-width="1.5"></path><path d="M1007.72 512.84L1123.03 410.22" stroke="hsl(0, 70.5%, 53.5%)" stroke-width="1.5"></path><path d="M1007.72 512.84L1105.47 660.38" stroke="hsl(0, 70.5%, 53.5%)" stroke-width="1.5"></path><path d="M1007.72 512.84L981.84 695.18" stroke="hsl(0, 70.5%, 53.5%)" stroke-width="1.5"></path><path d="M1007.72 512.84L800.46 506.46" stroke="hsl(0, 70.5%, 53.5%)" stroke-width="1.5"></path><path d="M981.84 695.18L981.84 695.18" stroke="hsl(0, 70.5%, 53.5%)" stroke-width="1.5"></path><path d="M981.84 695.18L1105.47 660.38" stroke="hsl(0, 70.5%, 53.5%)" stroke-width="1.5"></path><path d="M1123.03 410.22L1123.03 410.22" stroke="hsl(0, 70.5%, 53.5%)" stroke-width="1.5"></path><path d="M1123.03 410.22L1128.51 521.87" stroke="hsl(0, 70.5%, 53.5%)" stroke-width="1.5"></path><path d="M1128.51 521.87L1128.51 521.87" stroke="hsl(0, 70.5%, 53.5%)" stroke-width="1.5"></path><path d="M1128.51 521.87L1105.47 660.38" stroke="hsl(0, 70.5%, 53.5%)" stroke-width="1.5"></path><path d="M1128.51 521.87L1295.28 640.98" stroke="hsl(0, 70.5%, 53.5%)" stroke-width="1.5"></path><path d="M1105.47 660.38L1105.47 660.38" stroke="hsl(0, 70.5%, 53.5%)" stroke-width="1.5"></path><path d="M1284.91 110.58L1284.91 110.58" stroke="hsl(0, 70.5%, 53.5%)" stroke-width="1.5"></path><path d="M1284.91 110.58L1248.1 241.86" stroke="hsl(0, 70.5%, 53.5%)" stroke-width="1.5"></path><path d="M1284.91 110.58L1456.48 196.24" stroke="hsl(0, 70.5%, 53.5%)" stroke-width="1.5"></path><path d="M1248.1 241.86L1248.1 241.86" stroke="hsl(0, 70.5%, 53.5%)" stroke-width="1.5"></path><path d="M1248.1 241.86L1123.03 410.22" stroke="hsl(0, 70.5%, 53.5%)" stroke-width="1.5"></path><path d="M1295.28 640.98L1295.28 640.98" stroke="hsl(0, 70.5%, 53.5%)" stroke-width="1.5"></path><path d="M1295.28 640.98L1454.72 642.5" stroke="hsl(0, 70.5%, 53.5%)" stroke-width="1.5"></path><path d="M1456.48 196.24L1456.48 196.24" stroke="hsl(0, 70.5%, 53.5%)" stroke-width="1.5"></path><path d="M1456.48 196.24L1603.27 261.32" stroke="hsl(0, 70.5%, 53.5%)" stroke-width="1.5"></path><path d="M1456.48 196.24L1548.1 59.3" stroke="hsl(0, 70.5%, 53.5%)" stroke-width="1.5"></path><path d="M1396.68 395.91L1396.68 395.91" stroke="hsl(0, 70.5%, 53.5%)" stroke-width="1.5"></path><path d="M1454.72 642.5L1454.72 642.5" stroke="hsl(0, 70.5%, 53.5%)" stroke-width="1.5"></path><path d="M1454.72 642.5L1578.61 643.94" stroke="hsl(0, 70.5%, 53.5%)" stroke-width="1.5"></path><path d="M1454.72 642.5L1394.98 514.14" stroke="hsl(0, 70.5%, 53.5%)" stroke-width="1.5"></path><path d="M1454.72 642.5L1252.18 493.17" stroke="hsl(0, 70.5%, 53.5%)" stroke-width="1.5"></path><path d="M1548.1 59.3L1548.1 59.3" stroke="hsl(0, 70.5%, 53.5%)" stroke-width="1.5"></path><path d="M1603.27 261.32L1603.27 261.32" stroke="hsl(0, 70.5%, 53.5%)" stroke-width="1.5"></path><path d="M1603.27 261.32L1548.1 59.3" stroke="hsl(0, 70.5%, 53.5%)" stroke-width="1.5"></path><path d="M1603.27 261.32L1430.4 90.79" stroke="hsl(0, 70.5%, 53.5%)" stroke-width="1.5"></path><path d="M1603.27 261.32L1396.68 395.91" stroke="hsl(0, 70.5%, 53.5%)" stroke-width="1.5"></path><path d="M1603.27 261.32L1394.98 514.14" stroke="hsl(0, 70.5%, 53.5%)" stroke-width="1.5"></path><path d="M1578.61 643.94L1578.61 643.94" stroke="hsl(0, 70.5%, 53.5%)" stroke-width="1.5"></path><path d="M1578.61 643.94L1394.98 514.14" stroke="hsl(0, 70.5%, 53.5%)" stroke-width="1.5"></path><circle r="25" cx="-68.67" cy="703.05" fill="url(&quot;#SvgjsRadialGradient1083&quot;)"></circle><circle r="25" cx="516.31" cy="546.41" fill="url(&quot;#SvgjsRadialGradient1083&quot;)"></circle><circle r="25" cx="686.12" cy="412.08" fill="url(&quot;#SvgjsRadialGradient1083&quot;)"></circle><circle r="25" cx="1102.15" cy="217.7" fill="url(&quot;#SvgjsRadialGradient1083&quot;)"></circle><circle r="25" cx="1288.04" cy="-45.54" fill="url(&quot;#SvgjsRadialGradient1083&quot;)"></circle><circle r="25" cx="1250.87" cy="386.28" fill="url(&quot;#SvgjsRadialGradient1083&quot;)"></circle><circle r="25" cx="1252.18" cy="493.17" fill="url(&quot;#SvgjsRadialGradient1083&quot;)"></circle><circle r="25" cx="1430.4" cy="90.79" fill="url(&quot;#SvgjsRadialGradient1083&quot;)"></circle><circle r="25" cx="1394.98" cy="514.14" fill="url(&quot;#SvgjsRadialGradient1083&quot;)"></circle><circle r="25" cx="1540.67" cy="-95.26" fill="url(&quot;#SvgjsRadialGradient1083&quot;)"></circle><circle r="25" cx="1553.26" cy="375.2" fill="url(&quot;#SvgjsRadialGradient1083&quot;)"></circle><circle r="5" cx="-102.37" cy="504.09" fill="#d98f8f"></circle><circle r="5" cx="103.1" cy="535.43" fill="#d98f8f"></circle><circle r="5" cx="98.17" cy="681" fill="#d98f8f"></circle><circle r="5" cx="197.78" cy="559.4" fill="#d98f8f"></circle><circle r="5" cx="192.34" cy="685.49" fill="#d98f8f"></circle><circle r="5" cx="350.16" cy="494.62" fill="#d98f8f"></circle><circle r="5" cx="352.64" cy="656.54" fill="#d98f8f"></circle><circle r="5" cx="687.81" cy="508.56" fill="#d98f8f"></circle><circle r="5" cx="666.69" cy="701.64" fill="#d98f8f"></circle><circle r="5" cx="800.46" cy="506.46" fill="#d98f8f"></circle><circle r="5" cx="825.62" cy="670.79" fill="#d98f8f"></circle><circle r="5" cx="1007.72" cy="512.84" fill="#d98f8f"></circle><circle r="5" cx="981.84" cy="695.18" fill="#d98f8f"></circle><circle r="5" cx="1123.03" cy="410.22" fill="#d98f8f"></circle><circle r="5" cx="1128.51" cy="521.87" fill="#d98f8f"></circle><circle r="5" cx="1105.47" cy="660.38" fill="#d98f8f"></circle><circle r="5" cx="1284.91" cy="110.58" fill="#d98f8f"></circle><circle r="5" cx="1248.1" cy="241.86" fill="#d98f8f"></circle><circle r="5" cx="1295.28" cy="640.98" fill="#d98f8f"></circle><circle r="5" cx="1456.48" cy="196.24" fill="#d98f8f"></circle><circle r="5" cx="1396.68" cy="395.91" fill="#d98f8f"></circle><circle r="5" cx="1454.72" cy="642.5" fill="#d98f8f"></circle><circle r="5" cx="1548.1" cy="59.3" fill="#d98f8f"></circle><circle r="5" cx="1603.27" cy="261.32" fill="#d98f8f"></circle><circle r="5" cx="1578.61" cy="643.94" fill="#d98f8f"></circle></g><defs><mask id="SvgjsMask1082"><rect width="1440" height="560" fill="#ffffff"></rect></mask><radialGradient id="SvgjsRadialGradient1083"><stop stop-color="#ffffff" offset="0.1"></stop><stop stop-color="rgba(179, 31, 31, 1)" offset="0.2"></stop><stop stop-color="rgba(179, 31, 31, 0)" offset="1"></stop></radialGradient></defs></svg>