<svg xmlns="http://www.w3.org/2000/svg" version="1.1" xmlns:xlink="http://www.w3.org/1999/xlink" xmlns:svgjs="http://svgjs.dev/svgjs" width="1440" height="560" preserveAspectRatio="none" viewBox="0 0 1440 560"><g mask="url(&quot;#SvgjsMask1026&quot;)" fill="none"><rect width="1440" height="560" x="0" y="0" fill="rgba(155, 27, 27, 1)"></rect><path d="M0,649.541C123.071,653.851,255.315,620.097,342.839,533.468C426.297,450.864,392.363,307.91,449.057,205.078C513.028,89.047,688.313,32.987,691.788,-99.464C695.169,-228.312,557.284,-312.94,465.01,-402.933C379.702,-486.132,294.489,-583.722,176.708,-601.813C62.626,-619.336,-32.808,-520.012,-145.863,-496.765C-273.71,-470.476,-432.46,-546.556,-527.434,-457.024C-620.844,-368.966,-590.037,-212.157,-583.785,-83.936C-578.444,25.595,-537.557,124.966,-494.145,225.668C-449.775,328.591,-412.817,437.012,-327.747,509.985C-235.758,588.892,-121.121,645.299,0,649.541" fill="#771515"></path><path d="M1440 992.432C1537.965 1013.348 1650.325 1072.516 1733.44 1016.601 1816.885 960.463 1782.96 827.164 1822.875 734.8530000000001 1861.613 645.263 1971.725 581.996 1963.4099999999999 484.745 1955.12 387.791 1851.488 331.855 1782.547 263.182 1718.769 199.65300000000002 1664.105 114.51499999999999 1575.542 98.387 1488.426 82.52199999999999 1412.367 151.887 1328.571 180.50900000000001 1249.283 207.591 1152.6399999999999 200.171 1096.216 262.11 1039.562 324.301 1051.722 419.278 1035.808 501.886 1018.981 589.229 963.706 679.733 1000.1279999999999 760.883 1036.556 842.047 1138.6480000000001 864.9780000000001 1217.371 906.418 1289.224 944.241 1360.59 975.4780000000001 1440 992.432" fill="#bf2121"></path></g><defs><mask id="SvgjsMask1026"><rect width="1440" height="560" fill="#ffffff"></rect></mask></defs></svg>