<?xml version="1.0" encoding="utf-8"?>
<!-- Generator: Adobe Illustrator 24.0.1, SVG Export Plug-In . SVG Version: 6.00 Build 0)  -->
<svg version="1.1" id="Layer_1" xmlns="http://www.w3.org/2000/svg" xmlns:xlink="http://www.w3.org/1999/xlink" x="0px" y="0px"
	 viewBox="0 0 288 288" style="enable-background:new 0 0 288 288;" xml:space="preserve">
<style type="text/css">
	.st0{opacity:0;fill:#FFFFFF;}
	.st1{fill:#700404;}
	.st2{fill:#FC2B2B;}
	.st3{fill:#B6B6B8;}
	.st4{fill:#313335;}
	.st5{fill:#E9E9EB;}
	.st6{fill:#7F858A;}
</style>
<g>
	<rect class="st0" width="288" height="288"/>
	<polygon class="st1" points="202.5,150.6 257,67.4 148,67.4 	"/>
	<polygon class="st2" points="222.8,155.3 255.5,105.4 190.1,105.4 	"/>
	<polygon class="st1" points="246,151.6 222.9,186.9 269.1,186.9 	"/>
	<polygon class="st3" points="82.7,125.7 114.6,77 50.8,77 	"/>
	<polygon class="st3" points="216.6,192.5 202.4,214.1 230.7,214.1 	"/>
	<polygon class="st2" points="73.5,130.7 18.9,214.1 128.1,214.1 	"/>
	<polygon class="st1" points="49.2,137.7 22.7,178.2 75.7,178.2 	"/>
	<polygon class="st1" points="94.4,60.3 87.6,70.7 101.2,70.7 	"/>
	<polygon class="st2" points="198.4,190.1 207.5,176.3 189.4,176.3 	"/>
	<g>
		
			<rect x="171.3" y="48" transform="matrix(0.8335 -0.5526 0.5526 0.8335 -34.4831 113.9141)" class="st4" width="0.9" height="132.3"/>
	</g>
	<g>
		
			<rect x="94.3" y="149.6" transform="matrix(0.8375 -0.5464 0.5464 0.8375 -80.4781 80.2698)" class="st4" width="0.9" height="51.7"/>
	</g>
	<g>
		
			<rect x="187.4" y="177.4" transform="matrix(0.5405 -0.8414 0.8414 0.5405 -50.2159 263.7822)" class="st4" width="58" height="0.9"/>
	</g>
	<g>
		<rect x="56.9" y="95.3" transform="matrix(0.544 -0.8391 0.8391 0.544 -37.5051 122.4218)" class="st4" width="74" height="0.9"/>
	</g>
	<polygon class="st5" points="145.6,229 84.5,133.4 132.3,64.2 194.7,160.8 	"/>
	<g>
		<g>
			
				<rect x="118.1" y="214.7" transform="matrix(0.5583 -0.8296 0.8296 0.5583 -114.7714 214.2281)" class="st6" width="51.5" height="0.5"/>
		</g>
		<g>
			
				<rect x="115.9" y="211.4" transform="matrix(0.5583 -0.8296 0.8296 0.5583 -113.0123 211.0035)" class="st6" width="51.5" height="0.5"/>
		</g>
		<g>
			
				<rect x="113.7" y="208" transform="matrix(0.5582 -0.8297 0.8297 0.5582 -111.1412 207.7332)" class="st6" width="51.5" height="0.5"/>
		</g>
		<g>
			
				<rect x="111.6" y="204.7" transform="matrix(0.5582 -0.8297 0.8297 0.5582 -109.3824 204.5085)" class="st6" width="51.5" height="0.5"/>
		</g>
	</g>
	<g>
		<g>
			
				<rect x="190.1" y="116.2" transform="matrix(0.5583 -0.8296 0.8296 0.5583 -1.2567 230.4563)" class="st4" width="51.5" height="0.5"/>
		</g>
		<g>
			
				<rect x="187.9" y="112.9" transform="matrix(0.5583 -0.8296 0.8296 0.5583 0.5025 227.2319)" class="st4" width="51.5" height="0.5"/>
		</g>
		<g>
			
				<rect x="185.7" y="109.5" transform="matrix(0.5582 -0.8297 0.8297 0.5582 2.3892 223.9513)" class="st4" width="51.5" height="0.5"/>
		</g>
		<g>
			
				<rect x="183.6" y="106.2" transform="matrix(0.5582 -0.8297 0.8297 0.5582 4.1479 220.7267)" class="st4" width="51.5" height="0.5"/>
		</g>
	</g>
	<g>
		<g>
			
				<rect x="37.1" y="175.9" transform="matrix(0.5583 -0.8296 0.8296 0.5583 -118.4032 129.9631)" class="st4" width="51.5" height="0.5"/>
		</g>
		<g>
			
				<rect x="34.9" y="172.6" transform="matrix(0.5583 -0.8296 0.8296 0.5583 -116.6344 126.6451)" class="st4" width="51.5" height="0.5"/>
		</g>
		<g>
			
				<rect x="32.8" y="169.3" transform="matrix(0.5582 -0.8297 0.8297 0.5582 -114.7825 123.4582)" class="st4" width="51.5" height="0.5"/>
		</g>
		<g>
			
				<rect x="30.6" y="166" transform="matrix(0.5582 -0.8297 0.8297 0.5582 -113.0237 120.2336)" class="st4" width="51.5" height="0.5"/>
		</g>
	</g>
</g>
</svg>
