<svg id="visual" viewBox="0 0 960 540" width="960" height="540" xmlns="http://www.w3.org/2000/svg" xmlns:xlink="http://www.w3.org/1999/xlink" version="1.1"><path d="M0 474L16 477.3C32 480.7 64 487.3 96 482C128 476.7 160 459.3 192 446.8C224 434.3 256 426.7 288 429.5C320 432.3 352 445.7 384 458.7C416 471.7 448 484.3 480 482.3C512 480.3 544 463.7 576 453.8C608 444 640 441 672 436.3C704 431.7 736 425.3 768 424C800 422.7 832 426.3 864 432.2C896 438 928 446 944 450L960 454L960 541L944 541C928 541 896 541 864 541C832 541 800 541 768 541C736 541 704 541 672 541C640 541 608 541 576 541C544 541 512 541 480 541C448 541 416 541 384 541C352 541 320 541 288 541C256 541 224 541 192 541C160 541 128 541 96 541C64 541 32 541 16 541L0 541Z" fill="#ededed" stroke-linecap="round" stroke-linejoin="miter"></path></svg>