<svg id="visual" viewBox="0 0 960 540" width="960" height="540" xmlns="http://www.w3.org/2000/svg" xmlns:xlink="http://www.w3.org/1999/xlink" version="1.1"><path d="M0 344L22.8 361C45.7 378 91.3 412 137 418.5C182.7 425 228.3 404 274 406.5C319.7 409 365.3 435 411.2 430C457 425 503 389 548.8 371.7C594.7 354.3 640.3 355.7 686 372.5C731.7 389.3 777.3 421.7 823 426.3C868.7 431 914.3 408 937.2 396.5L960 385L960 541L937.2 541C914.3 541 868.7 541 823 541C777.3 541 731.7 541 686 541C640.3 541 594.7 541 548.8 541C503 541 457 541 411.2 541C365.3 541 319.7 541 274 541C228.3 541 182.7 541 137 541C91.3 541 45.7 541 22.8 541L0 541Z" fill="#991622" stroke-linecap="round" stroke-linejoin="miter"></path></svg>