<svg id="visual" viewBox="0 0 960 540" width="960" height="540" xmlns="http://www.w3.org/2000/svg" xmlns:xlink="http://www.w3.org/1999/xlink" version="1.1"><path d="M0 403L22.8 388.8C45.7 374.7 91.3 346.3 137 346C182.7 345.7 228.3 373.3 274 386.5C319.7 399.7 365.3 398.3 411.2 383.3C457 368.3 503 339.7 548.8 327.2C594.7 314.7 640.3 318.3 686 329.5C731.7 340.7 777.3 359.3 823 361.8C868.7 364.3 914.3 350.7 937.2 343.8L960 337L960 541L937.2 541C914.3 541 868.7 541 823 541C777.3 541 731.7 541 686 541C640.3 541 594.7 541 548.8 541C503 541 457 541 411.2 541C365.3 541 319.7 541 274 541C228.3 541 182.7 541 137 541C91.3 541 45.7 541 22.8 541L0 541Z" fill="#b62f3a"></path><path d="M0 427L22.8 412.8C45.7 398.7 91.3 370.3 137 368.7C182.7 367 228.3 392 274 406.8C319.7 421.7 365.3 426.3 411.2 418.7C457 411 503 391 548.8 387.5C594.7 384 640.3 397 686 394.2C731.7 391.3 777.3 372.7 823 376.3C868.7 380 914.3 406 937.2 419L960 432L960 541L937.2 541C914.3 541 868.7 541 823 541C777.3 541 731.7 541 686 541C640.3 541 594.7 541 548.8 541C503 541 457 541 411.2 541C365.3 541 319.7 541 274 541C228.3 541 182.7 541 137 541C91.3 541 45.7 541 22.8 541L0 541Z" fill="#ae2934"></path><path d="M0 379L22.8 389.8C45.7 400.7 91.3 422.3 137 421.2C182.7 420 228.3 396 274 385C319.7 374 365.3 376 411.2 387.2C457 398.3 503 418.7 548.8 423.2C594.7 427.7 640.3 416.3 686 420.8C731.7 425.3 777.3 445.7 823 439.7C868.7 433.7 914.3 401.3 937.2 385.2L960 369L960 541L937.2 541C914.3 541 868.7 541 823 541C777.3 541 731.7 541 686 541C640.3 541 594.7 541 548.8 541C503 541 457 541 411.2 541C365.3 541 319.7 541 274 541C228.3 541 182.7 541 137 541C91.3 541 45.7 541 22.8 541L0 541Z" fill="#a7232e"></path><path d="M0 460L22.8 455.3C45.7 450.7 91.3 441.3 137 443.3C182.7 445.3 228.3 458.7 274 470.2C319.7 481.7 365.3 491.3 411.2 482.8C457 474.3 503 447.7 548.8 435.8C594.7 424 640.3 427 686 440.5C731.7 454 777.3 478 823 476.2C868.7 474.3 914.3 446.7 937.2 432.8L960 419L960 541L937.2 541C914.3 541 868.7 541 823 541C777.3 541 731.7 541 686 541C640.3 541 594.7 541 548.8 541C503 541 457 541 411.2 541C365.3 541 319.7 541 274 541C228.3 541 182.7 541 137 541C91.3 541 45.7 541 22.8 541L0 541Z" fill="#a01d28"></path><path d="M0 454L22.8 461C45.7 468 91.3 482 137 494.7C182.7 507.3 228.3 518.7 274 524C319.7 529.3 365.3 528.7 411.2 525.7C457 522.7 503 517.3 548.8 508.7C594.7 500 640.3 488 686 490.7C731.7 493.3 777.3 510.7 823 510.7C868.7 510.7 914.3 493.3 937.2 484.7L960 476L960 541L937.2 541C914.3 541 868.7 541 823 541C777.3 541 731.7 541 686 541C640.3 541 594.7 541 548.8 541C503 541 457 541 411.2 541C365.3 541 319.7 541 274 541C228.3 541 182.7 541 137 541C91.3 541 45.7 541 22.8 541L0 541Z" fill="#991622"></path></svg>