<svg xmlns="http://www.w3.org/2000/svg" version="1.1" xmlns:xlink="http://www.w3.org/1999/xlink" xmlns:svgjs="http://svgjs.dev/svgjs" width="1440" height="560" preserveAspectRatio="none" viewBox="0 0 1440 560"><g mask="url(&quot;#SvgjsMask1069&quot;)" fill="none"><path d="M -129.4490982364561,242 C -33.45,290.4 158.55,491.8 350.5509017635439,484 C 542.55,476.2 638.55,198 830.5509017635438,203 C 1022.55,208 1118.55,506.6 1310.5509017635438,509 C 1502.55,511.4 1764.66,238.2 1790.5509017635438,215 C 1816.44,191.8 1510.11,357.4 1440,393" stroke="rgba(155, 27, 27, 1)" stroke-width="2"></path><path d="M -559.3407679996855,352 C -463.34,311 -271.34,123.2 -79.34076799968548,147 C 112.66,170.8 208.66,484 400.65923200031455,471 C 592.66,458 688.66,105.8 880.6592320003145,82 C 1072.66,58.2 1248.79,352.2 1360.6592320003144,352 C 1472.53,351.8 1424.13,135.2 1440,81" stroke="rgba(155, 27, 27, 1)" stroke-width="2"></path><path d="M -887.8045645724994,332 C -791.8,277.2 -599.8,61.8 -407.8045645724995,58 C -215.8,54.2 -119.8,278.2 72.19543542750051,313 C 264.2,347.8 360.2,234.6 552.1954354275006,232 C 744.2,229.4 854.63,317 1032.1954354275006,300 C 1209.76,283 1358.44,177.6 1440,147" stroke="rgba(155, 27, 27, 1)" stroke-width="2"></path><path d="M -156.80362198664727,467 C -60.8,426.2 131.2,268.2 323.1963780133527,263 C 515.2,257.8 611.2,477.6 803.1963780133527,441 C 995.2,404.4 1091.2,111.2 1283.1963780133528,80 C 1475.2,48.8 1731.84,287 1763.1963780133528,285 C 1794.56,283 1504.64,113 1440,70" stroke="rgba(155, 27, 27, 1)" stroke-width="2"></path><path d="M -350.28220524259797,169 C -254.28,237.8 -62.28,513.4 129.71779475740203,513 C 321.72,512.6 417.72,174.4 609.7177947574021,167 C 801.72,159.6 897.72,480.6 1089.717794757402,476 C 1281.72,471.4 1499.66,169.4 1569.717794757402,144 C 1639.77,118.6 1465.94,308 1440,349" stroke="rgba(155, 27, 27, 1)" stroke-width="2"></path><path d="M -358.05673776593494,339 C -262.06,294.2 -70.06,101.2 121.94326223406509,115 C 313.94,128.8 409.94,402 601.9432622340651,408 C 793.94,414 889.94,147.2 1081.943262234065,145 C 1273.94,142.8 1490.33,410.2 1561.943262234065,397 C 1633.55,383.8 1464.39,142.6 1440,79" stroke="rgba(155, 27, 27, 1)" stroke-width="2"></path></g><defs><mask id="SvgjsMask1069"><rect width="1440" height="560" fill="#ffffff"></rect></mask></defs></svg>